{
.appVersion = "3436";
.formatVersion = 3;
DisplayStrings = (
"◌",
"/one.ss01/two.ss01/three.ss01/four.ss01/five.ss01/six.ss01/seven.ss01 
1234567890",
"/four.ss01/four.002",
"ц"
);
axes = (
{
name = Weight;
tag = wght;
}
);
date = "2018-10-03 00:58:32 +0000";
familyName = Omokoroa;
fontMaster = (
{
axesValues = (
68
);
iconName = Light;
id = "E5DC9139-DBE8-45F6-BCD0-0641ED917C2C";
metricValues = (
{
pos = 900;
},
{
pos = 800;
},
{
pos = 500;
},
{
},
{
pos = -250;
},
{
}
);
name = Light;
userData = {
GSExtrudeAngle = 30;
GSExtrudeOffset = 15;
GSOffsetHorizontal = 15;
GSOffsetKeepCompatible = 1;
GSOffsetVertical = 10;
};
},
{
axesValues = (
108
);
id = "2F0BCB80-3430-4FA1-A4A3-7C385E8DAA98";
metricValues = (
{
pos = 900;
},
{
pos = 800;
},
{
pos = 500;
},
{
},
{
pos = -250;
},
{
}
);
name = Medium;
userData = {
GSExtrudeAngle = 30;
GSExtrudeOffset = 15;
};
},
{
axesValues = (
148
);
customParameters = (
{
name = typoAscender;
value = 900;
},
{
name = typoDescender;
value = -250;
},
{
name = typoLineGap;
value = 50;
},
{
name = winAscent;
value = 1048;
},
{
name = winDescent;
value = 250;
},
{
name = hheaAscender;
value = 950;
},
{
name = hheaDescender;
value = -250;
},
{
name = strikeoutPosition;
value = 250;
},
{
name = strikeoutSize;
value = 50;
},
{
name = underlinePosition;
value = -100;
},
{
name = underlineThickness;
value = 50;
}
);
guides = (
{
pos = (260,267);
}
);
id = m01;
metricValues = (
{
pos = 900;
},
{
pos = 800;
},
{
pos = 500;
},
{
},
{
pos = -250;
},
{
}
);
name = ExtraBold;
}
);
glyphs = (
{
color = 4;
glyphname = A;
lastChange = "2026-06-23 22:30:31 +0000";
layers = (
{
anchors = (
{
name = bottom;
pos = (479,0);
},
{
name = ogonek;
pos = (860,10);
},
{
name = top;
pos = (486,800);
}
);
hints = (
{
name = _corner.leftserif;
options = 1;
origin = (1,2);
scale = (-1,1);
type = Corner;
},
{
name = _corner.leftserif;
origin = (1,1);
type = Corner;
},
{
name = _corner.leftserif;
origin = (1,5);
type = Corner;
},
{
name = _corner.leftserif;
options = 1;
origin = (1,6);
scale = (-1,1);
type = Corner;
}
);
layerId = "E5DC9139-DBE8-45F6-BCD0-0641ED917C2C";
shapes = (
{
closed = 1;
nodes = (
(456,704,l),
(607,263,l),
(295,263,l)
);
},
{
closed = 1;
nodes = (
(478,800,l),
(186,0,l),
(198,0,l),
(291,253,l),
(610,253,l),
(697,0,l),
(768,0,l),
(491,800,l)
);
}
);
width = 955;
},
{
anchors = (
{
name = bottom;
pos = (474,0);
},
{
name = ogonek;
pos = (798,10);
},
{
name = top;
pos = (474,800);
}
);
guides = (
{
angle = 70.9308;
pos = (250,137);
}
);
hints = (
{
name = _corner.leftserif;
options = 1;
origin = (1,2);
scale = (-1,1);
type = Corner;
},
{
name = _corner.leftserif;
origin = (1,1);
type = Corner;
},
{
name = _corner.leftserif;
origin = (1,5);
type = Corner;
},
{
name = _corner.leftserif;
options = 1;
origin = (1,6);
scale = (-1,1);
type = Corner;
}
);
layerId = "2F0BCB80-3430-4FA1-A4A3-7C385E8DAA98";
shapes = (
{
closed = 1;
nodes = (
(435,674,l),
(569,273,l),
(297,273,l)
);
},
{
closed = 1;
nodes = (
(461,800,l),
(185,0,l),
(203,0,l),
(292,258,l),
(574,258,l),
(658,0,l),
(767,0,l),
(491,800,l)
);
}
);
width = 952;
},
{
anchors = (
{
name = bottom;
pos = (470,0);
},
{
name = ogonek;
pos = (844,10);
},
{
name = top;
pos = (470,800);
}
);
guides = (
{
angle = 72.2788;
pos = (249,133);
},
{
angle = 106.7388;
pos = (583,133);
}
);
hints = (
{
horizontal = 1;
place = (266,17);
type = Stem;
},
{
horizontal = 1;
place = (0,18);
type = Stem;
},
{
place = (40,737);
type = Stem;
},
{
name = _corner.leftserif;
origin = (1,5);
type = Corner;
},
{
name = _corner.leftserif;
options = 1;
origin = (1,6);
scale = (-1,1);
type = Corner;
},
{
name = _corner.leftserif;
options = 1;
origin = (1,2);
scale = (-1,1);
type = Corner;
},
{
name = _corner.leftserif;
origin = (1,1);
type = Corner;
}
);
layerId = m01;
shapes = (
{
closed = 1;
nodes = (
(415,661,l),
(537,283,l),
(297,283,l)
);
},
{
closed = 1;
nodes = (
(441,800,l),
(183,0,l),
(206,0,l),
(290,263,l),
(544,263,l),
(623,0,l),
(766,0,l),
(493,800,l)
);
}
);
width = 949;
}
);
metricLeft = "=100";
metricRight = "=100";
unicode = 65;
},
{
color = 4;
glyphname = B;
lastChange = "2026-06-19 00:05:02 +0000";
layers = (
{
anchors = (
{
name = bottom;
pos = (378,0);
},
{
name = center;
pos = (219,240);
},
{
name = top;
pos = (378,800);
}
);
layerId = "E5DC9139-DBE8-45F6-BCD0-0641ED917C2C";
shapes = (
{
closed = 1;
nodes = (
(359,0,ls),
(549,0,o),
(655,78,o),
(655,218,cs),
(655,351,o),
(549,425,o),
(359,425,cs),
(242,425,l),
(242,417,l),
(358,417,ls),
(492,417,o),
(568,346,o),
(570,218,cs),
(570,85,o),
(494,10,o),
(359,10,cs),
(100,10,l),
(100,0,l)
);
},
{
closed = 1;
nodes = (
(242,2,l),
(242,798,l),
(174,798,l),
(174,2,l)
);
},
{
closed = 1;
nodes = (
(359,417,ls),
(530,417,o),
(625,484,o),
(625,604,cs),
(625,730,o),
(530,800,o),
(359,800,cs),
(100,800,l),
(100,789,l),
(359,789,ls),
(478,789,o),
(545,718,o),
(545,592,cs),
(542,485,o),
(475,425,o),
(358,425,cs),
(242,425,l),
(242,417,l)
);
}
);
width = 755;
},
{
anchors = (
{
name = bottom;
pos = (383,0);
},
{
name = center;
pos = (222,240);
},
{
name = top;
pos = (383,800);
}
);
layerId = "2F0BCB80-3430-4FA1-A4A3-7C385E8DAA98";
shapes = (
{
closed = 1;
nodes = (
(370,0,ls),
(568,0,o),
(666,72,o),
(666,218,cs),
(666,357,o),
(568,426,o),
(370,426,cs),
(253,426,l),
(253,416,l),
(369,416,ls),
(495,416,o),
(558,350,o),
(561,218,cs),
(561,82,o),
(498,15,o),
(370,15,cs),
(100,15,l),
(100,0,l)
);
},
{
closed = 1;
nodes = (
(283,2,l),
(283,798,l),
(175,798,l),
(175,2,l)
);
},
{
closed = 1;
nodes = (
(370,416,ls),
(548,416,o),
(636,478,o),
(636,604,cs),
(636,735,o),
(548,800,o),
(370,800,cs),
(100,800,l),
(100,785,l),
(370,785,ls),
(481,785,o),
(536,721,o),
(536,592,cs),
(533,481,o),
(478,426,o),
(369,426,cs),
(253,426,l),
(253,416,l)
);
}
);
width = 766;
},
{
anchors = (
{
name = bottom;
pos = (392,0);
},
{
name = center;
pos = (231,240);
},
{
name = top;
pos = (392,800);
}
);
hints = (
{
horizontal = 1;
place = (784,16);
type = Stem;
},
{
horizontal = 1;
place = (416,11);
type = Stem;
},
{
horizontal = 1;
place = (0,18);
type = Stem;
},
{
place = (478,125);
type = Stem;
},
{
place = (453,120);
type = Stem;
},
{
place = (190,55);
type = Stem;
},
{
place = (107,138);
type = Stem;
}
);
layerId = m01;
shapes = (
{
closed = 1;
nodes = (
(377,0,ls),
(588,0,o),
(693,72,o),
(693,218,cs),
(693,358,o),
(588,427,o),
(377,427,cs),
(260,427,l),
(260,416,l),
(376,416,ls),
(488,416,o),
(545,350,o),
(548,218,cs),
(548,84,o),
(485,18,o),
(357,18,cs),
(100,18,l),
(100,0,l)
);
},
{
closed = 1;
nodes = (
(315,2,l),
(315,798,l),
(167,798,l),
(167,2,l)
);
},
{
closed = 1;
nodes = (
(357,416,ls),
(562,416,o),
(663,478,o),
(663,604,cs),
(663,735,o),
(568,800,o),
(377,800,cs),
(100,800,l),
(100,784,l),
(357,784,ls),
(468,784,o),
(523,720,o),
(523,592,cs),
(520,482,o),
(465,427,o),
(356,427,cs),
(260,427,l),
(260,416,l)
);
}
);
width = 773;
}
);
unicode = 66;
},
{
color = 4;
glyphname = C;
lastChange = "2026-06-18 23:52:16 +0000";
layers = (
{
anchors = (
{
name = bottom;
pos = (419,0);
},
{
name = top;
pos = (419,800);
}
);
layerId = "E5DC9139-DBE8-45F6-BCD0-0641ED917C2C";
shapes = (
{
closed = 1;
nodes = (
(617,-6,o),
(736,87,o),
(735,220,c),
(725,220,l),
(725,93,o),
(610,4,o),
(447,4,cs),
(283,4,o),
(168,167,o),
(168,400,cs),
(168,633,o),
(283,796,o),
(447,796,cs),
(610,796,o),
(725,707,o),
(725,580,c),
(735,580,l),
(736,713,o),
(617,806,o),
(447,806,cs),
(243,806,o),
(100,638,o),
(100,400,cs),
(100,162,o),
(243,-6,o),
(447,-6,cs)
);
},
{
closed = 1;
nodes = (
(737,45,l),
(735,220,l),
(725,220,l),
(728,180,o),
(709,122,o),
(677,78,c),
(727,45,l)
);
},
{
closed = 1;
nodes = (
(735,580,l),
(737,755,l),
(727,755,l),
(677,722,l),
(709,678,o),
(728,620,o),
(725,580,c)
);
}
);
width = 837;
},
{
anchors = (
{
name = bottom;
pos = (429,0);
},
{
name = top;
pos = (429,800);
}
);
layerId = "2F0BCB80-3430-4FA1-A4A3-7C385E8DAA98";
shapes = (
{
closed = 1;
nodes = (
(627,-6,o),
(746,87,o),
(745,220,c),
(730,220,l),
(730,96,o),
(617,9,o),
(457,9,cs),
(311,9,o),
(208,170,o),
(208,400,cs),
(208,630,o),
(311,791,o),
(457,791,cs),
(617,791,o),
(730,704,o),
(730,580,c),
(745,580,l),
(746,713,o),
(627,806,o),
(457,806,cs),
(247,806,o),
(100,638,o),
(100,400,cs),
(100,162,o),
(247,-6,o),
(457,-6,cs)
);
},
{
closed = 1;
nodes = (
(748,30,l),
(745,220,l),
(730,220,l),
(734,180,o),
(712,119,o),
(677,71,c),
(733,30,l)
);
},
{
closed = 1;
nodes = (
(745,580,l),
(748,770,l),
(733,770,l),
(677,729,l),
(712,681,o),
(734,620,o),
(730,580,c)
);
}
);
width = 848;
},
{
anchors = (
{
name = bottom;
pos = (450,0);
},
{
name = top;
pos = (450,800);
}
);
hints = (
{
horizontal = 1;
place = (789,17);
type = Stem;
},
{
horizontal = 1;
place = (-6,18);
type = Stem;
},
{
place = (658,19.5);
type = Stem;
},
{
place = (658,17);
type = Stem;
},
{
place = (40,148);
type = Stem;
}
);
layerId = m01;
shapes = (
{
closed = 1;
nodes = (
(647,-6,o),
(770,79,o),
(765,220,c),
(748,220,l),
(754,88,o),
(642,2,o),
(477,12,cs),
(350,19,o),
(261,179,o),
(261,400,cs),
(261,626,o),
(350,786,o),
(477,789,cs),
(642,792,o),
(754,706,o),
(748,580,c),
(765,580,l),
(766,713,o),
(647,806,o),
(477,806,cs),
(256,806,o),
(100,638,o),
(100,400,cs),
(100,162,o),
(256,-6,o),
(477,-6,cs)
);
},
{
closed = 1;
nodes = (
(770,0,l),
(765,220,l),
(748,219,l),
(755,149,o),
(736,115,o),
(681,55,c),
(754,0,l)
);
},
{
closed = 1;
nodes = (
(765,580,l),
(770,800,l),
(752,800,l),
(679,745,l),
(731,688,o),
(755,650,o),
(748,580,c)
);
}
);
width = 870;
}
);
unicode = 67;
},
{
color = 4;
glyphname = D;
lastChange = "2026-06-18 23:47:08 +0000";
layers = (
{
anchors = (
{
name = bottom;
pos = (432,0);
},
{
name = center;
pos = (241,400);
},
{
name = top;
pos = (432,800);
}
);
layerId = "E5DC9139-DBE8-45F6-BCD0-0641ED917C2C";
shapes = (
{
closed = 1;
nodes = (
(416,0,ls),
(639,0,o),
(774,173,o),
(774,396,cs),
(774,619,o),
(639,800,o),
(416,800,cs),
(100,800,l),
(100,790,l),
(406,790,ls),
(610,790,o),
(706,579,o),
(706,396,cs),
(706,212,o),
(610,10,o),
(406,10,cs),
(100,10,l),
(100,0,l)
);
},
{
closed = 1;
nodes = (
(248,8,l),
(248,794,l),
(180,794,l),
(180,8,l)
);
}
);
width = 874;
},
{
anchors = (
{
name = bottom;
pos = (432,0);
},
{
name = center;
pos = (241,400);
},
{
name = top;
pos = (432,800);
}
);
layerId = "2F0BCB80-3430-4FA1-A4A3-7C385E8DAA98";
shapes = (
{
closed = 1;
nodes = (
(416,0,ls),
(626,0,o),
(773,163,o),
(773,396,cs),
(773,633,o),
(626,800,o),
(416,800,cs),
(100,800,l),
(100,785,l),
(416,785,ls),
(562,785,o),
(665,624,o),
(665,396,cs),
(665,172,o),
(558,15,o),
(406,15,cs),
(100,15,l),
(100,0,l)
);
},
{
closed = 1;
nodes = (
(288,8,l),
(288,794,l),
(180,794,l),
(180,8,l)
);
}
);
width = 873;
},
{
anchors = (
{
name = bottom;
pos = (431,0);
},
{
name = center;
pos = (241,400);
},
{
name = top;
pos = (431,800);
}
);
hints = (
{
horizontal = 1;
place = (783,17);
type = Stem;
},
{
horizontal = 1;
place = (783,11);
type = Stem;
},
{
horizontal = 1;
place = (8,10);
type = Stem;
},
{
horizontal = 1;
place = (0,18);
type = Stem;
},
{
place = (575,147);
type = Stem;
},
{
place = (125,148);
type = Stem;
}
);
layerId = m01;
shapes = (
{
closed = 1;
nodes = (
(417,0,ls),
(625,0,o),
(772,163,o),
(772,396,cs),
(772,633,o),
(625,800,o),
(417,800,cs),
(100,800,l),
(100,783,l),
(432,783,ls),
(545,783,o),
(625,623,o),
(625,396,cs),
(625,174,o),
(531,18,o),
(397,18,cs),
(100,18,l),
(100,0,l)
);
},
{
closed = 1;
nodes = (
(323,8,l),
(323,794,l),
(175,794,l),
(175,8,l)
);
}
);
width = 872;
}
);
unicode = 68;
},
{
color = 4;
glyphname = E;
lastChange = "2026-06-23 22:33:27 +0000";
layers = (
{
anchors = (
{
name = bottom;
pos = (363,0);
},
{
name = ogonek;
pos = (653,10);
},
{
name = top;
pos = (363,800);
},
{
name = topleft;
pos = (20,800);
}
);
hints = (
{
name = _corner.leftserif;
origin = (0,3);
type = Corner;
},
{
name = _corner.leftserif;
options = 1;
origin = (0,2);
scale = (-1,1);
type = Corner;
}
);
layerId = "E5DC9139-DBE8-45F6-BCD0-0641ED917C2C";
shapes = (
{
closed = 1;
nodes = (
(258,0,l),
(258,800,l),
(190,800,l),
(190,0,l)
);
},
{
closed = 1;
nodes = (
(626,0,l),
(626,10,l),
(215,10,l),
(215,0,l)
);
},
{
closed = 1;
nodes = (
(626,10,l),
(626,161,l),
(611,84,o),
(579,10,o),
(513,10,c)
);
},
{
closed = 1;
nodes = (
(444,320,l),
(444,480,l),
(437,480,l),
(425,447,o),
(397,405,o),
(359,405,cs),
(224,405,l),
(224,395,l),
(359,395,ls),
(397,395,o),
(425,353,o),
(437,320,c)
);
},
{
closed = 1;
nodes = (
(626,790,l),
(626,800,l),
(216,800,l),
(216,790,l)
);
},
{
closed = 1;
nodes = (
(626,790,l),
(513,790,l),
(579,790,o),
(611,716,o),
(626,639,c)
);
}
);
width = 726;
},
{
anchors = (
{
name = bottom;
pos = (363,0);
},
{
name = ogonek;
pos = (653,10);
},
{
name = top;
pos = (363,800);
},
{
name = topleft;
pos = (20,800);
}
);
hints = (
{
name = _corner.leftserif;
origin = (0,3);
type = Corner;
},
{
name = _corner.leftserif;
options = 1;
origin = (0,2);
scale = (-1,1);
type = Corner;
}
);
layerId = "2F0BCB80-3430-4FA1-A4A3-7C385E8DAA98";
shapes = (
{
closed = 1;
nodes = (
(298,0,l),
(298,800,l),
(190,800,l),
(190,0,l)
);
},
{
closed = 1;
nodes = (
(626,0,l),
(626,15,l),
(230,15,l),
(230,0,l)
);
},
{
closed = 1;
nodes = (
(626,15,l),
(626,193,l),
(607,102,o),
(570,15,o),
(481,15,c)
);
},
{
closed = 1;
nodes = (
(464,304,l),
(464,500,l),
(456,500,l),
(441,460,o),
(408,410,o),
(361,410,cs),
(244,410,l),
(244,395,l),
(361,395,ls),
(408,395,o),
(441,344,o),
(456,304,c)
);
},
{
closed = 1;
nodes = (
(626,785,l),
(626,800,l),
(218,800,l),
(218,785,l)
);
},
{
closed = 1;
nodes = (
(626,785,l),
(481,785,l),
(570,785,o),
(607,698,o),
(626,607,c)
);
}
);
width = 726;
},
{
anchors = (
{
name = bottom;
pos = (362,0);
},
{
name = ogonek;
pos = (652,10);
},
{
name = top;
pos = (362,800);
},
{
name = topleft;
pos = (20,800);
}
);
hints = (
{
horizontal = 1;
place = (783,17);
type = Stem;
},
{
horizontal = 1;
place = (413,105);
type = Stem;
},
{
horizontal = 1;
place = (395,18);
type = Stem;
},
{
horizontal = 1;
place = (288,107);
type = Stem;
},
{
horizontal = 1;
place = (0,18);
type = Stem;
},
{
place = (401,9);
type = Stem;
},
{
place = (190,64);
type = Stem;
},
{
place = (106,148);
type = Stem;
},
{
name = _corner.leftserif;
options = 1;
origin = (0,2);
scale = (-1,1);
type = Corner;
},
{
name = _corner.leftserif;
origin = (0,3);
type = Corner;
}
);
layerId = m01;
shapes = (
{
closed = 1;
nodes = (
(336,0,l),
(336,800,l),
(188,800,l),
(188,0,l)
);
},
{
closed = 1;
nodes = (
(624,0,l),
(624,18,l),
(232,18,l),
(232,0,l)
);
},
{
closed = 1;
nodes = (
(624,18,l),
(624,221,l),
(601,117,o),
(560,18,o),
(453,18,c)
);
},
{
closed = 1;
nodes = (
(492,288,l),
(492,518,l),
(483,518,l),
(465,470,o),
(427,413,o),
(370,413,cs),
(272,413,l),
(272,395,l),
(370,395,ls),
(427,395,o),
(465,336,o),
(483,288,c)
);
},
{
closed = 1;
nodes = (
(624,783,l),
(624,800,l),
(267,800,l),
(267,783,l)
);
},
{
closed = 1;
nodes = (
(624,783,l),
(453,783,l),
(560,783,o),
(601,683,o),
(624,579,c)
);
}
);
width = 724;
}
);
metricLeft = "=100";
metricRight = "=100";
unicode = 69;
},
{
color = 4;
glyphname = F;
lastChange = "2026-06-23 22:34:36 +0000";
layers = (
{
anchors = (
{
name = bottom;
pos = (363,0);
},
{
name = top;
pos = (363,800);
}
);
hints = (
{
name = _corner.leftserif;
options = 1;
origin = (0,0);
scale = (-1,1);
type = Corner;
},
{
name = _corner.leftserif;
origin = (0,3);
type = Corner;
}
);
layerId = "E5DC9139-DBE8-45F6-BCD0-0641ED917C2C";
shapes = (
{
closed = 1;
nodes = (
(258,0,l),
(258,800,l),
(190,800,l),
(190,0,l)
);
},
{
closed = 1;
nodes = (
(444,320,l),
(444,480,l),
(437,480,l),
(425,447,o),
(397,405,o),
(359,405,cs),
(224,405,l),
(224,395,l),
(359,395,ls),
(397,395,o),
(425,353,o),
(437,320,c)
);
},
{
closed = 1;
nodes = (
(626,790,l),
(626,800,l),
(124,800,l),
(124,790,l)
);
},
{
closed = 1;
nodes = (
(626,790,l),
(513,790,l),
(579,790,o),
(611,716,o),
(626,639,c)
);
}
);
width = 726;
},
{
anchors = (
{
name = bottom;
pos = (363,0);
},
{
name = top;
pos = (363,800);
}
);
hints = (
{
name = _corner.leftserif;
options = 1;
origin = (0,0);
scale = (-1,1);
type = Corner;
},
{
name = _corner.leftserif;
origin = (0,3);
type = Corner;
}
);
layerId = "2F0BCB80-3430-4FA1-A4A3-7C385E8DAA98";
shapes = (
{
closed = 1;
nodes = (
(298,0,l),
(298,800,l),
(190,800,l),
(190,0,l)
);
},
{
closed = 1;
nodes = (
(464,304,l),
(464,500,l),
(456,500,l),
(441,460,o),
(408,410,o),
(361,410,cs),
(244,410,l),
(244,395,l),
(361,395,ls),
(408,395,o),
(441,344,o),
(456,304,c)
);
},
{
closed = 1;
nodes = (
(626,785,l),
(626,800,l),
(124,800,l),
(124,785,l)
);
},
{
closed = 1;
nodes = (
(626,785,l),
(481,785,l),
(570,785,o),
(607,698,o),
(626,607,c)
);
}
);
width = 726;
},
{
anchors = (
{
name = bottom;
pos = (362,0);
},
{
name = top;
pos = (362,800);
}
);
hints = (
{
horizontal = 1;
place = (783,17);
type = Stem;
},
{
horizontal = 1;
place = (413,105);
type = Stem;
},
{
horizontal = 1;
place = (395,18);
type = Stem;
},
{
horizontal = 1;
place = (288,107);
type = Stem;
},
{
horizontal = 1;
place = (0,18);
type = Stem;
},
{
place = (401,9);
type = Stem;
},
{
place = (190,64);
type = Stem;
},
{
place = (106,148);
type = Stem;
},
{
name = _corner.leftserif;
options = 1;
origin = (0,0);
scale = (-1,1);
type = Corner;
},
{
name = _corner.leftserif;
origin = (0,3);
type = Corner;
}
);
layerId = m01;
shapes = (
{
closed = 1;
nodes = (
(336,0,l),
(336,800,l),
(188,800,l),
(188,0,l)
);
},
{
closed = 1;
nodes = (
(492,288,l),
(492,518,l),
(483,518,l),
(465,470,o),
(427,413,o),
(370,413,cs),
(272,413,l),
(272,395,l),
(370,395,ls),
(427,395,o),
(465,336,o),
(483,288,c)
);
},
{
closed = 1;
nodes = (
(624,783,l),
(624,800,l),
(122,800,l),
(122,783,l)
);
},
{
closed = 1;
nodes = (
(624,783,l),
(453,783,l),
(560,783,o),
(601,683,o),
(624,579,c)
);
}
);
width = 724;
}
);
metricLeft = "=100";
metricRight = "=100";
unicode = 70;
},
{
color = 4;
glyphname = G;
lastChange = "2026-06-18 23:58:06 +0000";
layers = (
{
anchors = (
{
name = bottom;
pos = (440,0);
},
{
name = top;
pos = (440,800);
}
);
layerId = "E5DC9139-DBE8-45F6-BCD0-0641ED917C2C";
shapes = (
{
closed = 1;
nodes = (
(612,-6,o),
(732,78,o),
(735,215,cs),
(735,310,l),
(780,310,l),
(780,320,l),
(593,320,l),
(593,310,l),
(668,310,l),
(668,178,ls),
(666,85,o),
(609,4,o),
(447,4,cs),
(249,4,o),
(168,229,o),
(168,400,cs),
(168,571,o),
(239,796,o),
(447,796,cs),
(609,796,o),
(725,710,o),
(725,580,c),
(735,580,l),
(737,755,l),
(727,755,l),
(678,722,l),
(626,775,o),
(544,806,o),
(447,806,cs),
(225,806,o),
(100,626,o),
(100,400,cs),
(100,174,o),
(225,-6,o),
(447,-6,cs)
);
}
);
width = 880;
},
{
anchors = (
{
name = bottom;
pos = (445,0);
},
{
name = top;
pos = (445,800);
}
);
layerId = "2F0BCB80-3430-4FA1-A4A3-7C385E8DAA98";
shapes = (
{
closed = 1;
nodes = (
(623,-6,o),
(742,72,o),
(745,215,cs),
(745,305,l),
(790,305,l),
(790,320,l),
(548,320,l),
(548,305,l),
(623,305,l),
(623,178,ls),
(623,73,o),
(583,9,o),
(447,9,cs),
(259,9,o),
(208,229,o),
(208,400,cs),
(208,571,o),
(259,791,o),
(447,791,cs),
(609,791,o),
(720,710,o),
(720,580,c),
(735,580,l),
(738,770,l),
(723,770,l),
(669,731,l),
(617,778,o),
(539,806,o),
(447,806,cs),
(225,806,o),
(100,626,o),
(100,400,cs),
(100,174,o),
(225,-6,o),
(447,-6,cs)
);
}
);
width = 890;
},
{
anchors = (
{
name = bottom;
pos = (452,0);
},
{
name = top;
pos = (452,800);
}
);
hints = (
{
horizontal = 1;
place = (789,17);
type = Stem;
},
{
horizontal = 1;
place = (303,17);
type = Stem;
},
{
horizontal = 1;
place = (-6,18);
type = Stem;
},
{
place = (658,19.5);
type = Stem;
},
{
place = (514,184);
type = Stem;
},
{
place = (40,148);
type = Stem;
}
);
layerId = m01;
shapes = (
{
closed = 1;
nodes = (
(607,-6,o),
(752,56,o),
(758,215,cs),
(758,303,l),
(803,303,l),
(803,320,l),
(499,320,l),
(499,303,l),
(574,303,l),
(574,178,ls),
(578,53,o),
(519,12,o),
(447,12,cs),
(280,12,o),
(248,229,o),
(248,400,cs),
(248,571,o),
(269,789,o),
(447,789,cs),
(609,789,o),
(718,710,o),
(718,580,c),
(735,580,l),
(740,793,l),
(722,793,l),
(657,745,l),
(604,783,o),
(532,806,o),
(447,806,cs),
(225,806,o),
(100,626,o),
(100,400,cs),
(100,174,o),
(241,-6,o),
(447,-6,cs)
);
}
);
width = 903;
}
);
unicode = 71;
},
{
color = 4;
glyphname = H;
lastChange = "2026-06-23 22:37:37 +0000";
layers = (
{
anchors = (
{
name = bottom;
pos = (469,0);
},
{
name = center;
pos = (469,640);
},
{
name = top;
pos = (469,800);
},
{
name = topleft;
pos = (20,800);
}
);
hints = (
{
name = _corner.leftserif;
options = 1;
origin = (0,0);
scale = (-1,1);
type = Corner;
},
{
name = _corner.leftserif;
origin = (0,3);
type = Corner;
},
{
name = _corner.leftserif;
options = 1;
origin = (1,0);
scale = (-1,1);
type = Corner;
},
{
name = _corner.leftserif;
origin = (1,3);
type = Corner;
},
{
name = _corner.leftserif;
origin = (0,1);
type = Corner;
},
{
name = _corner.leftserif;
options = 1;
origin = (0,2);
scale = (-1,1);
type = Corner;
},
{
name = _corner.leftserif;
origin = (1,1);
type = Corner;
},
{
name = _corner.leftserif;
options = 1;
origin = (1,2);
scale = (-1,1);
type = Corner;
}
);
layerId = "E5DC9139-DBE8-45F6-BCD0-0641ED917C2C";
shapes = (
{
closed = 1;
nodes = (
(748,0,l),
(748,800,l),
(680,800,l),
(680,0,l)
);
},
{
closed = 1;
nodes = (
(258,0,l),
(258,800,l),
(190,800,l),
(190,0,l)
);
},
{
closed = 1;
nodes = (
(680,392,l),
(680,402,l),
(258,402,l),
(258,392,l)
);
}
);
width = 938;
},
{
anchors = (
{
name = bottom;
pos = (480,0);
},
{
name = center;
pos = (480,640);
},
{
name = top;
pos = (480,800);
},
{
name = topleft;
pos = (22,800);
}
);
hints = (
{
name = _corner.leftserif;
origin = (0,1);
type = Corner;
},
{
name = _corner.leftserif;
options = 1;
origin = (0,2);
scale = (-1,1);
type = Corner;
},
{
name = _corner.leftserif;
origin = (1,1);
type = Corner;
},
{
name = _corner.leftserif;
options = 1;
origin = (1,2);
scale = (-1,1);
type = Corner;
},
{
name = _corner.leftserif;
options = 1;
origin = (0,0);
scale = (-1,1);
type = Corner;
},
{
name = _corner.leftserif;
origin = (0,3);
type = Corner;
},
{
name = _corner.leftserif;
options = 1;
origin = (1,0);
scale = (-1,1);
type = Corner;
},
{
name = _corner.leftserif;
origin = (1,3);
type = Corner;
}
);
layerId = "2F0BCB80-3430-4FA1-A4A3-7C385E8DAA98";
shapes = (
{
closed = 1;
nodes = (
(768,0,l),
(768,800,l),
(660,800,l),
(660,0,l)
);
},
{
closed = 1;
nodes = (
(298,0,l),
(298,800,l),
(190,800,l),
(190,0,l)
);
},
{
closed = 1;
nodes = (
(670,387,l),
(670,402,l),
(288,402,l),
(288,387,l)
);
}
);
width = 958;
},
{
anchors = (
{
name = bottom;
pos = (483,0);
},
{
name = center;
pos = (483,640);
},
{
name = top;
pos = (483,800);
},
{
name = topleft;
pos = (20,800);
}
);
hints = (
{
horizontal = 1;
place = (785,15);
type = Stem;
},
{
horizontal = 1;
place = (388,17);
type = Stem;
},
{
horizontal = 1;
place = (0,15);
type = Stem;
},
{
place = (538,148);
type = Stem;
},
{
place = (538,25);
type = Stem;
},
{
place = (261,25);
type = Stem;
},
{
place = (138,148);
type = Stem;
},
{
name = _corner.leftserif;
options = 1;
origin = (1,0);
scale = (-1,1);
type = Corner;
},
{
name = _corner.leftserif;
origin = (1,3);
type = Corner;
},
{
name = _corner.leftserif;
options = 1;
origin = (0,0);
scale = (-1,1);
type = Corner;
},
{
name = _corner.leftserif;
origin = (0,3);
type = Corner;
},
{
name = _corner.leftserif;
origin = (1,1);
type = Corner;
},
{
name = _corner.leftserif;
options = 2;
origin = (1,2);
scale = (-1,1);
type = Corner;
},
{
name = _corner.leftserif;
origin = (0,1);
type = Corner;
},
{
name = _corner.leftserif;
options = 2;
origin = (0,2);
scale = (-1,1);
type = Corner;
}
);
layerId = m01;
shapes = (
{
closed = 1;
nodes = (
(776,0,l),
(776,800,l),
(628,800,l),
(628,0,l)
);
},
{
closed = 1;
nodes = (
(336,0,l),
(336,800,l),
(188,800,l),
(188,0,l)
);
},
{
closed = 1;
nodes = (
(653,388,l),
(653,405,l),
(311,405,l),
(311,388,l)
);
}
);
width = 964;
}
);
metricLeft = "=100";
metricRight = "=100";
unicode = 72;
},
{
color = 4;
glyphname = I;
lastChange = "2026-06-23 22:39:27 +0000";
layers = (
{
anchors = (
{
name = bottom;
pos = (224,0);
},
{
name = ogonek;
pos = (385,10);
},
{
name = top;
pos = (224,800);
},
{
name = topleft;
pos = (20,800);
}
);
hints = (
{
name = _corner.leftserif;
origin = (0,1);
type = Corner;
},
{
name = _corner.leftserif;
options = 1;
origin = (0,2);
scale = (-1,1);
type = Corner;
},
{
name = _corner.leftserif;
options = 1;
origin = (0,0);
scale = (-1,1);
type = Corner;
},
{
name = _corner.leftserif;
origin = (0,3);
type = Corner;
}
);
layerId = "E5DC9139-DBE8-45F6-BCD0-0641ED917C2C";
shapes = (
{
closed = 1;
nodes = (
(258,0,l),
(258,800,l),
(190,800,l),
(190,0,l)
);
}
);
width = 448;
},
{
anchors = (
{
name = bottom;
pos = (244,0);
},
{
name = ogonek;
pos = (412,10);
},
{
name = top;
pos = (244,800);
},
{
name = topleft;
pos = (20,800);
}
);
hints = (
{
name = _corner.leftserif;
origin = (0,1);
type = Corner;
},
{
name = _corner.leftserif;
options = 1;
origin = (0,2);
scale = (-1,1);
type = Corner;
},
{
name = _corner.leftserif;
options = 1;
origin = (0,0);
scale = (-1,1);
type = Corner;
},
{
name = _corner.leftserif;
origin = (0,3);
type = Corner;
}
);
layerId = "2F0BCB80-3430-4FA1-A4A3-7C385E8DAA98";
shapes = (
{
closed = 1;
nodes = (
(298,0,l),
(298,800,l),
(190,800,l),
(190,0,l)
);
}
);
width = 488;
},
{
anchors = (
{
name = bottom;
pos = (264,0);
},
{
name = ogonek;
pos = (422,10);
},
{
name = top;
pos = (264,800);
},
{
name = topleft;
pos = (86,800);
}
);
hints = (
{
horizontal = 1;
place = (783,17);
type = Stem;
},
{
horizontal = 1;
place = (0,18);
type = Stem;
},
{
place = (122,148);
type = Stem;
},
{
name = _corner.leftserif;
origin = (0,1);
type = Corner;
},
{
name = _corner.leftserif;
options = 2;
origin = (0,2);
scale = (-1,1);
type = Corner;
},
{
name = _corner.leftserif;
options = 1;
origin = (0,0);
scale = (-1,1);
type = Corner;
},
{
name = _corner.leftserif;
origin = (0,3);
type = Corner;
}
);
layerId = m01;
shapes = (
{
closed = 1;
nodes = (
(336,0,l),
(336,800,l),
(188,800,l),
(188,0,l)
);
}
);
width = 524;
}
);
metricLeft = "=100";
metricRight = "=100";
unicode = 73;
},
{
color = 4;
glyphname = J;
lastChange = "2026-06-23 22:40:35 +0000";
layers = (
{
anchors = (
{
name = bottom;
pos = (273,0);
},
{
name = top;
pos = (273,800);
}
);
hints = (
{
name = _corner.leftserif;
origin = (0,3);
type = Corner;
},
{
name = _corner.leftserif;
options = 1;
origin = (0,4);
scale = (-1,1);
type = Corner;
}
);
layerId = "E5DC9139-DBE8-45F6-BCD0-0641ED917C2C";
shapes = (
{
closed = 1;
nodes = (
(362,-5,o),
(350,95,o),
(350,269,cs),
(350,800,l),
(282,800,l),
(282,215,ls),
(282,155,o),
(294,7,o),
(205,7,cs),
(140,7,o),
(116,50,o),
(113,55,cs),
(100,74,l),
(100,14,o),
(166,-5,o),
(205,-5,cs)
);
},
{
closed = 1;
nodes = (
(173,27,o),
(195,49,o),
(195,75,cs),
(195,101,o),
(173,122,o),
(147,122,cs),
(121,122,o),
(100,101,o),
(100,75,cs),
(100,49,o),
(121,27,o),
(147,27,cs)
);
}
);
width = 540;
},
{
anchors = (
{
name = bottom;
pos = (303,0);
},
{
name = top;
pos = (303,800);
}
);
hints = (
{
name = _corner.leftserif;
origin = (0,3);
type = Corner;
},
{
name = _corner.leftserif;
options = 1;
origin = (0,4);
scale = (-1,1);
type = Corner;
}
);
layerId = "2F0BCB80-3430-4FA1-A4A3-7C385E8DAA98";
shapes = (
{
closed = 1;
nodes = (
(379,-5,o),
(390,95,o),
(390,269,cs),
(390,800,l),
(282,800,l),
(282,215,ls),
(282,155,o),
(290,14,o),
(204,14,cs),
(142,14,o),
(116,49,o),
(116,84,c),
(100,84,l),
(100,24,o),
(152,-5,o),
(225,-5,cs)
);
},
{
closed = 1;
nodes = (
(191,25,o),
(217,52,o),
(217,84,cs),
(217,116,o),
(191,142,o),
(159,142,cs),
(127,142,o),
(100,116,o),
(100,84,cs),
(100,52,o),
(127,25,o),
(159,25,cs)
);
}
);
width = 580;
},
{
anchors = (
{
name = bottom;
pos = (314,0);
},
{
name = top;
pos = (365,800);
}
);
hints = (
{
horizontal = 1;
place = (783,17);
type = Stem;
},
{
horizontal = 1;
place = (21,139);
type = Stem;
},
{
horizontal = 1;
place = (-5,25);
type = Stem;
},
{
place = (172,148);
type = Stem;
},
{
place = (-20,19);
type = Stem;
},
{
name = _corner.leftserif;
origin = (0,3);
type = Corner;
},
{
name = _corner.leftserif;
options = 2;
origin = (0,4);
scale = (-1,1);
type = Corner;
}
);
layerId = m01;
shapes = (
{
closed = 1;
nodes = (
(405,-5,o),
(440,95,o),
(440,269,cs),
(440,800,l),
(292,800,l),
(292,215,ls),
(292,155,o),
(294,20,o),
(203,20,cs),
(135,20,o),
(122,67,o),
(119,109,c),
(100,99,l),
(100,39,o),
(131,-5,o),
(255,-5,cs)
);
},
{
closed = 1;
nodes = (
(209,21,o),
(239,54,o),
(239,92,cs),
(239,130,o),
(209,160,o),
(171,160,cs),
(133,160,o),
(100,130,o),
(100,92,cs),
(100,54,o),
(133,21,o),
(171,21,cs)
);
}
);
width = 628;
}
);
metricLeft = "=100";
metricRight = "=100";
unicode = 74;
},
{
color = 4;
glyphname = K;
lastChange = "2026-06-24 03:38:00 +0000";
layers = (
{
anchors = (
{
name = bottom;
pos = (423,0);
},
{
name = top;
pos = (423,800);
}
);
hints = (
{
name = _corner.leftserif;
origin = (0,9);
type = Corner;
},
{
name = _corner.leftserif;
options = 1;
origin = (0,10);
scale = (-1,1);
type = Corner;
},
{
name = _corner.leftserif;
origin = (0,3);
type = Corner;
},
{
name = _corner.leftserif;
options = 1;
origin = (0,4);
scale = (-1,1);
type = Corner;
},
{
name = _corner.leftserif;
options = 1;
origin = (0,0);
scale = (-1,1);
type = Corner;
},
{
name = _corner.leftserif;
origin = (0,11);
type = Corner;
},
{
name = _corner.leftserif;
options = 1;
origin = (0,7);
scale = (-1,1);
type = Corner;
},
{
name = _corner.leftserif;
origin = (0,6);
type = Corner;
}
);
layerId = "E5DC9139-DBE8-45F6-BCD0-0641ED917C2C";
shapes = (
{
closed = 1;
nodes = (
(258,0,l),
(258,295,l),
(348,416,l),
(582,0,l),
(661,0,l),
(392,475,l),
(634,800,l),
(622,800,l),
(258,312,l),
(258,800,l),
(190,800,l),
(190,0,l)
);
}
);
width = 845;
},
{
anchors = (
{
name = bottom;
pos = (454,0);
},
{
name = top;
pos = (454,800);
}
);
hints = (
{
name = _corner.leftserif;
origin = (0,9);
type = Corner;
},
{
name = _corner.leftserif;
options = 1;
origin = (0,10);
scale = (-1,1);
type = Corner;
},
{
name = _corner.leftserif;
origin = (0,3);
type = Corner;
},
{
name = _corner.leftserif;
options = 1;
origin = (0,4);
scale = (-1,1);
type = Corner;
},
{
name = _corner.leftserif;
options = 1;
origin = (0,0);
scale = (-1,1);
type = Corner;
},
{
name = _corner.leftserif;
origin = (0,11);
type = Corner;
},
{
name = _corner.leftserif;
options = 1;
origin = (0,7);
scale = (-1,1);
type = Corner;
},
{
name = _corner.leftserif;
origin = (0,6);
type = Corner;
}
);
layerId = "2F0BCB80-3430-4FA1-A4A3-7C385E8DAA98";
shapes = (
{
closed = 1;
nodes = (
(298,0,l),
(298,336,l),
(354,408,l),
(602,0,l),
(727,0,l),
(426,500,l),
(657,800,l),
(638,800,l),
(298,361,l),
(298,800,l),
(190,800,l),
(190,0,l)
);
}
);
width = 908;
},
{
anchors = (
{
name = bottom;
pos = (486,0);
},
{
name = top;
pos = (486,800);
}
);
hints = (
{
horizontal = 1;
place = (783,17);
type = Stem;
},
{
horizontal = 1;
place = (0,18);
type = Stem;
},
{
place = (105,148);
type = Stem;
},
{
name = _corner.leftserif;
origin = (0,9);
type = Corner;
},
{
name = _corner.leftserif;
options = 2;
origin = (0,10);
scale = (-1,1);
type = Corner;
},
{
name = _corner.leftserif;
options = 1;
origin = (0,0);
scale = (-1,1);
type = Corner;
},
{
name = _corner.leftserif;
origin = (0,11);
type = Corner;
},
{
name = _corner.leftserif;
origin = (0,3);
type = Corner;
},
{
name = _corner.leftserif;
options = 1;
origin = (0,4);
scale = (-1,1);
type = Corner;
},
{
name = _corner.leftserif;
origin = (0,6);
type = Corner;
},
{
name = _corner.leftserif;
options = 1;
origin = (0,7);
scale = (-1,1);
type = Corner;
}
);
layerId = m01;
shapes = (
{
closed = 1;
nodes = (
(336,0,l),
(336,383,l),
(355,406,l),
(618,0,l),
(793,0,l),
(457,527,l),
(677,800,l),
(655,800,l),
(336,410,l),
(336,800,l),
(188,800,l),
(188,0,l)
);
}
);
width = 968;
}
);
metricLeft = "=100";
metricRight = "=100";
unicode = 75;
},
{
color = 4;
glyphname = L;
lastChange = "2026-06-23 22:59:50 +0000";
layers = (
{
anchors = (
{
name = bottom;
pos = (324,0);
},
{
name = center;
pos = (324,400);
},
{
name = top;
pos = (324,800);
},
{
name = topright;
pos = (577,800);
}
);
hints = (
{
name = _corner.leftserif;
origin = (0,1);
type = Corner;
},
{
name = _corner.leftserif;
options = 1;
origin = (0,2);
scale = (-1,1);
type = Corner;
},
{
name = _corner.leftserif;
origin = (0,3);
type = Corner;
}
);
layerId = "E5DC9139-DBE8-45F6-BCD0-0641ED917C2C";
shapes = (
{
closed = 1;
nodes = (
(256,0,l),
(256,800,l),
(188,800,l),
(188,0,l)
);
},
{
closed = 1;
nodes = (
(557,0,l),
(557,15,l),
(223,15,l),
(223,0,l)
);
},
{
closed = 1;
nodes = (
(557,15,l),
(557,166,l),
(542,89,o),
(510,15,o),
(434,15,c)
);
}
);
width = 657;
},
{
anchors = (
{
name = bottom;
pos = (336,0);
},
{
name = center;
pos = (336,400);
},
{
name = top;
pos = (336,800);
},
{
name = topright;
pos = (601,800);
}
);
guides = (
{
pos = (497,130);
showMeasurement = 1;
}
);
hints = (
{
name = _corner.leftserif;
origin = (0,1);
type = Corner;
},
{
name = _corner.leftserif;
options = 1;
origin = (0,2);
scale = (-1,1);
type = Corner;
},
{
name = _corner.leftserif;
origin = (0,3);
type = Corner;
}
);
layerId = "2F0BCB80-3430-4FA1-A4A3-7C385E8DAA98";
shapes = (
{
closed = 1;
nodes = (
(296,0,l),
(296,800,l),
(188,800,l),
(188,0,l)
);
},
{
closed = 1;
nodes = (
(581,0,l),
(581,15,l),
(231,15,l),
(231,0,l)
);
},
{
closed = 1;
nodes = (
(581,15,l),
(581,187,l),
(563,99,o),
(527,15,o),
(441,15,c)
);
}
);
width = 681;
},
{
anchors = (
{
name = bottom;
pos = (347,0);
},
{
name = center;
pos = (347,400);
},
{
name = top;
pos = (347,800);
},
{
name = topright;
pos = (623,800);
}
);
hints = (
{
horizontal = 1;
place = (785,15);
type = Stem;
},
{
horizontal = 1;
place = (0,15);
type = Stem;
},
{
place = (138,148);
type = Stem;
},
{
name = _corner.leftserif;
origin = (0,1);
type = Corner;
},
{
name = _corner.leftserif;
options = 2;
origin = (0,2);
scale = (-1,1);
type = Corner;
},
{
name = _corner.leftserif;
origin = (0,3);
type = Corner;
}
);
layerId = m01;
shapes = (
{
closed = 1;
nodes = (
(336,0,l),
(336,800,l),
(188,800,l),
(188,0,l)
);
},
{
closed = 1;
nodes = (
(603,0,l),
(603,15,l),
(264,15,l),
(264,0,l)
);
},
{
closed = 1;
nodes = (
(603,15,l),
(603,204,l),
(582,106,o),
(544,15,o),
(450,15,c)
);
}
);
width = 703;
}
);
unicode = 76;
},
{
color = 4;
glyphname = M;
lastChange = "2026-06-23 23:02:33 +0000";
layers = (
{
anchors = (
{
name = bottom;
pos = (539,0);
},
{
name = top;
pos = (539,800);
}
);
hints = (
{
name = _corner.leftserif;
origin = (0,4);
type = Corner;
},
{
name = _corner.leftserif;
options = 1;
origin = (0,8);
scale = (-1,1);
type = Corner;
},
{
name = _corner.leftserif;
origin = (0,2);
type = Corner;
},
{
name = _corner.leftserif;
options = 1;
origin = (0,3);
scale = (-1,1);
type = Corner;
},
{
name = _corner.leftserif;
origin = (0,9);
type = Corner;
},
{
name = _corner.leftserif;
options = 1;
origin = (0,10);
scale = (-1,1);
type = Corner;
}
);
layerId = "E5DC9139-DBE8-45F6-BCD0-0641ED917C2C";
shapes = (
{
closed = 1;
nodes = (
(536,0,l),
(819,789,l),
(819,0,l),
(887,0,l),
(887,800,l),
(813,800,l),
(549,68,l),
(269,800,l),
(190,800,l),
(190,0,l),
(200,0,l),
(200,789,l),
(505,0,l)
);
}
);
width = 1077;
},
{
anchors = (
{
name = bottom;
pos = (575,0);
},
{
name = top;
pos = (575,800);
}
);
hints = (
{
name = _corner.leftserif;
origin = (0,2);
type = Corner;
},
{
name = _corner.leftserif;
options = 1;
origin = (0,3);
scale = (-1,1);
type = Corner;
},
{
name = _corner.leftserif;
origin = (0,9);
type = Corner;
},
{
name = _corner.leftserif;
options = 1;
origin = (0,10);
scale = (-1,1);
type = Corner;
},
{
name = _corner.leftserif;
origin = (0,4);
type = Corner;
},
{
name = _corner.leftserif;
options = 1;
origin = (0,8);
scale = (-1,1);
type = Corner;
}
);
layerId = "2F0BCB80-3430-4FA1-A4A3-7C385E8DAA98";
shapes = (
{
closed = 1;
nodes = (
(556,0,l),
(851,785,l),
(851,0,l),
(959,0,l),
(959,800,l),
(841,800,l),
(585,120,l),
(314,800,l),
(190,800,l),
(190,0,l),
(205,0,l),
(205,784,l),
(518,0,l)
);
}
);
width = 1149;
},
{
anchors = (
{
name = bottom;
pos = (611,0);
},
{
name = top;
pos = (611,800);
}
);
hints = (
{
horizontal = 1;
place = (784,16);
type = Stem;
},
{
horizontal = 1;
place = (783,17);
type = Stem;
},
{
horizontal = 1;
place = (779,21);
type = Stem;
},
{
horizontal = 1;
place = (2,16);
type = Stem;
},
{
horizontal = 1;
place = (0,18);
type = Stem;
},
{
place = (813,148);
type = Stem;
},
{
place = (115,137);
type = Stem;
},
{
place = (115,93);
type = Stem;
},
{
place = (115,18);
type = Stem;
},
{
place = (40,93);
type = Stem;
},
{
name = _corner.leftserif;
origin = (0,4);
type = Corner;
},
{
name = _corner.leftserif;
options = 1;
origin = (0,8);
scale = (-1,1);
type = Corner;
},
{
name = _corner.leftserif;
origin = (0,2);
type = Corner;
},
{
name = _corner.leftserif;
options = 2;
origin = (0,3);
scale = (-1,1);
type = Corner;
},
{
name = _corner.leftserif;
origin = (0,9);
type = Corner;
},
{
name = _corner.leftserif;
options = 2;
origin = (0,10);
scale = (-1,1);
type = Corner;
}
);
layerId = m01;
shapes = (
{
closed = 1;
nodes = (
(575,0,l),
(886,784,l),
(886,0,l),
(1034,0,l),
(1034,800,l),
(874,800,l),
(622,170,l),
(355,800,l),
(188,800,l),
(188,0,l),
(206,0,l),
(206,779,l),
(532,0,l)
);
}
);
width = 1222;
}
);
metricLeft = "=100";
metricRight = "=100";
unicode = 77;
},
{
color = 4;
glyphname = N;
lastChange = "2026-06-24 02:29:11 +0000";
layers = (
{
anchors = (
{
name = bottom;
pos = (449,0);
},
{
name = top;
pos = (449,800);
}
);
hints = (
{
name = _corner.leftserif;
origin = (0,9);
type = Corner;
},
{
name = _corner.leftserif;
options = 1;
origin = (0,0);
scale = (-1,1);
type = Corner;
},
{
name = _corner.leftserif;
options = 1;
origin = (0,8);
scale = (-1,1);
type = Corner;
},
{
name = _corner.leftserif;
options = 1;
origin = (0,5);
scale = (-1,1);
type = Corner;
},
{
name = _corner.leftserif;
origin = (0,4);
type = Corner;
}
);
layerId = "E5DC9139-DBE8-45F6-BCD0-0641ED917C2C";
shapes = (
{
closed = 1;
nodes = (
(200,0,l),
(200,790,l),
(690,0,l),
(707,0,l),
(707,800,l),
(697,800,l),
(697,114,l),
(274,800,l),
(190,800,l),
(190,0,l)
);
}
);
width = 897;
},
{
anchors = (
{
name = bottom;
pos = (467,0);
},
{
name = top;
pos = (467,800);
}
);
hints = (
{
name = _corner.leftserif;
origin = (0,9);
type = Corner;
},
{
name = _corner.leftserif;
options = 1;
origin = (0,0);
scale = (-1,1);
type = Corner;
},
{
name = _corner.leftserif;
options = 1;
origin = (0,8);
scale = (-1,1);
type = Corner;
},
{
name = _corner.leftserif;
options = 1;
origin = (0,5);
scale = (-1,1);
type = Corner;
},
{
name = _corner.leftserif;
origin = (0,4);
type = Corner;
}
);
layerId = "2F0BCB80-3430-4FA1-A4A3-7C385E8DAA98";
shapes = (
{
closed = 1;
nodes = (
(205,0,l),
(205,785,l),
(716,0,l),
(743,0,l),
(743,800,l),
(728,800,l),
(728,172,l),
(324,800,l),
(190,800,l),
(190,0,l)
);
}
);
width = 933;
},
{
anchors = (
{
name = bottom;
pos = (480,0);
},
{
name = top;
pos = (480,800);
}
);
hints = (
{
horizontal = 1;
place = (784,16);
type = Stem;
},
{
horizontal = 1;
place = (783,17);
type = Stem;
},
{
horizontal = 1;
place = (0,18);
type = Stem;
},
{
place = (686,17);
type = Stem;
},
{
place = (119,18);
type = Stem;
},
{
name = _corner.leftserif;
origin = (0,9);
type = Corner;
},
{
name = _corner.leftserif;
options = 1;
origin = (0,0);
scale = (-1,1);
type = Corner;
},
{
name = _corner.leftserif;
options = 1;
origin = (0,8);
scale = (-1,1);
type = Corner;
},
{
name = _corner.leftserif;
options = 1;
origin = (0,5);
scale = (-1,1);
type = Corner;
},
{
name = _corner.leftserif;
origin = (0,4);
type = Corner;
}
);
layerId = m01;
shapes = (
{
closed = 1;
nodes = (
(206,0,l),
(206,784,l),
(738,0,l),
(772,0,l),
(772,800,l),
(755,800,l),
(755,232,l),
(372,800,l),
(188,800,l),
(188,0,l)
);
}
);
width = 960;
}
);
metricLeft = "=100";
metricRight = "=100";
unicode = 78;
},
{
color = 4;
glyphname = O;
lastChange = "2026-06-18 23:44:12 +0000";
layers = (
{
anchors = (
{
name = bottom;
pos = (448,0);
},
{
name = center;
pos = (448,400);
},
{
name = ogonek;
pos = (758,10);
},
{
name = top;
pos = (448,800);
},
{
name = topleft;
pos = (80,800);
},
{
name = topright;
pos = (815,800);
}
);
layerId = "E5DC9139-DBE8-45F6-BCD0-0641ED917C2C";
shapes = (
{
closed = 1;
nodes = (
(651,-7,o),
(795,159,o),
(795,396,cs),
(795,636,o),
(651,805,o),
(447,805,cs),
(243,805,o),
(100,636,o),
(100,396,cs),
(100,159,o),
(243,-7,o),
(447,-7,cs)
);
},
{
closed = 1;
nodes = (
(283,3,o),
(168,165,o),
(168,396,cs),
(168,630,o),
(283,795,o),
(447,795,cs),
(611,795,o),
(727,630,o),
(727,396,cs),
(727,165,o),
(611,3,o),
(447,3,cs)
);
}
);
width = 895;
},
{
anchors = (
{
name = bottom;
pos = (448,0);
},
{
name = center;
pos = (448,400);
},
{
name = ogonek;
pos = (758,10);
},
{
name = top;
pos = (448,800);
},
{
name = topleft;
pos = (80,800);
},
{
name = topright;
pos = (815,800);
}
);
layerId = "2F0BCB80-3430-4FA1-A4A3-7C385E8DAA98";
shapes = (
{
closed = 1;
nodes = (
(652,-7,o),
(795,159,o),
(795,396,cs),
(795,636,o),
(652,805,o),
(448,805,cs),
(244,805,o),
(100,636,o),
(100,396,cs),
(100,159,o),
(244,-7,o),
(448,-7,cs)
);
},
{
closed = 1;
nodes = (
(307,8,o),
(208,168,o),
(208,396,cs),
(208,627,o),
(307,790,o),
(448,790,cs),
(588,790,o),
(687,627,o),
(687,396,cs),
(687,168,o),
(588,8,o),
(448,8,cs)
);
}
);
width = 895;
},
{
anchors = (
{
name = bottom;
pos = (447,0);
},
{
name = center;
pos = (447,400);
},
{
name = ogonek;
pos = (757,10);
},
{
name = top;
pos = (447,800);
},
{
name = topleft;
pos = (80,800);
},
{
name = topright;
pos = (814,800);
}
);
hints = (
{
horizontal = 1;
place = (788,17);
type = Stem;
},
{
horizontal = 1;
place = (-7,19);
type = Stem;
},
{
place = (587,147);
type = Stem;
},
{
place = (40,148);
type = Stem;
}
);
layerId = m01;
shapes = (
{
closed = 1;
nodes = (
(652,-7,o),
(794,159,o),
(794,396,cs),
(794,636,o),
(652,805,o),
(450,805,cs),
(244,805,o),
(100,636,o),
(100,396,cs),
(100,159,o),
(244,-7,o),
(450,-7,cs)
);
},
{
closed = 1;
nodes = (
(331,12,o),
(248,171,o),
(248,396,cs),
(248,626,o),
(331,788,o),
(450,788,cs),
(566,788,o),
(647,626,o),
(647,396,cs),
(647,171,o),
(566,12,o),
(450,12,cs)
);
}
);
width = 894;
}
);
unicode = 79;
},
{
color = 4;
glyphname = P;
lastChange = "2026-06-23 23:04:20 +0000";
layers = (
{
anchors = (
{
name = bottom;
pos = (375,0);
},
{
name = top;
pos = (375,800);
}
);
hints = (
{
name = _corner.leftserif;
options = 1;
origin = (1,0);
scale = (-1,1);
type = Corner;
},
{
name = _corner.leftserif;
origin = (1,3);
type = Corner;
},
{
name = _corner.leftserif;
options = 1;
origin = (1,2);
scale = (-1,1);
type = Corner;
}
);
layerId = "E5DC9139-DBE8-45F6-BCD0-0641ED917C2C";
shapes = (
{
closed = 1;
nodes = (
(363,375,ls),
(554,375,o),
(649,444,o),
(649,582,cs),
(649,728,o),
(554,800,o),
(363,800,cs),
(227,800,l),
(227,790,l),
(363,790,ls),
(497,790,o),
(564,721,o),
(564,582,cs),
(561,449,o),
(494,383,o),
(362,383,cs),
(236,383,l),
(236,375,l)
);
},
{
closed = 1;
nodes = (
(258,0,l),
(258,800,l),
(190,800,l),
(190,0,l)
);
}
);
width = 749;
},
{
anchors = (
{
name = bottom;
pos = (398,0);
},
{
name = top;
pos = (398,800);
}
);
hints = (
{
name = _corner.leftserif;
options = 1;
origin = (1,2);
scale = (-1,1);
type = Corner;
},
{
name = _corner.leftserif;
options = 1;
origin = (1,0);
scale = (-1,1);
type = Corner;
},
{
name = _corner.leftserif;
origin = (1,3);
type = Corner;
}
);
layerId = "2F0BCB80-3430-4FA1-A4A3-7C385E8DAA98";
shapes = (
{
closed = 1;
nodes = (
(404,372,ls),
(599,372,o),
(695,442,o),
(695,582,cs),
(695,728,o),
(599,800,o),
(404,800,cs),
(234,800,l),
(234,785,l),
(404,785,ls),
(532,785,o),
(595,718,o),
(595,582,cs),
(592,452,o),
(529,387,o),
(403,387,cs),
(285,387,l),
(285,372,l)
);
},
{
closed = 1;
nodes = (
(298,0,l),
(298,800,l),
(190,800,l),
(190,0,l)
);
}
);
width = 795;
},
{
anchors = (
{
name = bottom;
pos = (417,0);
},
{
name = top;
pos = (417,800);
}
);
hints = (
{
horizontal = 1;
place = (783,17);
type = Stem;
},
{
horizontal = 1;
place = (369,23);
type = Stem;
},
{
horizontal = 1;
place = (0,18);
type = Stem;
},
{
place = (549,117);
type = Stem;
},
{
place = (120,148);
type = Stem;
},
{
name = _corner.leftserif;
options = 1;
origin = (1,0);
scale = (-1,1);
type = Corner;
},
{
name = _corner.leftserif;
origin = (1,3);
type = Corner;
},
{
name = _corner.leftserif;
options = 1;
origin = (1,2);
scale = (-1,1);
type = Corner;
}
);
layerId = m01;
shapes = (
{
closed = 1;
nodes = (
(441,369,ls),
(637,369,o),
(734,440,o),
(734,582,cs),
(734,728,o),
(637,800,o),
(441,800,cs),
(261,800,l),
(261,783,l),
(441,783,ls),
(559,783,o),
(617,716,o),
(617,582,cs),
(614,455,o),
(555,392,o),
(440,392,cs),
(312,392,l),
(312,369,l)
);
},
{
closed = 1;
nodes = (
(336,0,l),
(336,800,l),
(188,800,l),
(188,0,l)
);
}
);
width = 834;
}
);
metricLeft = "=100";
metricRight = "=100";
unicode = 80;
},
{
color = 4;
glyphname = Q;
lastChange = "2026-06-18 23:45:05 +0000";
layers = (
{
anchors = (
{
name = bottom;
pos = (448,0);
},
{
name = top;
pos = (448,800);
}
);
layerId = "E5DC9139-DBE8-45F6-BCD0-0641ED917C2C";
shapes = (
{
closed = 1;
nodes = (
(651,-7,o),
(795,159,o),
(795,396,cs),
(795,633,o),
(651,799,o),
(447,799,cs),
(243,799,o),
(100,633,o),
(100,396,cs),
(100,159,o),
(243,-7,o),
(447,-7,cs)
);
},
{
closed = 1;
nodes = (
(606,-150,l),
(534,-179,o),
(484,-117,o),
(484,1,c),
(401,1,l),
(404,-45,o),
(414,-92,o),
(424,-114,cs),
(458,-189,o),
(534,-206,o),
(609,-155,c)
);
},
{
closed = 1;
nodes = (
(283,3,o),
(168,165,o),
(168,396,cs),
(168,627,o),
(283,789,o),
(447,789,cs),
(611,789,o),
(727,627,o),
(727,396,cs),
(727,165,o),
(611,3,o),
(447,3,cs)
);
}
);
width = 895;
},
{
anchors = (
{
name = bottom;
pos = (448,0);
},
{
name = top;
pos = (448,800);
}
);
layerId = "2F0BCB80-3430-4FA1-A4A3-7C385E8DAA98";
shapes = (
{
closed = 1;
nodes = (
(652,-7,o),
(795,159,o),
(795,396,cs),
(795,633,o),
(652,799,o),
(448,799,cs),
(244,799,o),
(100,633,o),
(100,396,cs),
(100,159,o),
(244,-7,o),
(448,-7,cs)
);
},
{
closed = 1;
nodes = (
(622,-152,l),
(554,-164,o),
(506,-100,o),
(506,2,c),
(392,2,l),
(392,-37,o),
(405,-85,o),
(423,-114,cs),
(462,-178,o),
(546,-198,o),
(626,-164,c)
);
},
{
closed = 1;
nodes = (
(307,8,o),
(208,168,o),
(208,396,cs),
(208,624,o),
(307,784,o),
(448,784,cs),
(588,784,o),
(687,624,o),
(687,396,cs),
(687,168,o),
(588,8,o),
(448,8,cs)
);
}
);
width = 895;
},
{
anchors = (
{
name = bottom;
pos = (447,0);
},
{
name = top;
pos = (447,800);
}
);
hints = (
{
horizontal = 1;
place = (782,17);
type = Stem;
},
{
horizontal = 1;
place = (-7,19);
type = Stem;
},
{
horizontal = 1;
place = (-7,10);
type = Stem;
},
{
horizontal = 1;
place = (-185,34);
type = Stem;
},
{
place = (587,147);
type = Stem;
},
{
place = (319,146);
type = Stem;
},
{
place = (40,148);
type = Stem;
}
);
layerId = m01;
shapes = (
{
closed = 1;
nodes = (
(652,-7,o),
(794,159,o),
(794,396,cs),
(794,633,o),
(652,799,o),
(450,799,cs),
(244,799,o),
(100,633,o),
(100,396,cs),
(100,159,o),
(244,-7,o),
(450,-7,cs)
);
},
{
closed = 1;
nodes = (
(630,-151,l),
(570,-155,o),
(528,-91,o),
(528,3,c),
(379,3,l),
(377,-29,o),
(391,-74,o),
(412,-105,cs),
(459,-173,o),
(551,-199,o),
(636,-168,c)
);
},
{
closed = 1;
nodes = (
(331,12,o),
(248,171,o),
(248,396,cs),
(248,623,o),
(331,782,o),
(450,782,cs),
(566,782,o),
(647,623,o),
(647,396,cs),
(647,171,o),
(566,12,o),
(450,12,cs)
);
}
);
width = 894;
}
);
unicode = 81;
},
{
color = 4;
glyphname = R;
lastChange = "2026-06-23 23:07:26 +0000";
layers = (
{
anchors = (
{
name = bottom;
pos = (433,0);
},
{
name = top;
pos = (433,800);
}
);
hints = (
{
name = _corner.leftserif;
options = 1;
origin = (1,0);
scale = (-1,1);
type = Corner;
},
{
name = _corner.leftserif;
origin = (1,3);
type = Corner;
},
{
name = _corner.leftserif;
options = 1;
origin = (1,2);
scale = (-1,1);
type = Corner;
}
);
layerId = "E5DC9139-DBE8-45F6-BCD0-0641ED917C2C";
shapes = (
{
closed = 1;
nodes = (
(363,395,ls),
(513,395,o),
(649,422,o),
(649,602,cs),
(649,777,o),
(504,800,o),
(363,800,cs),
(224,800,l),
(224,790,l),
(363,790,ls),
(438,790,o),
(564,753,o),
(564,602,cs),
(561,446,o),
(444,403,o),
(362,403,cs),
(236,403,l),
(236,395,l)
);
},
{
closed = 1;
nodes = (
(258,0,l),
(258,800,l),
(190,800,l),
(190,0,l)
);
},
{
closed = 1;
nodes = (
(763,18,l),
(703,-6,o),
(661,20,o),
(648,75,cs),
(632,144,o),
(653,236,o),
(624,300,cs),
(595,367,o),
(529,395,o),
(437,402,cs),
(406,405,o),
(389,403,o),
(362,403,c),
(357,395,l),
(437,396,o),
(541,392,o),
(554,237,cs),
(557,202,o),
(558,105,o),
(581,54,cs),
(617,-25,o),
(713,-23,o),
(766,13,c)
);
}
);
width = 866;
},
{
anchors = (
{
name = bottom;
pos = (455,0);
},
{
name = top;
pos = (455,800);
}
);
hints = (
{
name = _corner.leftserif;
options = 1;
origin = (1,2);
scale = (-1,1);
type = Corner;
},
{
name = _corner.leftserif;
options = 1;
origin = (1,0);
scale = (-1,1);
type = Corner;
},
{
name = _corner.leftserif;
origin = (1,3);
type = Corner;
}
);
layerId = "2F0BCB80-3430-4FA1-A4A3-7C385E8DAA98";
shapes = (
{
closed = 1;
nodes = (
(404,392,ls),
(564,392,o),
(705,422,o),
(705,592,cs),
(705,777,o),
(555,800,o),
(404,800,cs),
(235,800,l),
(235,780,l),
(394,780,ls),
(466,780,o),
(585,763,o),
(585,592,cs),
(582,436,o),
(475,406,o),
(393,406,cs),
(287,406,l),
(287,392,l)
);
},
{
closed = 1;
nodes = (
(298,0,l),
(298,800,l),
(190,800,l),
(190,0,l)
);
},
{
closed = 1;
nodes = (
(805,25,l),
(745,1,o),
(710,31,o),
(701,75,cs),
(688,144,o),
(706,236,o),
(677,300,cs),
(648,367,o),
(572,395,o),
(480,402,cs),
(449,405,o),
(432,406,o),
(405,406,c),
(400,392,l),
(480,393,o),
(564,389,o),
(577,237,cs),
(580,202,o),
(581,106,o),
(604,54,cs),
(640,-28,o),
(756,-23,o),
(809,13,c)
);
}
);
width = 909;
},
{
anchors = (
{
name = bottom;
pos = (466,0);
},
{
name = top;
pos = (466,800);
}
);
hints = (
{
horizontal = 1;
place = (770,30);
type = Stem;
},
{
horizontal = 1;
place = (389,21);
type = Stem;
},
{
horizontal = 1;
place = (0,30);
type = Stem;
},
{
horizontal = 1;
place = (-13,39);
type = Stem;
},
{
place = (574,117);
type = Stem;
},
{
place = (145,148);
type = Stem;
},
{
name = _corner.leftserif;
options = 1;
origin = (1,2);
scale = (-1,1);
type = Corner;
},
{
name = _corner.leftserif;
options = 1;
origin = (1,0);
scale = (-1,1);
type = Corner;
},
{
name = _corner.leftserif;
origin = (1,3);
type = Corner;
}
);
layerId = m01;
shapes = (
{
closed = 1;
nodes = (
(441,389,ls),
(606,389,o),
(754,412,o),
(754,577,cs),
(754,777,o),
(597,800,o),
(441,800,cs),
(235,800,l),
(235,780,l),
(421,780,ls),
(481,780,o),
(597,778,o),
(597,577,cs),
(597,421,o),
(492,410,o),
(420,410,cs),
(319,410,l),
(319,389,l)
);
},
{
closed = 1;
nodes = (
(336,0,l),
(336,800,l),
(188,800,l),
(188,0,l)
);
},
{
closed = 1;
nodes = (
(844,33,l),
(784,9,o),
(761,48,o),
(756,75,cs),
(745,144,o),
(761,236,o),
(732,300,cs),
(703,367,o),
(612,395,o),
(520,402,cs),
(489,405,o),
(472,410,o),
(445,410,c),
(440,389,l),
(520,389,o),
(584,392,o),
(597,237,cs),
(600,202,o),
(601,108,o),
(624,54,cs),
(661,-34,o),
(796,-23,o),
(849,13,c)
);
}
);
width = 949;
}
);
metricLeft = "=100";
metricRight = "=100";
unicode = 82;
},
{
color = 4;
glyphname = S;
lastChange = "2026-06-18 23:45:36 +0000";
layers = (
{
anchors = (
{
name = bottom;
pos = (371,0);
},
{
name = top;
pos = (371,800);
}
);
layerId = "E5DC9139-DBE8-45F6-BCD0-0641ED917C2C";
shapes = (
{
closed = 1;
nodes = (
(632,-14,o),
(667,174,o),
(628,290,cs),
(562,495,o),
(204,423,o),
(198,615,cs),
(195,704,o),
(268,781,o),
(384,787,cs),
(463,791,o),
(574,772,o),
(591,645,c),
(583,655,o),
(571,661,o),
(557,661,cs),
(531,661,o),
(509,639,o),
(509,613,cs),
(509,587,o),
(531,566,o),
(557,566,cs),
(583,566,o),
(602,587,o),
(604,613,cs),
(611,699,o),
(566,804,o),
(385,802,cs),
(206,800,o),
(129,698,o),
(121,588,cs),
(103,322,o),
(555,404,o),
(552,182,cs),
(551,87,o),
(477,6,o),
(333,14,cs),
(159,24,o),
(105,161,o),
(113,252,c),
(101,252,l),
(92,119,o),
(181,-1,o),
(350,-6,cs)
);
}
);
width = 741;
},
{
anchors = (
{
name = bottom;
pos = (371,0);
},
{
name = top;
pos = (371,800);
}
);
layerId = "2F0BCB80-3430-4FA1-A4A3-7C385E8DAA98";
shapes = (
{
closed = 1;
nodes = (
(632,-12,o),
(667,176,o),
(628,292,cs),
(562,497,o),
(247,430,o),
(238,622,cs),
(235,691,o),
(278,780,o),
(384,789,cs),
(470,796,o),
(568,763,o),
(580,669,c),
(570,677,o),
(558,681,o),
(545,681,cs),
(512,681,o),
(484,653,o),
(484,620,cs),
(484,587,o),
(512,561,o),
(545,561,cs),
(578,561,o),
(602,587,o),
(604,620,cs),
(609,706,o),
(566,811,o),
(385,809,cs),
(206,807,o),
(129,705,o),
(121,595,cs),
(103,329,o),
(512,386,o),
(512,184,cs),
(512,114,o),
(477,25,o),
(333,25,cs),
(172,25,o),
(110,162,o),
(119,254,c),
(101,254,l),
(91,121,o),
(181,1,o),
(350,-4,cs)
);
}
);
width = 741;
},
{
anchors = (
{
name = bottom;
pos = (371,0);
},
{
name = top;
pos = (371,800);
}
);
hints = (
{
horizontal = 1;
place = (796,23);
type = Stem;
},
{
horizontal = 1;
place = (558,146);
type = Stem;
},
{
horizontal = 1;
place = (-2,38);
type = Stem;
},
{
place = (501,33);
type = Stem;
},
{
place = (402,169);
type = Stem;
},
{
place = (388,146);
type = Stem;
},
{
place = (51,157);
type = Stem;
},
{
place = (31,21);
type = Stem;
}
);
layerId = m01;
shapes = (
{
closed = 1;
nodes = (
(632,-10,o),
(667,178,o),
(628,294,cs),
(562,499,o),
(292,439,o),
(278,632,cs),
(275,671,o),
(278,786,o),
(384,796,cs),
(486,805,o),
(568,749,o),
(571,694,c),
(559,701,o),
(546,704,o),
(532,704,cs),
(492,704,o),
(458,670,o),
(458,630,cs),
(458,589,o),
(492,558,o),
(532,558,cs),
(573,558,o),
(602,589,o),
(604,630,cs),
(607,711,o),
(566,821,o),
(385,819,cs),
(206,817,o),
(129,715,o),
(121,605,cs),
(103,339,o),
(467,359,o),
(472,186,cs),
(474,153,o),
(477,40,o),
(333,36,cs),
(179,31,o),
(113,164,o),
(122,256,c),
(101,256,l),
(90,122,o),
(181,3,o),
(350,-2,cs)
);
}
);
width = 741;
}
);
unicode = 83;
},
{
color = 4;
glyphname = T;
lastChange = "2026-06-17 22:14:50 +0000";
layers = (
{
anchors = (
{
name = bottom;
pos = (375,0);
},
{
name = center;
pos = (375,400);
},
{
name = top;
pos = (375,800);
}
);
hints = (
{
name = _corner.leftserif;
options = 1;
origin = (0,0);
scale = (-1,1);
type = Corner;
},
{
name = _corner.leftserif;
origin = (0,3);
type = Corner;
}
);
layerId = "E5DC9139-DBE8-45F6-BCD0-0641ED917C2C";
shapes = (
{
closed = 1;
nodes = (
(409,0,l),
(409,800,l),
(341,800,l),
(341,0,l)
);
},
{
closed = 1;
nodes = (
(115,716,o),
(147,790,o),
(223,790,c),
(100,790,l),
(100,639,l)
);
},
{
closed = 1;
nodes = (
(351,790,l),
(351,800,l),
(100,800,l),
(100,790,l)
);
},
{
closed = 1;
nodes = (
(650,790,l),
(537,790,l),
(603,790,o),
(635,716,o),
(650,639,c)
);
},
{
closed = 1;
nodes = (
(650,790,l),
(650,800,l),
(399,800,l),
(399,790,l)
);
}
);
width = 750;
},
{
anchors = (
{
name = bottom;
pos = (394,0);
},
{
name = center;
pos = (394,400);
},
{
name = top;
pos = (394,800);
}
);
hints = (
{
name = _corner.leftserif;
options = 1;
origin = (0,0);
scale = (-1,1);
type = Corner;
},
{
name = _corner.leftserif;
origin = (0,3);
type = Corner;
}
);
layerId = "2F0BCB80-3430-4FA1-A4A3-7C385E8DAA98";
shapes = (
{
closed = 1;
nodes = (
(448,0,l),
(448,800,l),
(340,800,l),
(340,0,l)
);
},
{
closed = 1;
nodes = (
(118,698,o),
(155,785,o),
(245,785,c),
(100,785,l),
(100,607,l)
);
},
{
closed = 1;
nodes = (
(355,785,l),
(355,800,l),
(100,800,l),
(100,785,l)
);
},
{
closed = 1;
nodes = (
(688,785,l),
(543,785,l),
(632,785,o),
(669,698,o),
(688,607,c)
);
},
{
closed = 1;
nodes = (
(688,785,l),
(688,800,l),
(433,800,l),
(433,785,l)
);
}
);
width = 788;
},
{
anchors = (
{
name = bottom;
pos = (413,0);
},
{
name = center;
pos = (413,400);
},
{
name = top;
pos = (413,800);
}
);
hints = (
{
horizontal = 1;
place = (783,17);
type = Stem;
},
{
horizontal = 1;
place = (0,18);
type = Stem;
},
{
place = (405,23);
type = Stem;
},
{
place = (280,148);
type = Stem;
},
{
place = (280,22);
type = Stem;
},
{
name = _corner.leftserif;
options = 1;
origin = (0,0);
scale = (-1,1);
type = Corner;
},
{
name = _corner.leftserif;
origin = (0,3);
type = Corner;
}
);
layerId = m01;
shapes = (
{
closed = 1;
nodes = (
(488,0,l),
(488,800,l),
(340,800,l),
(340,0,l)
);
},
{
closed = 1;
nodes = (
(121,684,o),
(162,783,o),
(266,783,c),
(100,783,l),
(100,579,l)
);
},
{
closed = 1;
nodes = (
(362,783,l),
(362,800,l),
(100,800,l),
(100,783,l)
);
},
{
closed = 1;
nodes = (
(726,783,l),
(555,783,l),
(662,783,o),
(703,683,o),
(726,579,c)
);
},
{
closed = 1;
nodes = (
(726,783,l),
(726,800,l),
(465,800,l),
(465,783,l)
);
}
);
width = 826;
}
);
unicode = 84;
},
{
color = 4;
glyphname = U;
lastChange = "2026-06-23 23:09:08 +0000";
layers = (
{
anchors = (
{
name = bottom;
pos = (453,0);
},
{
name = ogonek;
pos = (815,10);
},
{
name = top;
pos = (453,800);
},
{
name = topright;
pos = (885,800);
}
);
hints = (
{
name = _corner.leftserif;
origin = (0,3);
type = Corner;
},
{
name = _corner.leftserif;
options = 1;
origin = (0,4);
scale = (-1,1);
type = Corner;
},
{
name = _corner.leftserif;
origin = (0,12);
type = Corner;
},
{
name = _corner.leftserif;
options = 1;
origin = (0,13);
scale = (-1,1);
type = Corner;
}
);
layerId = "E5DC9139-DBE8-45F6-BCD0-0641ED917C2C";
shapes = (
{
closed = 1;
nodes = (
(632,-7,o),
(715,85,o),
(715,250,cs),
(715,800,l),
(705,800,l),
(705,250,ls),
(705,92,o),
(625,3,o),
(483,3,cs),
(339,3,o),
(258,92,o),
(258,250,cs),
(258,800,l),
(190,800,l),
(190,250,ls),
(190,85,o),
(295,-7,o),
(483,-7,cs)
);
}
);
width = 905;
},
{
anchors = (
{
name = bottom;
pos = (454,0);
},
{
name = ogonek;
pos = (816,10);
},
{
name = top;
pos = (454,800);
},
{
name = topright;
pos = (887,800);
}
);
hints = (
{
name = _corner.leftserif;
origin = (0,3);
type = Corner;
},
{
name = _corner.leftserif;
options = 1;
origin = (0,4);
scale = (-1,1);
type = Corner;
},
{
name = _corner.leftserif;
origin = (0,12);
type = Corner;
},
{
name = _corner.leftserif;
options = 1;
origin = (0,13);
scale = (-1,1);
type = Corner;
}
);
layerId = "2F0BCB80-3430-4FA1-A4A3-7C385E8DAA98";
shapes = (
{
closed = 1;
nodes = (
(641,-7,o),
(717,78,o),
(717,250,cs),
(717,800,l),
(702,800,l),
(702,250,ls),
(702,88,o),
(631,8,o),
(487,8,cs),
(361,8,o),
(298,88,o),
(298,250,cs),
(298,800,l),
(190,800,l),
(190,250,ls),
(190,78,o),
(288,-7,o),
(487,-7,cs)
);
}
);
width = 907;
},
{
anchors = (
{
name = bottom;
pos = (446,0);
},
{
name = ogonek;
pos = (802,10);
},
{
name = top;
pos = (446,800);
},
{
name = topright;
pos = (871,800);
}
);
hints = (
{
horizontal = 1;
place = (783,17);
type = Stem;
},
{
horizontal = 1;
place = (-7,18);
type = Stem;
},
{
place = (593,105);
type = Stem;
},
{
place = (593,17);
type = Stem;
},
{
place = (523,87);
type = Stem;
},
{
place = (125,148);
type = Stem;
},
{
name = _corner.leftserif;
origin = (0,12);
type = Corner;
},
{
name = _corner.leftserif;
options = 2;
origin = (0,13);
scale = (-1,1);
type = Corner;
},
{
name = _corner.leftserif;
origin = (0,3);
type = Corner;
},
{
name = _corner.leftserif;
options = 2;
origin = (0,4);
scale = (-1,1);
type = Corner;
}
);
layerId = m01;
shapes = (
{
closed = 1;
nodes = (
(632,-7,o),
(703,78,o),
(703,250,cs),
(703,800,l),
(686,800,l),
(686,250,ls),
(686,90,o),
(621,11,o),
(489,11,cs),
(387,11,o),
(336,90,o),
(336,250,cs),
(336,800,l),
(188,800,l),
(188,250,ls),
(188,78,o),
(288,-7,o),
(489,-7,cs)
);
}
);
width = 891;
}
);
metricLeft = "=100";
metricRight = "=100";
unicode = 85;
},
{
color = 4;
glyphname = V;
lastChange = "2026-06-24 03:38:00 +0000";
layers = (
{
anchors = (
{
name = bottom;
pos = (498,0);
},
{
name = top;
pos = (498,800);
}
);
hints = (
{
name = _corner.leftserif;
origin = (0,4);
type = Corner;
},
{
name = _corner.leftserif;
options = 1;
origin = (0,5);
scale = (-1,1);
type = Corner;
},
{
name = _corner.leftserif;
origin = (0,1);
type = Corner;
},
{
name = _corner.leftserif;
options = 1;
origin = (0,2);
scale = (-1,1);
type = Corner;
}
);
layerId = "E5DC9139-DBE8-45F6-BCD0-0641ED917C2C";
shapes = (
{
closed = 1;
nodes = (
(513,0,l),
(810,800,l),
(800,800,l),
(527,68,l),
(259,800,l),
(186,800,l),
(482,0,l)
);
}
);
width = 996;
},
{
anchors = (
{
name = bottom;
pos = (508,0);
},
{
name = top;
pos = (508,800);
}
);
hints = (
{
name = _corner.leftserif;
origin = (0,4);
type = Corner;
},
{
name = _corner.leftserif;
options = 1;
origin = (0,5);
scale = (-1,1);
type = Corner;
},
{
name = _corner.leftserif;
origin = (0,1);
type = Corner;
},
{
name = _corner.leftserif;
options = 1;
origin = (0,2);
scale = (-1,1);
type = Corner;
}
);
layerId = "2F0BCB80-3430-4FA1-A4A3-7C385E8DAA98";
shapes = (
{
closed = 1;
nodes = (
(526,0,l),
(832,800,l),
(816,800,l),
(556,121,l),
(299,800,l),
(184,800,l),
(488,0,l)
);
}
);
width = 1016;
},
{
anchors = (
{
name = bottom;
pos = (519,0);
},
{
name = top;
pos = (519,800);
}
);
hints = (
{
horizontal = 1;
place = (783,17);
type = Stem;
},
{
place = (30,854);
type = Stem;
},
{
name = _corner.leftserif;
origin = (0,1);
type = Corner;
},
{
name = _corner.leftserif;
options = 1;
origin = (0,2);
scale = (-1,1);
type = Corner;
},
{
name = _corner.leftserif;
origin = (0,4);
type = Corner;
},
{
name = _corner.leftserif;
options = 1;
origin = (0,5);
scale = (-1,1);
type = Corner;
}
);
layerId = m01;
shapes = (
{
closed = 1;
nodes = (
(539,0,l),
(858,800,l),
(839,800,l),
(587,172,l),
(337,800,l),
(180,800,l),
(496,0,l)
);
}
);
width = 1038;
}
);
metricLeft = "=100";
metricRight = "=100";
unicode = 86;
},
{
color = 4;
glyphname = W;
lastChange = "2026-06-24 03:38:00 +0000";
layers = (
{
anchors = (
{
name = bottom;
pos = (697,0);
},
{
name = top;
pos = (697,800);
}
);
hints = (
{
name = _corner.leftserif;
origin = (0,4);
type = Corner;
},
{
name = _corner.leftserif;
options = 1;
origin = (0,5);
scale = (-1,1);
type = Corner;
},
{
name = _corner.leftserif;
origin = (0,7);
type = Corner;
},
{
name = _corner.leftserif;
options = 1;
origin = (0,8);
scale = (-1,1);
type = Corner;
},
{
name = _corner.leftserif;
origin = (0,11);
type = Corner;
},
{
name = _corner.leftserif;
options = 1;
origin = (0,12);
scale = (-1,1);
type = Corner;
}
);
layerId = "E5DC9139-DBE8-45F6-BCD0-0641ED917C2C";
shapes = (
{
closed = 1;
nodes = (
(503,0,l),
(695,538,l),
(889,0,l),
(918,0,l),
(1207,800,l),
(1196,800,l),
(934,75,l),
(673,800,l),
(601,800,l),
(690,552,l),
(519,76,l),
(259,800,l),
(186,800,l),
(474,0,l)
);
}
);
width = 1393;
},
{
anchors = (
{
name = bottom;
pos = (698,0);
},
{
name = top;
pos = (698,800);
}
);
hints = (
{
name = _corner.leftserif;
origin = (0,11);
type = Corner;
},
{
name = _corner.leftserif;
options = 1;
origin = (0,12);
scale = (-1,1);
type = Corner;
},
{
name = _corner.leftserif;
origin = (0,7);
type = Corner;
},
{
name = _corner.leftserif;
options = 1;
origin = (0,8);
scale = (-1,1);
type = Corner;
},
{
name = _corner.leftserif;
origin = (0,4);
type = Corner;
},
{
name = _corner.leftserif;
options = 1;
origin = (0,5);
scale = (-1,1);
type = Corner;
}
);
layerId = "2F0BCB80-3430-4FA1-A4A3-7C385E8DAA98";
shapes = (
{
closed = 1;
nodes = (
(507,0,l),
(697,530,l),
(888,0,l),
(922,0,l),
(1211,800,l),
(1195,800,l),
(955,135,l),
(715,800,l),
(600,800,l),
(689,552,l),
(540,135,l),
(300,800,l),
(185,800,l),
(473,0,l)
);
}
);
width = 1396;
},
{
anchors = (
{
name = bottom;
pos = (696,0);
},
{
name = top;
pos = (696,800);
}
);
hints = (
{
horizontal = 1;
place = (783,17);
type = Stem;
},
{
place = (30,1205);
type = Stem;
},
{
name = _corner.leftserif;
origin = (0,4);
type = Corner;
},
{
name = _corner.leftserif;
options = 1;
origin = (0,5);
scale = (-1,1);
type = Corner;
},
{
name = _corner.leftserif;
origin = (0,7);
type = Corner;
},
{
name = _corner.leftserif;
options = 1;
origin = (0,8);
scale = (-1,1);
type = Corner;
},
{
name = _corner.leftserif;
origin = (0,11);
type = Corner;
},
{
name = _corner.leftserif;
options = 1;
origin = (0,12);
scale = (-1,1);
type = Corner;
}
);
layerId = m01;
shapes = (
{
closed = 1;
nodes = (
(506,0,l),
(695,526,l),
(884,0,l),
(921,0,l),
(1210,800,l),
(1191,800,l),
(973,194,l),
(754,800,l),
(596,800,l),
(685,552,l),
(558,194,l),
(338,800,l),
(181,800,l),
(469,0,l)
);
}
);
width = 1391;
}
);
metricLeft = "=100";
metricRight = "=100";
unicode = 87;
},
{
color = 4;
glyphname = X;
lastChange = "2026-06-23 21:54:18 +0000";
layers = (
{
anchors = (
{
name = bottom;
pos = (452,0);
},
{
name = top;
pos = (452,800);
}
);
hints = (
{
name = _corner.leftserif;
options = 1;
origin = (0,0);
scale = (-1,1);
type = Corner;
},
{
name = _corner.leftserif;
origin = (0,3);
type = Corner;
},
{
name = _corner.leftserif;
options = 1;
origin = (1,0);
scale = (-1,1);
type = Corner;
},
{
name = _corner.leftserif;
origin = (1,3);
type = Corner;
},
{
name = _corner.leftserif;
origin = (0,1);
type = Corner;
},
{
name = _corner.leftserif;
options = 1;
origin = (0,2);
scale = (1,-1);
type = Corner;
},
{
name = _corner.leftserif;
origin = (2,0);
type = Corner;
},
{
name = _corner.leftserif;
options = 1;
origin = (2,1);
scale = (-1,1);
type = Corner;
}
);
layerId = "E5DC9139-DBE8-45F6-BCD0-0641ED917C2C";
shapes = (
{
closed = 1;
nodes = (
(733,0,l),
(265,800,l),
(186,800,l),
(654,0,l)
);
},
{
closed = 1;
nodes = (
(189,0,l),
(441,392,l),
(433,397,l),
(177,0,l)
);
},
{
closed = 1;
nodes = (
(713,800,l),
(702,800,l),
(470,411,l),
(479,406,l)
);
}
);
width = 904;
},
{
anchors = (
{
name = bottom;
pos = (477,0);
},
{
name = top;
pos = (477,800);
}
);
hints = (
{
name = _corner.leftserif;
options = 1;
origin = (1,0);
scale = (-1,1);
type = Corner;
},
{
name = _corner.leftserif;
origin = (1,3);
type = Corner;
},
{
name = _corner.leftserif;
options = 1;
origin = (0,0);
scale = (-1,1);
type = Corner;
},
{
name = _corner.leftserif;
origin = (0,3);
type = Corner;
},
{
name = _corner.leftserif;
origin = (2,0);
type = Corner;
},
{
name = _corner.leftserif;
options = 1;
origin = (2,1);
scale = (-1,1);
type = Corner;
},
{
name = _corner.leftserif;
origin = (0,1);
type = Corner;
},
{
name = _corner.leftserif;
options = 1;
origin = (0,2);
scale = (-1,1);
type = Corner;
}
);
layerId = "2F0BCB80-3430-4FA1-A4A3-7C385E8DAA98";
shapes = (
{
closed = 1;
nodes = (
(774,0,l),
(306,800,l),
(181,800,l),
(649,0,l)
);
},
{
closed = 1;
nodes = (
(204,0,l),
(456,392,l),
(443,400,l),
(186,0,l)
);
},
{
closed = 1;
nodes = (
(728,800,l),
(711,800,l),
(481,414,l),
(494,406,l)
);
}
);
width = 954;
},
{
anchors = (
{
name = bottom;
pos = (510,0);
},
{
name = top;
pos = (510,800);
}
);
hints = (
{
horizontal = 1;
place = (783,17);
type = Stem;
},
{
horizontal = 1;
place = (0,18);
type = Stem;
},
{
place = (30,810);
type = Stem;
},
{
name = _corner.leftserif;
options = 1;
origin = (1,0);
scale = (-1,1);
type = Corner;
},
{
name = _corner.leftserif;
origin = (1,3);
type = Corner;
},
{
name = _corner.leftserif;
options = 1;
origin = (0,0);
scale = (-1,1);
type = Corner;
},
{
name = _corner.leftserif;
origin = (0,3);
type = Corner;
},
{
name = _corner.leftserif;
origin = (2,0);
type = Corner;
},
{
name = _corner.leftserif;
options = 1;
origin = (2,1);
scale = (-1,1);
type = Corner;
},
{
name = _corner.leftserif;
origin = (0,1);
type = Corner;
},
{
name = _corner.leftserif;
options = 1;
origin = (0,2);
scale = (-1,1);
type = Corner;
}
);
layerId = m01;
shapes = (
{
closed = 1;
nodes = (
(829,0,l),
(361,800,l),
(190,800,l),
(658,0,l)
);
},
{
closed = 1;
nodes = (
(223,0,l),
(475,392,l),
(459,402,l),
(202,0,l)
);
},
{
closed = 1;
nodes = (
(757,800,l),
(737,800,l),
(508,416,l),
(523,406,l)
);
}
);
width = 1010;
}
);
unicode = 88;
},
{
color = 4;
glyphname = Y;
lastChange = "2026-06-24 03:38:00 +0000";
layers = (
{
anchors = (
{
name = bottom;
pos = (466,0);
},
{
name = top;
pos = (466,800);
},
{
name = topleft;
pos = (20,800);
}
);
hints = (
{
name = _corner.leftserif;
options = 1;
origin = (0,0);
scale = (-1,1);
type = Corner;
},
{
name = _corner.leftserif;
origin = (0,5);
type = Corner;
},
{
name = _corner.leftserif;
origin = (0,2);
type = Corner;
},
{
name = _corner.leftserif;
options = 1;
origin = (0,3);
scale = (-1,1);
type = Corner;
},
{
name = _corner.leftserif;
origin = (1,0);
type = Corner;
},
{
name = _corner.leftserif;
options = 1;
origin = (1,1);
scale = (-1,1);
type = Corner;
}
);
layerId = "E5DC9139-DBE8-45F6-BCD0-0641ED917C2C";
shapes = (
{
closed = 1;
nodes = (
(508,0,l),
(508,404,l),
(264,800,l),
(184,800,l),
(440,385,l),
(440,0,l)
);
},
{
closed = 1;
nodes = (
(747,800,l),
(735,800,l),
(464,349,l),
(473,344,l)
);
}
);
width = 931;
},
{
anchors = (
{
name = bottom;
pos = (478,0);
},
{
name = top;
pos = (478,800);
},
{
name = topleft;
pos = (20,800);
}
);
hints = (
{
name = _corner.leftserif;
options = 1;
origin = (0,0);
scale = (-1,1);
type = Corner;
},
{
name = _corner.leftserif;
origin = (0,5);
type = Corner;
},
{
name = _corner.leftserif;
origin = (0,2);
type = Corner;
},
{
name = _corner.leftserif;
options = 1;
origin = (0,3);
scale = (-1,1);
type = Corner;
},
{
name = _corner.leftserif;
origin = (1,0);
type = Corner;
},
{
name = _corner.leftserif;
options = 1;
origin = (1,1);
scale = (-1,1);
type = Corner;
}
);
layerId = "2F0BCB80-3430-4FA1-A4A3-7C385E8DAA98";
shapes = (
{
closed = 1;
nodes = (
(544,0,l),
(544,416,l),
(308,800,l),
(181,800,l),
(436,385,l),
(436,0,l)
);
},
{
closed = 1;
nodes = (
(775,800,l),
(758,800,l),
(482,332,l),
(495,324,l)
);
}
);
width = 956;
},
{
anchors = (
{
name = bottom;
pos = (481,0);
},
{
name = top;
pos = (481,800);
},
{
name = topleft;
pos = (17,800);
}
);
hints = (
{
horizontal = 1;
place = (783,17);
type = Stem;
},
{
horizontal = 1;
place = (0,18);
type = Stem;
},
{
place = (373,138);
type = Stem;
},
{
name = _corner.leftserif;
options = 1;
origin = (0,0);
scale = (-1,1);
type = Corner;
},
{
name = _corner.leftserif;
origin = (0,5);
type = Corner;
},
{
name = _corner.leftserif;
origin = (1,0);
type = Corner;
},
{
name = _corner.leftserif;
options = 1;
origin = (1,1);
scale = (-1,1);
type = Corner;
},
{
name = _corner.leftserif;
origin = (0,2);
type = Corner;
},
{
name = _corner.leftserif;
options = 1;
origin = (0,3);
scale = (-1,1);
type = Corner;
}
);
layerId = m01;
shapes = (
{
closed = 1;
nodes = (
(569,0,l),
(569,425,l),
(339,800,l),
(176,800,l),
(431,385,l),
(431,0,l)
);
},
{
closed = 1;
nodes = (
(786,800,l),
(766,800,l),
(488,314,l),
(503,304,l)
);
}
);
width = 963;
}
);
metricLeft = "=100";
metricRight = "=100";
unicode = 89;
},
{
color = 4;
glyphname = Z;
lastChange = "2026-06-16 00:37:54 +0000";
layers = (
{
anchors = (
{
name = bottom;
pos = (362,0);
},
{
name = center;
pos = (362,400);
},
{
name = top;
pos = (362,800);
}
);
layerId = "E5DC9139-DBE8-45F6-BCD0-0641ED917C2C";
shapes = (
{
closed = 1;
nodes = (
(178,0,l),
(623,800,l),
(546,800,l),
(100,0,l)
);
},
{
closed = 1;
nodes = (
(618,0,l),
(618,10,l),
(166,10,l),
(166,0,l)
);
},
{
closed = 1;
nodes = (
(618,10,l),
(618,161,l),
(603,84,o),
(571,10,o),
(505,10,c)
);
},
{
closed = 1;
nodes = (
(140,716,o),
(172,790,o),
(248,790,c),
(125,790,l),
(125,639,l)
);
},
{
closed = 1;
nodes = (
(616,790,l),
(616,800,l),
(125,800,l),
(125,790,l)
);
}
);
width = 723;
},
{
anchors = (
{
name = bottom;
pos = (385,0);
},
{
name = center;
pos = (385,400);
},
{
name = top;
pos = (385,800);
}
);
layerId = "2F0BCB80-3430-4FA1-A4A3-7C385E8DAA98";
shapes = (
{
closed = 1;
nodes = (
(224,0,l),
(670,800,l),
(546,800,l),
(100,0,l)
);
},
{
closed = 1;
nodes = (
(666,0,l),
(666,15,l),
(164,15,l),
(164,0,l)
);
},
{
closed = 1;
nodes = (
(666,15,l),
(666,193,l),
(647,102,o),
(610,15,o),
(521,15,c)
);
},
{
closed = 1;
nodes = (
(152,698,o),
(189,785,o),
(279,785,c),
(134,785,l),
(134,607,l)
);
},
{
closed = 1;
nodes = (
(655,785,l),
(655,800,l),
(134,800,l),
(134,785,l)
);
}
);
width = 770;
},
{
anchors = (
{
name = bottom;
pos = (409,0);
},
{
name = center;
pos = (409,400);
},
{
name = top;
pos = (409,800);
}
);
hints = (
{
horizontal = 1;
place = (783,17);
type = Stem;
},
{
horizontal = 1;
place = (0,18);
type = Stem;
},
{
place = (40,617);
type = Stem;
}
);
layerId = m01;
shapes = (
{
closed = 1;
nodes = (
(270,0,l),
(717,800,l),
(546,800,l),
(100,0,l)
);
},
{
closed = 1;
nodes = (
(709,0,l),
(709,18,l),
(177,18,l),
(177,0,l)
);
},
{
closed = 1;
nodes = (
(709,18,l),
(709,221,l),
(686,117,o),
(645,18,o),
(538,18,c)
);
},
{
closed = 1;
nodes = (
(166,683,o),
(208,783,o),
(312,783,c),
(146,783,l),
(146,579,l)
);
},
{
closed = 1;
nodes = (
(694,783,l),
(694,800,l),
(146,800,l),
(146,783,l)
);
}
);
width = 817;
}
);
unicode = 90;
},
{
color = 4;
glyphname = A.001;
lastChange = "2026-06-16 00:37:54 +0000";
layers = (
{
anchors = (
{
name = bottom;
pos = (466,0);
},
{
name = ogonek;
pos = (791,10);
},
{
name = top;
pos = (466,800);
}
);
layerId = "E5DC9139-DBE8-45F6-BCD0-0641ED917C2C";
shapes = (
{
closed = 1;
nodes = (
(280,0,l),
(280,10,l),
(191,10,l),
(280,253,l),
(599,253,l),
(682,10,l),
(577,10,l),
(577,0,l),
(832,0,l),
(832,10,l),
(753,10,l),
(477,808,l),
(472,808,l),
(181,10,l),
(100,10,l),
(100,0,l)
);
},
{
closed = 1;
nodes = (
(445,704,l),
(596,263,l),
(284,263,l)
);
}
);
width = 932;
},
{
anchors = (
{
name = bottom;
pos = (466,0);
},
{
name = ogonek;
pos = (790,10);
},
{
name = top;
pos = (466,800);
}
);
layerId = "2F0BCB80-3430-4FA1-A4A3-7C385E8DAA98";
shapes = (
{
closed = 1;
nodes = (
(290,0,l),
(290,15,l),
(200,15,l),
(284,258,l),
(566,258,l),
(645,15,l),
(547,15,l),
(547,0,l),
(831,0,l),
(831,15,l),
(753,15,l),
(480,808,l),
(458,808,l),
(184,15,l),
(100,15,l),
(100,0,l)
);
},
{
closed = 1;
nodes = (
(427,674,l),
(561,273,l),
(289,273,l)
);
}
);
width = 931;
},
{
anchors = (
{
name = bottom;
pos = (469,0);
},
{
name = ogonek;
pos = (795,10);
},
{
name = top;
pos = (469,800);
}
);
hints = (
{
horizontal = 1;
place = (266,17);
type = Stem;
},
{
horizontal = 1;
place = (0,18);
type = Stem;
},
{
place = (40,737);
type = Stem;
}
);
layerId = m01;
shapes = (
{
closed = 1;
nodes = (
(305,0,l),
(305,18,l),
(211,18,l),
(290,266,l),
(542,266,l),
(617,18,l),
(519,18,l),
(519,0,l),
(837,0,l),
(837,18,l),
(759,18,l),
(489,808,l),
(446,808,l),
(192,18,l),
(100,18,l),
(100,0,l)
);
},
{
closed = 1;
nodes = (
(414,661,l),
(536,283,l),
(296,283,l)
);
}
);
width = 937;
}
);
},
{
color = 4;
glyphname = V.001;
lastChange = "2026-06-24 03:04:51 +0000";
layers = (
{
anchors = (
{
name = bottom;
pos = (436,0);
},
{
name = top;
pos = (436,800);
}
);
layerId = "E5DC9139-DBE8-45F6-BCD0-0641ED917C2C";
shapes = (
{
closed = 1;
nodes = (
(439,0,l),
(453,73,l),
(177,800,l),
(100,800,l),
(409,0,l)
);
},
{
attr = {
lineCapEnd = "4";
strokePos = "1";
strokeWidth = 10;
};
closed = 0;
nodes = (
(890,723,l),
(896,847,o),
(718,856,o),
(671,720,c),
(429,2,l)
);
},
{
attr = {
strokePos = "1";
};
closed = 1;
nodes = (
(860,667,o),
(888,690,o),
(890,723,cs),
(891,756,o),
(867,783,o),
(834,785,cs),
(802,787,o),
(775,761,o),
(773,729,cs),
(771,697,o),
(795,670,o),
(827,668,cs)
);
}
);
width = 990;
},
{
anchors = (
{
name = bottom;
pos = (495,0);
},
{
name = top;
pos = (495,800);
}
);
layerId = "2F0BCB80-3430-4FA1-A4A3-7C385E8DAA98";
shapes = (
{
closed = 1;
nodes = (
(449,0,l),
(482,125,l),
(217,800,l),
(100,800,l),
(416,0,l)
);
},
{
attr = {
lineCapEnd = 4;
strokePos = "1";
strokeWidth = 15;
};
closed = 0;
nodes = (
(890,723,l),
(896,847,o),
(718,856,o),
(671,720,c),
(439,2,l)
);
},
{
attr = {
strokePos = "1";
};
closed = 1;
nodes = (
(860,667,o),
(888,690,o),
(890,723,cs),
(891,756,o),
(867,783,o),
(834,785,cs),
(802,787,o),
(775,761,o),
(773,729,cs),
(771,697,o),
(795,670,o),
(827,668,cs)
);
}
);
width = 990;
},
{
anchors = (
{
name = bottom;
pos = (495,0);
},
{
name = top;
pos = (495,800);
}
);
hints = (
{
horizontal = 1;
place = (654,146);
type = Stem;
},
{
place = (30,147);
type = Stem;
}
);
layerId = m01;
shapes = (
{
closed = 1;
nodes = (
(469,0,l),
(508,155,l),
(257,800,l),
(100,800,l),
(426,0,l)
);
},
{
attr = {
lineCapEnd = 4;
strokePos = "1";
strokeWidth = 20;
};
closed = 0;
nodes = (
(890,723,l),
(896,847,o),
(718,856,o),
(671,720,c),
(450,3,l)
);
},
{
attr = {
strokePos = "1";
};
closed = 1;
nodes = (
(852,652,o),
(887,682,o),
(890,723,cs),
(891,764,o),
(861,799,o),
(819,801,cs),
(779,803,o),
(745,771,o),
(742,731,cs),
(740,690,o),
(770,656,o),
(811,654,cs)
);
}
);
width = 990;
}
);
metricLeft = "=100";
metricRight = "=100";
},
{
color = 4;
glyphname = A.ss01;
lastChange = "2026-06-24 03:38:00 +0000";
layers = (
{
anchors = (
{
name = bottom;
pos = (475,0);
},
{
name = ogonek;
pos = (854,10);
},
{
name = top;
pos = (475,800);
}
);
hints = (
{
name = _corner.leftserif;
origin = (0,16);
type = Corner;
},
{
name = _corner.leftserif;
options = 1;
origin = (0,0);
scale = (-1,1);
type = Corner;
},
{
name = _corner.leftserif;
origin = (0,3);
type = Corner;
},
{
name = _corner.leftserif;
options = 1;
origin = (0,4);
scale = (-1,1);
type = Corner;
}
);
layerId = "2F0BCB80-3430-4FA1-A4A3-7C385E8DAA98";
shapes = (
{
closed = 1;
nodes = (
(201,0,l),
(288,253,l),
(564,253,l),
(651,0,l),
(764,0,l),
(501,765,l),
(488,804,o),
(473,824,o),
(430,824,cs),
(410,824,o),
(386,814,o),
(366,783,c),
(370,773,l),
(392,803,o),
(470,828,o),
(442,743,c),
(185,0,l)
);
},
{
closed = 1;
nodes = (
(427,656,l),
(559,268,l),
(293,268,l)
);
}
);
width = 949;
},
{
anchors = (
{
name = bottom;
pos = (476,0);
},
{
name = ogonek;
pos = (857,10);
},
{
name = top;
pos = (476,800);
}
);
hints = (
{
name = _corner.leftserif;
origin = (0,3);
type = Corner;
},
{
name = _corner.leftserif;
options = 1;
origin = (0,4);
scale = (-1,1);
type = Corner;
},
{
name = _corner.leftserif;
origin = (0,16);
type = Corner;
},
{
name = _corner.leftserif;
options = 1;
origin = (0,0);
scale = (-1,1);
type = Corner;
}
);
layerId = "E5DC9139-DBE8-45F6-BCD0-0641ED917C2C";
shapes = (
{
closed = 1;
nodes = (
(196,0,l),
(289,253,l),
(608,253,l),
(694,0,l),
(765,0,l),
(498,772,l),
(486,807,o),
(473,827,o),
(435,824,cs),
(419,823,o),
(401,814,o),
(381,783,c),
(384,775,l),
(409,812,o),
(486,831,o),
(455,737,c),
(186,0,l)
);
},
{
closed = 1;
nodes = (
(454,704,l),
(605,263,l),
(293,263,l)
);
}
);
width = 952;
},
{
anchors = (
{
name = bottom;
pos = (472,0);
},
{
name = ogonek;
pos = (850,10);
},
{
name = top;
pos = (472,800);
}
);
hints = (
{
horizontal = 1;
place = (799,25);
type = Stem;
},
{
horizontal = 1;
place = (253,18);
type = Stem;
},
{
horizontal = 1;
place = (0,18);
type = Stem;
},
{
place = (40,180);
type = Stem;
},
{
name = _corner.leftserif;
options = 1;
origin = (0,4);
scale = (-1,1);
type = Corner;
},
{
name = _corner.leftserif;
origin = (0,3);
type = Corner;
},
{
name = _corner.leftserif;
origin = (0,16);
type = Corner;
},
{
name = _corner.leftserif;
options = 1;
origin = (0,0);
scale = (-1,1);
type = Corner;
}
);
layerId = m01;
shapes = (
{
closed = 1;
nodes = (
(201,0,l),
(281,253,l),
(518,253,l),
(604,0,l),
(762,0,l),
(503,756,ls),
(489,800,o),
(469,822,o),
(421,824,cs),
(398,825,o),
(372,814,o),
(352,783,c),
(358,770,l),
(375,793,o),
(446,825,o),
(428,760,c),
(182,0,l)
);
},
{
closed = 1;
nodes = (
(395,616,l),
(512,271,l),
(287,271,l)
);
}
);
width = 943;
}
);
metricLeft = "=100";
metricRight = "=100";
},
{
color = 4;
glyphname = B.ss01;
lastChange = "2026-06-24 02:35:28 +0000";
layers = (
{
anchors = (
{
name = bottom;
pos = (386,0);
},
{
name = center;
pos = (193,240);
},
{
name = top;
pos = (386,800);
}
);
hints = (
{
name = _corner.leftserif;
origin = (0,21);
type = Corner;
}
);
layerId = "E5DC9139-DBE8-45F6-BCD0-0641ED917C2C";
shapes = (
{
closed = 1;
nodes = (
(375,0,ls),
(526,0,o),
(671,33,o),
(671,218,cs),
(671,357,o),
(580,407,o),
(460,421,c),
(582,433,o),
(641,480,o),
(641,604,cs),
(641,775,o),
(496,800,o),
(375,800,cs),
(206,800,ls),
(173,800,o),
(143,790,o),
(123,759,c),
(127,749,l),
(149,780,o),
(190,797,o),
(190,714,c),
(190,0,l)
);
},
{
closed = 1;
nodes = (
(258,417,l),
(374,417,ls),
(466,417,o),
(583,374,o),
(586,218,cs),
(586,47,o),
(460,10,o),
(375,10,cs),
(258,10,l)
);
},
{
closed = 1;
nodes = (
(258,716,ls),
(258,754,o),
(250,777,o),
(237,789,c),
(375,789,ls),
(445,789,o),
(561,761,o),
(561,592,cs),
(558,468,o),
(466,425,o),
(374,425,cs),
(258,425,l)
);
}
);
width = 771;
},
{
anchors = (
{
name = bottom;
pos = (386,0);
},
{
name = center;
pos = (193,240);
},
{
name = top;
pos = (386,800);
}
);
hints = (
{
name = _corner.leftserif;
origin = (0,21);
type = Corner;
}
);
layerId = "2F0BCB80-3430-4FA1-A4A3-7C385E8DAA98";
shapes = (
{
closed = 1;
nodes = (
(375,0,ls),
(526,0,o),
(671,33,o),
(671,218,cs),
(671,349,o),
(590,403,o),
(480,421,c),
(589,437,o),
(641,487,o),
(641,604,cs),
(641,775,o),
(496,800,o),
(375,800,cs),
(216,800,ls),
(183,800,o),
(143,790,o),
(123,759,c),
(127,749,l),
(149,780,o),
(190,777,o),
(190,714,c),
(190,0,l)
);
},
{
closed = 1;
nodes = (
(288,415,l),
(374,415,ls),
(456,415,o),
(566,376,o),
(566,218,cs),
(566,42,o),
(447,15,o),
(375,15,cs),
(288,15,l)
);
},
{
closed = 1;
nodes = (
(288,716,ls),
(288,745,o),
(281,772,o),
(269,785,c),
(375,785,ls),
(415,785,o),
(541,767,o),
(541,592,cs),
(541,466,o),
(456,426,o),
(374,426,cs),
(288,426,l)
);
}
);
width = 771;
},
{
anchors = (
{
name = bottom;
pos = (385,0);
},
{
name = center;
pos = (192,240);
},
{
name = top;
pos = (385,800);
}
);
hints = (
{
horizontal = 1;
place = (784,16);
type = Stem;
},
{
horizontal = 1;
place = (766,34);
type = Stem;
},
{
horizontal = 1;
place = (413,14);
type = Stem;
},
{
horizontal = 1;
place = (0,18);
type = Stem;
},
{
place = (478,125);
type = Stem;
},
{
place = (453,120);
type = Stem;
},
{
place = (122,123);
type = Stem;
},
{
name = _corner.leftserif;
origin = (0,21);
type = Corner;
}
);
layerId = m01;
shapes = (
{
closed = 1;
nodes = (
(373,0,ls),
(524,0,o),
(669,33,o),
(669,218,cs),
(669,340,o),
(599,399,o),
(500,421,c),
(595,441,o),
(639,495,o),
(639,604,cs),
(639,775,o),
(494,800,o),
(373,800,cs),
(219,800,ls),
(186,800,o),
(141,790,o),
(121,759,c),
(125,749,l),
(147,780,o),
(188,767,o),
(188,714,c),
(188,0,l)
);
},
{
closed = 1;
nodes = (
(311,413,l),
(372,413,ls),
(439,413,o),
(549,380,o),
(544,218,cs),
(544,35,o),
(429,18,o),
(373,18,cs),
(311,18,l)
);
},
{
closed = 1;
nodes = (
(311,716,ls),
(311,737,o),
(304,770,o),
(292,784,c),
(373,784,ls),
(388,784,o),
(519,776,o),
(519,592,c),
(524,462,o),
(439,427,o),
(372,427,cs),
(311,427,l)
);
}
);
width = 769;
}
);
metricLeft = "=100";
metricRight = "=100";
},
{
color = 4;
glyphname = C.ss01;
lastChange = "2026-06-18 23:55:38 +0000";
layers = (
{
anchors = (
{
name = bottom;
pos = (428,0);
},
{
name = top;
pos = (428,800);
}
);
layerId = "E5DC9139-DBE8-45F6-BCD0-0641ED917C2C";
shapes = (
{
closed = 1;
nodes = (
(627,-6,o),
(746,87,o),
(745,220,c),
(735,220,l),
(735,93,o),
(620,4,o),
(457,4,cs),
(293,4,o),
(178,167,o),
(178,400,cs),
(178,633,o),
(293,796,o),
(457,796,cs),
(620,796,o),
(735,707,o),
(735,580,c),
(745,580,l),
(746,713,o),
(627,806,o),
(457,806,cs),
(247,806,o),
(100,638,o),
(100,400,cs),
(100,162,o),
(247,-6,o),
(457,-6,cs)
);
},
{
closed = 1;
nodes = (
(724,173,o),
(745,194,o),
(745,220,cs),
(745,246,o),
(724,268,o),
(698,268,cs),
(672,268,o),
(650,246,o),
(650,220,cs),
(650,194,o),
(672,173,o),
(698,173,cs)
);
},
{
closed = 1;
nodes = (
(724,533,o),
(745,554,o),
(745,580,cs),
(745,606,o),
(724,628,o),
(698,628,cs),
(672,628,o),
(650,606,o),
(650,580,cs),
(650,554,o),
(672,533,o),
(698,533,cs)
);
}
);
width = 845;
},
{
anchors = (
{
name = bottom;
pos = (438,0);
},
{
name = top;
pos = (438,800);
}
);
layerId = "2F0BCB80-3430-4FA1-A4A3-7C385E8DAA98";
shapes = (
{
closed = 1;
nodes = (
(637,-6,o),
(756,87,o),
(755,220,c),
(740,220,l),
(740,96,o),
(627,9,o),
(467,9,cs),
(327,9,o),
(228,170,o),
(228,400,cs),
(228,630,o),
(327,791,o),
(467,791,cs),
(627,791,o),
(740,704,o),
(740,580,c),
(755,580,l),
(756,713,o),
(637,806,o),
(467,806,cs),
(252,806,o),
(100,638,o),
(100,400,cs),
(100,162,o),
(252,-6,o),
(467,-6,cs)
);
},
{
closed = 1;
nodes = (
(729,161,o),
(755,187,o),
(755,220,cs),
(755,253,o),
(729,281,o),
(696,281,cs),
(663,281,o),
(635,253,o),
(635,220,cs),
(635,187,o),
(663,161,o),
(696,161,cs)
);
},
{
closed = 1;
nodes = (
(729,521,o),
(755,547,o),
(755,580,cs),
(755,613,o),
(729,641,o),
(696,641,cs),
(663,641,o),
(635,613,o),
(635,580,cs),
(635,547,o),
(663,521,o),
(696,521,cs)
);
}
);
width = 855;
},
{
anchors = (
{
name = bottom;
pos = (448,0);
},
{
name = top;
pos = (448,800);
}
);
hints = (
{
horizontal = 1;
place = (789,17);
type = Stem;
},
{
horizontal = 1;
place = (580,75);
type = Stem;
},
{
horizontal = 1;
place = (508,147);
type = Stem;
},
{
horizontal = 1;
place = (146,147);
type = Stem;
},
{
horizontal = 1;
place = (146,74);
type = Stem;
},
{
horizontal = 1;
place = (-6,18);
type = Stem;
},
{
place = (658,17);
type = Stem;
},
{
place = (40,148);
type = Stem;
}
);
layerId = m01;
shapes = (
{
closed = 1;
nodes = (
(647,-6,o),
(766,87,o),
(765,220,c),
(748,220,l),
(748,90,o),
(636,4,o),
(477,12,cs),
(354,18,o),
(268,178,o),
(268,400,cs),
(268,624,o),
(354,784,o),
(477,789,cs),
(636,796,o),
(748,709,o),
(748,580,c),
(765,580,l),
(766,713,o),
(647,806,o),
(477,806,cs),
(256,806,o),
(100,638,o),
(100,400,cs),
(100,162,o),
(256,-6,o),
(477,-6,cs)
);
},
{
closed = 1;
nodes = (
(734,146,o),
(765,178,o),
(765,218,cs),
(765,259,o),
(734,293,o),
(693,293,cs),
(653,293,o),
(619,259,o),
(619,218,cs),
(619,178,o),
(653,146,o),
(693,146,cs)
);
},
{
closed = 1;
nodes = (
(734,508,o),
(765,540,o),
(765,580,cs),
(765,621,o),
(734,655,o),
(693,655,cs),
(653,655,o),
(619,621,o),
(619,580,cs),
(619,540,o),
(653,508,o),
(693,508,cs)
);
}
);
width = 865;
}
);
metricLeft = "=100";
metricRight = "=100";
},
{
color = 4;
glyphname = E.ss01;
lastChange = "2026-06-24 02:37:49 +0000";
layers = (
{
anchors = (
{
name = bottom;
pos = (348,0);
},
{
name = ogonek;
pos = (626,10);
},
{
name = top;
pos = (348,800);
},
{
name = topleft;
pos = (20,800);
}
);
hints = (
{
name = _corner.leftserif;
origin = (0,3);
type = Corner;
},
{
name = _corner.leftserif;
options = 1;
origin = (0,2);
scale = (-1,1);
type = Corner;
}
);
layerId = "E5DC9139-DBE8-45F6-BCD0-0641ED917C2C";
shapes = (
{
closed = 1;
nodes = (
(258,0,l),
(258,800,l),
(190,800,l),
(190,0,l)
);
},
{
closed = 1;
nodes = (
(549,0,l),
(549,10,l),
(226,10,l),
(226,0,l)
);
},
{
closed = 1;
nodes = (
(575,0,o),
(596,21,o),
(596,47,cs),
(596,73,o),
(575,95,o),
(549,95,cs),
(523,95,o),
(501,73,o),
(501,47,cs),
(501,21,o),
(523,0,o),
(549,0,cs)
);
},
{
closed = 1;
nodes = (
(414,395,l),
(414,405,l),
(224,405,l),
(224,395,l)
);
},
{
closed = 1;
nodes = (
(549,790,l),
(549,800,l),
(224,800,l),
(224,790,l)
);
},
{
closed = 1;
nodes = (
(575,705,o),
(596,727,o),
(596,753,cs),
(596,779,o),
(575,800,o),
(549,800,cs),
(523,800,o),
(501,779,o),
(501,753,cs),
(501,727,o),
(523,705,o),
(549,705,cs)
);
}
);
width = 696;
},
{
anchors = (
{
name = bottom;
pos = (363,0);
},
{
name = ogonek;
pos = (653,10);
},
{
name = top;
pos = (363,800);
},
{
name = topleft;
pos = (20,800);
}
);
hints = (
{
name = _corner.leftserif;
options = 1;
origin = (0,2);
scale = (-1,1);
type = Corner;
},
{
name = _corner.leftserif;
origin = (0,3);
type = Corner;
}
);
layerId = "2F0BCB80-3430-4FA1-A4A3-7C385E8DAA98";
shapes = (
{
closed = 1;
nodes = (
(298,0,l),
(298,800,l),
(190,800,l),
(190,0,l)
);
},
{
closed = 1;
nodes = (
(566,0,l),
(566,15,l),
(218,15,l),
(218,0,l)
);
},
{
closed = 1;
nodes = (
(599,0,o),
(625,26,o),
(625,59,cs),
(625,92,o),
(599,120,o),
(566,120,cs),
(533,120,o),
(505,92,o),
(505,59,cs),
(505,26,o),
(533,0,o),
(566,0,cs)
);
},
{
closed = 1;
nodes = (
(474,395,l),
(474,410,l),
(254,410,l),
(254,395,l)
);
},
{
closed = 1;
nodes = (
(566,785,l),
(566,800,l),
(237,800,l),
(237,785,l)
);
},
{
closed = 1;
nodes = (
(599,680,o),
(625,708,o),
(625,741,cs),
(625,774,o),
(599,800,o),
(566,800,cs),
(533,800,o),
(505,774,o),
(505,741,cs),
(505,708,o),
(533,680,o),
(566,680,cs)
);
}
);
width = 725;
},
{
anchors = (
{
name = bottom;
pos = (361,0);
},
{
name = ogonek;
pos = (649,10);
},
{
name = top;
pos = (361,800);
},
{
name = topleft;
pos = (20,800);
}
);
hints = (
{
horizontal = 1;
place = (783,17);
type = Stem;
},
{
horizontal = 1;
place = (654,146);
type = Stem;
},
{
horizontal = 1;
place = (395,18);
type = Stem;
},
{
horizontal = 1;
place = (0,147);
type = Stem;
},
{
horizontal = 1;
place = (0,18);
type = Stem;
},
{
place = (391,146);
type = Stem;
},
{
place = (391,74);
type = Stem;
},
{
place = (213,39);
type = Stem;
},
{
place = (104,148);
type = Stem;
},
{
name = _corner.leftserif;
options = 1;
origin = (0,2);
scale = (-1,1);
type = Corner;
},
{
name = _corner.leftserif;
options = 2;
origin = (0,3);
type = Corner;
}
);
layerId = m01;
shapes = (
{
closed = 1;
nodes = (
(336,0,l),
(336,800,l),
(188,800,l),
(188,0,l)
);
},
{
closed = 1;
nodes = (
(549,0,l),
(549,18,l),
(251,18,l),
(251,0,l)
);
},
{
closed = 1;
nodes = (
(590,0,o),
(621,32,o),
(621,72,cs),
(621,113,o),
(590,147,o),
(549,147,cs),
(509,147,o),
(475,113,o),
(475,72,cs),
(475,32,o),
(509,0,o),
(549,0,cs)
);
},
{
closed = 1;
nodes = (
(517,395,l),
(517,413,l),
(297,413,l),
(297,395,l)
);
},
{
closed = 1;
nodes = (
(549,783,l),
(549,800,l),
(241,800,l),
(241,783,l)
);
},
{
closed = 1;
nodes = (
(590,654,o),
(621,688,o),
(621,728,cs),
(621,769,o),
(590,800,o),
(549,800,cs),
(509,800,o),
(475,769,o),
(475,728,cs),
(475,688,o),
(509,654,o),
(549,654,cs)
);
}
);
width = 721;
}
);
metricLeft = "=100";
metricRight = "=100";
},
{
color = 4;
glyphname = F.ss01;
lastChange = "2026-06-24 02:40:04 +0000";
layers = (
{
anchors = (
{
name = bottom;
pos = (348,0);
},
{
name = top;
pos = (348,800);
}
);
hints = (
{
name = _corner.leftserif;
options = 1;
origin = (0,2);
scale = (-1,1);
type = Corner;
}
);
layerId = "E5DC9139-DBE8-45F6-BCD0-0641ED917C2C";
shapes = (
{
closed = 1;
nodes = (
(258,0,l),
(258,800,l),
(190,800,l),
(190,0,l)
);
},
{
closed = 1;
nodes = (
(414,395,l),
(414,405,l),
(224,405,l),
(224,395,l)
);
},
{
closed = 1;
nodes = (
(414,405,l),
(414,425,o),
(398,441,o),
(379,441,cs),
(359,441,o),
(343,425,o),
(343,405,c)
);
},
{
closed = 1;
nodes = (
(549,790,l),
(549,800,l),
(224,800,l),
(224,790,l)
);
},
{
closed = 1;
nodes = (
(575,705,o),
(596,727,o),
(596,753,cs),
(596,779,o),
(575,800,o),
(549,800,cs),
(523,800,o),
(501,779,o),
(501,753,cs),
(501,727,o),
(523,705,o),
(549,705,cs)
);
}
);
width = 696;
},
{
anchors = (
{
name = bottom;
pos = (353,0);
},
{
name = top;
pos = (353,800);
}
);
hints = (
{
name = _corner.leftserif;
options = 1;
origin = (0,2);
scale = (-1,1);
type = Corner;
}
);
layerId = "2F0BCB80-3430-4FA1-A4A3-7C385E8DAA98";
shapes = (
{
closed = 1;
nodes = (
(298,0,l),
(298,800,l),
(190,800,l),
(190,0,l)
);
},
{
closed = 1;
nodes = (
(474,395,l),
(474,410,l),
(254,410,l),
(254,395,l)
);
},
{
closed = 1;
nodes = (
(474,410,l),
(474,432,o),
(457,450,o),
(435,450,cs),
(413,450,o),
(395,432,o),
(395,410,c)
);
},
{
closed = 1;
nodes = (
(546,785,l),
(546,800,l),
(226,800,l),
(226,785,l)
);
},
{
closed = 1;
nodes = (
(579,680,o),
(605,708,o),
(605,741,cs),
(605,774,o),
(579,800,o),
(546,800,cs),
(513,800,o),
(485,774,o),
(485,741,cs),
(485,708,o),
(513,680,o),
(546,680,cs)
);
}
);
width = 705;
},
{
anchors = (
{
name = bottom;
pos = (368,0);
},
{
name = top;
pos = (368,800);
}
);
hints = (
{
horizontal = 1;
place = (783,17);
type = Stem;
},
{
horizontal = 1;
place = (654,146);
type = Stem;
},
{
horizontal = 1;
place = (413,47);
type = Stem;
},
{
horizontal = 1;
place = (395,18);
type = Stem;
},
{
place = (391,146);
type = Stem;
},
{
place = (391,74);
type = Stem;
},
{
place = (341,92);
type = Stem;
},
{
place = (213,39);
type = Stem;
},
{
place = (104,148);
type = Stem;
},
{
name = _corner.leftserif;
options = 1;
origin = (0,2);
scale = (-1,1);
type = Corner;
}
);
layerId = m01;
shapes = (
{
closed = 1;
nodes = (
(336,0,l),
(336,800,l),
(188,800,l),
(188,0,l)
);
},
{
closed = 1;
nodes = (
(517,395,l),
(517,413,l),
(297,413,l),
(297,395,l)
);
},
{
closed = 1;
nodes = (
(517,413,l),
(517,439,o),
(497,460,o),
(472,460,cs),
(446,460,o),
(425,439,o),
(425,413,c)
);
},
{
closed = 1;
nodes = (
(549,783,l),
(549,800,l),
(235,800,l),
(235,783,l)
);
},
{
closed = 1;
nodes = (
(590,654,o),
(621,688,o),
(621,728,cs),
(621,769,o),
(590,800,o),
(549,800,cs),
(509,800,o),
(475,769,o),
(475,728,cs),
(475,688,o),
(509,654,o),
(549,654,cs)
);
}
);
width = 721;
}
);
metricLeft = "=100";
metricRight = "=100";
},
{
color = 4;
glyphname = G.ss01;
lastChange = "2026-06-16 00:37:54 +0000";
layers = (
{
anchors = (
{
name = bottom;
pos = (440,0);
},
{
name = top;
pos = (440,800);
}
);
layerId = "E5DC9139-DBE8-45F6-BCD0-0641ED917C2C";
shapes = (
{
closed = 1;
nodes = (
(612,-6,o),
(732,78,o),
(735,215,cs),
(735,310,l),
(780,310,l),
(780,320,l),
(593,320,l),
(593,310,l),
(668,310,l),
(668,178,ls),
(666,85,o),
(609,4,o),
(447,4,cs),
(249,4,o),
(168,229,o),
(168,400,cs),
(168,571,o),
(239,796,o),
(447,796,cs),
(595,796,o),
(705,724,o),
(722,612,c),
(714,622,o),
(702,628,o),
(688,628,cs),
(662,628,o),
(640,606,o),
(640,580,cs),
(640,554,o),
(662,533,o),
(688,533,cs),
(714,533,o),
(735,554,o),
(735,580,cs),
(736,714,o),
(614,806,o),
(447,806,cs),
(225,806,o),
(100,626,o),
(100,400,cs),
(100,174,o),
(225,-6,o),
(447,-6,cs)
);
}
);
width = 880;
},
{
anchors = (
{
name = bottom;
pos = (445,0);
},
{
name = top;
pos = (445,800);
}
);
layerId = "2F0BCB80-3430-4FA1-A4A3-7C385E8DAA98";
shapes = (
{
closed = 1;
nodes = (
(623,-6,o),
(742,72,o),
(745,215,cs),
(745,305,l),
(790,305,l),
(790,320,l),
(548,320,l),
(548,305,l),
(623,305,l),
(623,178,ls),
(623,73,o),
(583,9,o),
(447,9,cs),
(259,9,o),
(208,229,o),
(208,400,cs),
(208,571,o),
(259,791,o),
(447,791,cs),
(589,791,o),
(692,729,o),
(715,626,c),
(705,635,o),
(691,641,o),
(676,641,cs),
(643,641,o),
(615,613,o),
(615,580,cs),
(615,547,o),
(643,521,o),
(676,521,cs),
(709,521,o),
(735,547,o),
(735,580,cs),
(736,714,o),
(614,806,o),
(447,806,cs),
(225,806,o),
(100,626,o),
(100,400,cs),
(100,174,o),
(225,-6,o),
(447,-6,cs)
);
}
);
width = 890;
},
{
anchors = (
{
name = bottom;
pos = (452,0);
},
{
name = top;
pos = (452,800);
}
);
hints = (
{
horizontal = 1;
place = (789,17);
type = Stem;
},
{
horizontal = 1;
place = (508,147);
type = Stem;
},
{
horizontal = 1;
place = (303,17);
type = Stem;
},
{
horizontal = 1;
place = (-6,18);
type = Stem;
},
{
place = (651,24);
type = Stem;
},
{
place = (529,146);
type = Stem;
},
{
place = (514,184);
type = Stem;
},
{
place = (40,148);
type = Stem;
}
);
layerId = m01;
shapes = (
{
closed = 1;
nodes = (
(617,-6,o),
(752,56,o),
(758,215,cs),
(758,303,l),
(803,303,l),
(803,320,l),
(499,320,l),
(499,303,l),
(574,303,l),
(574,178,ls),
(578,53,o),
(525,12,o),
(447,12,cs),
(264,12,o),
(248,229,o),
(248,400,cs),
(248,571,o),
(269,789,o),
(447,789,cs),
(584,789,o),
(683,734,o),
(711,637,c),
(698,648,o),
(681,655,o),
(663,655,cs),
(623,655,o),
(589,621,o),
(589,580,cs),
(589,540,o),
(623,508,o),
(663,508,cs),
(704,508,o),
(735,540,o),
(735,580,cs),
(736,714,o),
(614,806,o),
(447,806,cs),
(225,806,o),
(100,626,o),
(100,400,cs),
(100,174,o),
(225,-6,o),
(447,-6,cs)
);
}
);
width = 903;
}
);
},
{
color = 4;
glyphname = J.ss01;
lastChange = "2026-06-24 02:41:38 +0000";
layers = (
{
anchors = (
{
name = bottom;
pos = (264,0);
},
{
name = top;
pos = (264,800);
}
);
layerId = "E5DC9139-DBE8-45F6-BCD0-0641ED917C2C";
shapes = (
{
closed = 1;
nodes = (
(362,-8,o),
(350,92,o),
(350,266,cs),
(350,710,l),
(282,710,l),
(282,212,ls),
(282,152,o),
(294,4,o),
(205,4,cs),
(140,4,o),
(116,47,o),
(113,52,cs),
(100,71,l),
(100,11,o),
(166,-8,o),
(205,-8,cs)
);
},
{
closed = 1;
nodes = (
(173,24,o),
(195,46,o),
(195,72,cs),
(195,98,o),
(173,119,o),
(147,119,cs),
(121,119,o),
(100,98,o),
(100,72,cs),
(100,46,o),
(121,24,o),
(147,24,cs)
);
},
{
closed = 1;
nodes = (
(350,702,l),
(350,720,ls),
(350,803,o),
(391,786,o),
(413,755,c),
(417,765,l),
(397,796,o),
(367,806,o),
(334,806,cs),
(303,806,o),
(282,783,o),
(282,722,cs),
(282,702,l)
);
}
);
width = 517;
},
{
anchors = (
{
name = bottom;
pos = (289,0);
},
{
name = top;
pos = (289,800);
}
);
layerId = "2F0BCB80-3430-4FA1-A4A3-7C385E8DAA98";
shapes = (
{
closed = 1;
nodes = (
(379,-9,o),
(390,91,o),
(390,265,cs),
(390,706,l),
(282,706,l),
(282,211,ls),
(282,151,o),
(280,6,o),
(204,6,cs),
(137,6,o),
(141,43,o),
(113,61,c),
(100,80,l),
(100,20,o),
(150,-9,o),
(225,-9,cs)
);
},
{
closed = 1;
nodes = (
(191,21,o),
(217,48,o),
(217,80,cs),
(217,112,o),
(191,138,o),
(159,138,cs),
(127,138,o),
(100,112,o),
(100,80,cs),
(100,48,o),
(127,21,o),
(159,21,cs)
);
},
{
closed = 1;
nodes = (
(390,702,l),
(390,720,ls),
(390,793,o),
(431,786,o),
(453,755,c),
(457,765,l),
(437,796,o),
(397,806,o),
(354,806,cs),
(313,806,o),
(282,783,o),
(282,722,cs),
(282,702,l)
);
}
);
width = 557;
},
{
anchors = (
{
name = bottom;
pos = (321,0);
},
{
name = top;
pos = (321,800);
}
);
hints = (
{
horizontal = 1;
place = (779,28);
type = Stem;
},
{
horizontal = 1;
place = (703,104);
type = Stem;
},
{
horizontal = 1;
place = (23,139);
type = Stem;
},
{
horizontal = 1;
place = (-10,16);
type = Stem;
},
{
place = (172,148);
type = Stem;
},
{
place = (-20,139);
type = Stem;
}
);
layerId = m01;
shapes = (
{
closed = 1;
nodes = (
(405,-10,o),
(440,90,o),
(440,264,cs),
(440,704,l),
(292,704,l),
(292,210,ls),
(292,150,o),
(292,10,o),
(203,10,cs),
(128,10,o),
(169,36,o),
(104,75,c),
(100,94,l),
(100,34,o),
(126,-10,o),
(255,-10,cs)
);
},
{
closed = 1;
nodes = (
(209,23,o),
(239,55,o),
(239,93,cs),
(239,131,o),
(209,162,o),
(171,162,cs),
(133,162,o),
(100,131,o),
(100,93,cs),
(100,55,o),
(134,23,o),
(171,23,cs)
);
},
{
closed = 1;
nodes = (
(440,703,l),
(440,721,ls),
(440,799,o),
(481,787,o),
(503,756,c),
(507,766,l),
(487,797,o),
(442,807,o),
(384,807,cs),
(338,807,o),
(292,784,o),
(292,723,cs),
(292,703,l)
);
}
);
width = 607;
}
);
},
{
color = 4;
glyphname = K.ss01;
lastChange = "2026-06-24 03:38:00 +0000";
layers = (
{
anchors = (
{
name = bottom;
pos = (423,0);
},
{
name = top;
pos = (423,800);
}
);
hints = (
{
name = _corner.leftserif;
origin = (1,3);
type = Corner;
},
{
name = _corner.leftserif;
options = 1;
origin = (1,0);
scale = (-1,1);
type = Corner;
},
{
name = _corner.leftserif;
origin = (0,3);
type = Corner;
},
{
name = _corner.leftserif;
options = 1;
origin = (0,0);
scale = (-1,1);
type = Corner;
}
);
layerId = "E5DC9139-DBE8-45F6-BCD0-0641ED917C2C";
shapes = (
{
closed = 1;
nodes = (
(662,0,l),
(369,515,l),
(327,452,l),
(583,0,l)
);
},
{
closed = 1;
nodes = (
(258,0,l),
(258,709,l),
(190,709,l),
(190,0,l)
);
},
{
pos = (83,301);
ref = "light-top-term";
},
{
attr = {
strokePos = "1";
strokeWidth = 10;
};
closed = 0;
nodes = (
(686,677,l),
(735,793,o),
(585,858,o),
(502,737,c),
(233,319,l)
);
},
{
attr = {
strokePos = "1";
};
closed = 1;
nodes = (
(648,642,o),
(676,654,o),
(686,678,c),
(695,704,o),
(683,732,o),
(657,742,c),
(632,752,o),
(605,739,o),
(595,713,c),
(585,688,o),
(597,662,o),
(623,651,c)
);
}
);
width = 846;
},
{
anchors = (
{
name = bottom;
pos = (454,0);
},
{
name = top;
pos = (454,800);
}
);
hints = (
{
name = _corner.leftserif;
origin = (1,3);
type = Corner;
},
{
name = _corner.leftserif;
options = 1;
origin = (1,0);
scale = (-1,1);
type = Corner;
},
{
name = _corner.leftserif;
origin = (0,3);
type = Corner;
},
{
name = _corner.leftserif;
options = 1;
origin = (0,0);
scale = (-1,1);
type = Corner;
}
);
layerId = "2F0BCB80-3430-4FA1-A4A3-7C385E8DAA98";
shapes = (
{
closed = 1;
nodes = (
(726,0,l),
(410,527,l),
(342,426,l),
(601,0,l)
);
},
{
closed = 1;
nodes = (
(298,0,l),
(298,709,l),
(190,709,l),
(190,0,l)
);
},
{
pos = (83,301);
ref = "light-top-term";
},
{
attr = {
strokePos = "1";
strokeWidth = 15;
};
closed = 0;
nodes = (
(738,667,l),
(782,783,o),
(612,853,o),
(529,732,c),
(260,314,l)
);
},
{
attr = {
strokePos = "1";
};
closed = 1;
nodes = (
(690,622,o),
(726,637,o),
(738,668,c),
(750,701,o),
(735,736,o),
(702,749,c),
(670,762,o),
(635,745,o),
(623,713,c),
(610,681,o),
(625,647,o),
(658,634,c)
);
}
);
width = 907;
},
{
anchors = (
{
name = bottom;
pos = (484,0);
},
{
name = top;
pos = (484,800);
}
);
hints = (
{
horizontal = 1;
place = (783,17);
type = Stem;
},
{
horizontal = 1;
place = (770,34);
type = Stem;
},
{
horizontal = 1;
place = (700,7);
type = Stem;
},
{
horizontal = 1;
place = (0,18);
type = Stem;
},
{
place = (95,148);
type = Stem;
},
{
name = _corner.leftserif;
origin = (1,3);
type = Corner;
},
{
name = _corner.leftserif;
options = 1;
origin = (1,0);
scale = (-1,1);
type = Corner;
},
{
name = _corner.leftserif;
options = 1;
origin = (0,0);
scale = (-1,1);
type = Corner;
},
{
name = _corner.leftserif;
origin = (0,3);
type = Corner;
}
);
layerId = m01;
shapes = (
{
closed = 1;
nodes = (
(794,0,l),
(451,537,l),
(350,414,l),
(618,0,l)
);
},
{
closed = 1;
nodes = (
(336,0,l),
(336,707,l),
(188,707,l),
(188,0,l)
);
},
{
pos = (84,300);
ref = "light-top-term";
},
{
attr = {
strokePos = "1";
strokeWidth = 20;
};
closed = 0;
nodes = (
(809,674,l),
(853,790,o),
(687,854,o),
(600,739,c),
(301,368,l)
);
},
{
attr = {
strokePos = "1";
};
closed = 1;
nodes = (
(751,618,o),
(794,636,o),
(809,674,cs),
(823,713,o),
(805,755,o),
(766,770,cs),
(728,785,o),
(686,765,o),
(671,727,cs),
(656,689,o),
(674,648,o),
(713,633,cs)
);
}
);
width = 969;
}
);
metricLeft = "=100";
metricRight = "=100";
},
{
color = 4;
glyphname = L.ss01;
lastChange = "2026-06-16 00:37:54 +0000";
layers = (
{
anchors = (
{
name = bottom;
pos = (318,0);
},
{
name = center;
pos = (318,400);
},
{
name = top;
pos = (318,800);
},
{
name = topright;
pos = (565,800);
}
);
layerId = "E5DC9139-DBE8-45F6-BCD0-0641ED917C2C";
shapes = (
{
closed = 1;
nodes = (
(235,0,l),
(235,702,l),
(167,702,l),
(167,0,l)
);
},
{
closed = 1;
nodes = (
(498,0,l),
(498,10,l),
(167,10,l),
(167,0,l)
);
},
{
closed = 1;
nodes = (
(524,0,o),
(545,21,o),
(545,47,cs),
(545,73,o),
(524,95,o),
(498,95,cs),
(472,95,o),
(450,73,o),
(450,47,cs),
(450,21,o),
(472,0,o),
(498,0,cs)
);
},
{
closed = 1;
nodes = (
(235,701,l),
(235,721,ls),
(235,782,o),
(217,805,o),
(183,805,cs),
(150,805,o),
(120,795,o),
(100,764,c),
(104,754,l),
(126,785,o),
(167,802,o),
(167,719,cs),
(167,701,l)
);
}
);
width = 645;
},
{
anchors = (
{
name = bottom;
pos = (336,0);
},
{
name = center;
pos = (336,400);
},
{
name = top;
pos = (336,800);
},
{
name = topright;
pos = (600,800);
}
);
layerId = "2F0BCB80-3430-4FA1-A4A3-7C385E8DAA98";
shapes = (
{
closed = 1;
nodes = (
(275,0,l),
(275,708,l),
(167,708,l),
(167,0,l)
);
},
{
closed = 1;
nodes = (
(521,0,l),
(521,15,l),
(190,15,l),
(190,0,l)
);
},
{
closed = 1;
nodes = (
(554,0,o),
(580,26,o),
(580,59,cs),
(580,92,o),
(554,120,o),
(521,120,cs),
(488,120,o),
(460,92,o),
(460,59,cs),
(460,26,o),
(488,0,o),
(521,0,cs)
);
},
{
closed = 1;
nodes = (
(275,699,l),
(275,719,ls),
(275,780,o),
(244,803,o),
(203,803,cs),
(170,803,o),
(120,793,o),
(100,762,c),
(104,752,l),
(126,783,o),
(167,781,o),
(167,717,cs),
(167,699,l)
);
}
);
width = 680;
},
{
anchors = (
{
name = bottom;
pos = (357,0);
},
{
name = center;
pos = (357,400);
},
{
name = top;
pos = (357,800);
},
{
name = topright;
pos = (638,800);
}
);
hints = (
{
horizontal = 1;
place = (763,38);
type = Stem;
},
{
horizontal = 1;
place = (697,104);
type = Stem;
},
{
horizontal = 1;
place = (697,18);
type = Stem;
},
{
horizontal = 1;
place = (0,147);
type = Stem;
},
{
horizontal = 1;
place = (0,18);
type = Stem;
},
{
place = (416,147);
type = Stem;
},
{
place = (416,75);
type = Stem;
},
{
place = (170,90);
type = Stem;
},
{
place = (112,148);
type = Stem;
}
);
layerId = m01;
shapes = (
{
closed = 1;
nodes = (
(315,0,l),
(315,715,l),
(167,715,l),
(167,0,l)
);
},
{
closed = 1;
nodes = (
(546,0,l),
(546,18,l),
(225,18,l),
(225,0,l)
);
},
{
closed = 1;
nodes = (
(586,0,o),
(618,32,o),
(618,72,cs),
(618,113,o),
(586,147,o),
(546,147,cs),
(505,147,o),
(471,113,o),
(471,72,cs),
(471,32,o),
(505,0,o),
(546,0,cs)
);
},
{
closed = 1;
nodes = (
(315,697,l),
(315,717,ls),
(315,778,o),
(268,801,o),
(223,801,cs),
(190,801,o),
(120,791,o),
(100,760,c),
(105,747,l),
(116,775,o),
(167,766,o),
(167,715,cs),
(167,697,l)
);
}
);
width = 718;
}
);
},
{
color = 4;
glyphname = M.ss01;
lastChange = "2026-06-16 00:37:54 +0000";
layers = (
{
anchors = (
{
name = bottom;
pos = (449,0);
},
{
name = top;
pos = (449,800);
}
);
layerId = "E5DC9139-DBE8-45F6-BCD0-0641ED917C2C";
shapes = (
{
closed = 1;
nodes = (
(110,0,ls),
(136,0,o),
(158,21,o),
(158,47,cs),
(158,73,o),
(136,95,o),
(110,95,c),
(110,789,l),
(415,0,l),
(446,0,l),
(729,789,l),
(729,0,l),
(797,0,l),
(797,800,l),
(723,800,l),
(459,68,l),
(179,800,l),
(100,800,l),
(100,0,l)
);
}
);
width = 897;
},
{
anchors = (
{
name = bottom;
pos = (485,0);
},
{
name = top;
pos = (485,800);
}
);
layerId = "2F0BCB80-3430-4FA1-A4A3-7C385E8DAA98";
shapes = (
{
closed = 1;
nodes = (
(115,0,ls),
(148,0,o),
(174,26,o),
(174,59,cs),
(174,92,o),
(148,120,o),
(115,120,c),
(115,784,l),
(428,0,l),
(466,0,l),
(761,785,l),
(761,2,l),
(869,2,l),
(869,800,l),
(751,800,l),
(495,120,l),
(224,800,l),
(100,800,l),
(100,0,l)
);
}
);
width = 969;
},
{
anchors = (
{
name = bottom;
pos = (523,0);
},
{
name = top;
pos = (523,800);
}
);
hints = (
{
horizontal = 1;
place = (784,16);
type = Stem;
},
{
horizontal = 1;
place = (779,21);
type = Stem;
},
{
horizontal = 1;
place = (0,147);
type = Stem;
},
{
place = (738,148);
type = Stem;
},
{
place = (40,18);
type = Stem;
}
);
layerId = m01;
shapes = (
{
closed = 1;
nodes = (
(118,0,ls),
(158,0,o),
(187,32,o),
(187,72,cs),
(187,113,o),
(158,147,o),
(118,147,c),
(118,779,l),
(444,0,l),
(487,0,l),
(798,784,l),
(798,3,l),
(946,3,l),
(946,800,l),
(786,800,l),
(534,170,l),
(267,800,l),
(100,800,l),
(100,0,l)
);
}
);
width = 1046;
}
);
},
{
color = 4;
glyphname = N.ss01;
lastChange = "2026-06-16 00:37:54 +0000";
layers = (
{
anchors = (
{
name = bottom;
pos = (359,0);
},
{
name = top;
pos = (359,800);
}
);
layerId = "E5DC9139-DBE8-45F6-BCD0-0641ED917C2C";
shapes = (
{
closed = 1;
nodes = (
(110,-5,ls),
(136,-5,o),
(158,16,o),
(158,42,cs),
(158,68,o),
(136,90,o),
(110,90,c),
(110,790,l),
(600,0,l),
(617,0,l),
(617,805,l),
(607,805,ls),
(581,805,o),
(559,783,o),
(559,757,cs),
(559,731,o),
(581,710,o),
(607,710,c),
(607,114,l),
(184,800,l),
(100,800,l),
(100,-5,l)
);
}
);
width = 717;
},
{
anchors = (
{
name = bottom;
pos = (377,0);
},
{
name = top;
pos = (377,800);
}
);
layerId = "2F0BCB80-3430-4FA1-A4A3-7C385E8DAA98";
shapes = (
{
closed = 1;
nodes = (
(115,-5,ls),
(148,-5,o),
(174,21,o),
(174,54,cs),
(174,87,o),
(148,115,o),
(115,115,c),
(115,785,l),
(626,0,l),
(653,0,l),
(653,805,l),
(638,805,ls),
(605,805,o),
(579,777,o),
(579,744,cs),
(579,711,o),
(605,685,o),
(638,685,c),
(638,172,l),
(234,800,l),
(100,800,l),
(100,-5,l)
);
}
);
width = 753;
},
{
anchors = (
{
name = bottom;
pos = (392,0);
},
{
name = top;
pos = (392,800);
}
);
hints = (
{
horizontal = 1;
place = (784,16);
type = Stem;
},
{
horizontal = 1;
place = (659,146);
type = Stem;
},
{
horizontal = 1;
place = (-5,147);
type = Stem;
},
{
place = (607,17);
type = Stem;
},
{
place = (40,18);
type = Stem;
}
);
layerId = m01;
shapes = (
{
closed = 1;
nodes = (
(118,-5,ls),
(158,-5,o),
(187,27,o),
(187,67,cs),
(187,108,o),
(158,142,o),
(118,142,c),
(118,784,l),
(650,0,l),
(684,0,l),
(684,805,l),
(667,805,ls),
(626,805,o),
(597,771,o),
(597,731,cs),
(597,690,o),
(626,659,o),
(667,659,c),
(667,232,l),
(284,800,l),
(100,800,l),
(100,-5,l)
);
}
);
width = 784;
}
);
},
{
color = 4;
glyphname = P.ss01;
lastChange = "2026-06-17 02:22:42 +0000";
layers = (
{
anchors = (
{
name = bottom;
pos = (362,0);
},
{
name = top;
pos = (362,800);
}
);
hints = (
{
name = _corner.leftserif;
options = 1;
origin = (1,0);
scale = (-1,1);
type = Corner;
},
{
name = _corner.leftserif;
origin = (1,3);
type = Corner;
}
);
layerId = "E5DC9139-DBE8-45F6-BCD0-0641ED917C2C";
shapes = (
{
closed = 1;
nodes = (
(348,375,ls),
(498,375,o),
(634,412,o),
(634,582,cs),
(634,767,o),
(489,800,o),
(348,800,cs),
(191,800,l),
(191,790,l),
(348,790,ls),
(423,790,o),
(549,753,o),
(549,582,cs),
(546,426,o),
(429,383,o),
(347,383,cs),
(221,383,l),
(221,375,l)
);
},
{
closed = 1;
nodes = (
(243,0,l),
(243,702,l),
(175,702,l),
(175,0,l)
);
},
{
closed = 1;
nodes = (
(243,696,l),
(243,716,ls),
(243,777,o),
(222,800,o),
(191,800,cs),
(158,800,o),
(128,790,o),
(108,759,c),
(112,749,l),
(134,780,o),
(175,797,o),
(175,714,cs),
(175,696,l)
);
}
);
width = 734;
},
{
anchors = (
{
name = bottom;
pos = (378,0);
},
{
name = top;
pos = (378,800);
}
);
hints = (
{
name = _corner.leftserif;
options = 1;
origin = (1,0);
scale = (-1,1);
type = Corner;
},
{
name = _corner.leftserif;
origin = (1,3);
type = Corner;
}
);
layerId = "2F0BCB80-3430-4FA1-A4A3-7C385E8DAA98";
shapes = (
{
closed = 1;
nodes = (
(380,372,ls),
(540,372,o),
(671,412,o),
(671,582,cs),
(671,767,o),
(531,800,o),
(380,800,cs),
(216,800,l),
(216,785,l),
(380,785,ls),
(452,785,o),
(571,758,o),
(571,582,cs),
(568,424,o),
(461,384,o),
(379,384,cs),
(263,384,l),
(263,372,l)
);
},
{
closed = 1;
nodes = (
(288,0,l),
(288,705,l),
(180,705,l),
(180,0,l)
);
},
{
closed = 1;
nodes = (
(288,696,l),
(288,716,ls),
(288,777,o),
(257,800,o),
(216,800,cs),
(183,800,o),
(133,790,o),
(113,759,c),
(117,749,l),
(139,780,o),
(180,778,o),
(180,714,cs),
(180,696,l)
);
}
);
width = 771;
},
{
anchors = (
{
name = bottom;
pos = (387,0);
},
{
name = top;
pos = (387,800);
}
);
hints = (
{
horizontal = 1;
place = (783,17);
type = Stem;
},
{
horizontal = 1;
place = (766,34);
type = Stem;
},
{
horizontal = 1;
place = (696,15);
type = Stem;
},
{
horizontal = 1;
place = (369,16);
type = Stem;
},
{
horizontal = 1;
place = (0,18);
type = Stem;
},
{
place = (542,117);
type = Stem;
},
{
place = (265,28);
type = Stem;
},
{
place = (201,92);
type = Stem;
},
{
place = (145,148);
type = Stem;
},
{
name = _corner.leftserif;
options = 1;
origin = (1,0);
scale = (-1,1);
type = Corner;
},
{
name = _corner.leftserif;
origin = (1,3);
type = Corner;
}
);
layerId = m01;
shapes = (
{
closed = 1;
nodes = (
(403,369,ls),
(568,369,o),
(696,412,o),
(696,582,cs),
(696,767,o),
(559,800,o),
(403,800,cs),
(238,800,l),
(238,783,l),
(403,783,ls),
(463,783,o),
(579,766,o),
(579,582,cs),
(576,421,o),
(474,385,o),
(402,385,cs),
(302,385,l),
(302,369,l)
);
},
{
closed = 1;
nodes = (
(330,0,l),
(330,700,l),
(182,700,l),
(182,0,l)
);
},
{
closed = 1;
nodes = (
(330,696,l),
(330,716,ls),
(330,777,o),
(284,800,o),
(238,800,cs),
(205,800,o),
(135,790,o),
(115,759,c),
(119,749,l),
(141,780,o),
(182,770,o),
(182,714,cs),
(182,696,l)
);
}
);
width = 796;
}
);
},
{
color = 4;
glyphname = Q.ss01;
lastChange = "2026-06-16 00:37:54 +0000";
layers = (
{
anchors = (
{
name = bottom;
pos = (448,0);
},
{
name = top;
pos = (448,800);
}
);
layerId = "E5DC9139-DBE8-45F6-BCD0-0641ED917C2C";
shapes = (
{
closed = 1;
nodes = (
(491,-189,o),
(512,-168,o),
(512,-142,cs),
(512,-116,o),
(491,-94,o),
(465,-94,cs),
(443,-94,o),
(425,-109,o),
(419,-129,c),
(413,-92,o),
(426,-43,o),
(453,-7,c),
(672,-4,o),
(795,175,o),
(795,396,cs),
(795,619,o),
(670,799,o),
(447,799,cs),
(225,799,o),
(100,619,o),
(100,396,cs),
(100,175,o),
(223,-4,o),
(442,-7,c),
(407,-60,o),
(398,-134,o),
(426,-170,cs),
(435,-181,o),
(449,-189,o),
(465,-189,cs)
);
},
{
closed = 1;
nodes = (
(249,3,o),
(168,208,o),
(168,396,cs),
(168,584,o),
(249,789,o),
(447,789,cs),
(646,789,o),
(727,584,o),
(727,396,cs),
(727,208,o),
(646,3,o),
(447,3,cs)
);
}
);
width = 895;
},
{
anchors = (
{
name = bottom;
pos = (448,0);
},
{
name = top;
pos = (448,800);
}
);
layerId = "2F0BCB80-3430-4FA1-A4A3-7C385E8DAA98";
shapes = (
{
closed = 1;
nodes = (
(512,-189,o),
(538,-163,o),
(538,-131,cs),
(538,-99,o),
(512,-72,o),
(480,-72,cs),
(456,-72,o),
(436,-87,o),
(426,-107,c),
(425,-76,o),
(435,-38,o),
(455,-7,c),
(673,-3,o),
(795,175,o),
(795,396,cs),
(795,619,o),
(670,799,o),
(448,799,cs),
(225,799,o),
(100,619,o),
(100,396,cs),
(100,176,o),
(222,-3,o),
(440,-7,c),
(410,-58,o),
(404,-124,o),
(430,-161,cs),
(440,-178,o),
(459,-189,o),
(480,-189,cs)
);
},
{
closed = 1;
nodes = (
(297,8,o),
(208,208,o),
(208,396,cs),
(208,584,o),
(297,784,o),
(448,784,cs),
(599,784,o),
(687,584,o),
(687,396,cs),
(687,208,o),
(599,8,o),
(448,8,cs)
);
}
);
width = 895;
},
{
anchors = (
{
name = bottom;
pos = (447,0);
},
{
name = top;
pos = (447,800);
}
);
hints = (
{
horizontal = 1;
place = (782,17);
type = Stem;
},
{
horizontal = 1;
place = (-7,18);
type = Stem;
},
{
horizontal = 1;
place = (-189,140);
type = Stem;
},
{
place = (587,147);
type = Stem;
},
{
place = (362,16);
type = Stem;
},
{
place = (40,148);
type = Stem;
}
);
layerId = m01;
shapes = (
{
closed = 1;
nodes = (
(543,-189,o),
(574,-157,o),
(574,-119,cs),
(574,-81,o),
(543,-49,o),
(505,-49,cs),
(475,-49,o),
(450,-69,o),
(438,-94,c),
(438,-68,o),
(444,-36,o),
(457,-7,c),
(673,-2,o),
(794,175,o),
(794,396,cs),
(794,619,o),
(669,799,o),
(450,799,cs),
(225,799,o),
(100,619,o),
(100,396,cs),
(100,177,o),
(221,-3,o),
(441,-7,c),
(413,-64,o),
(414,-129,o),
(450,-164,c),
(464,-181,o),
(483,-189,o),
(505,-189,cs)
);
},
{
closed = 1;
nodes = (
(333,11,o),
(248,208,o),
(248,396,cs),
(248,584,o),
(333,782,o),
(450,782,cs),
(545,782,o),
(647,584,o),
(647,396,cs),
(647,208,o),
(535,11,o),
(450,11,cs)
);
}
);
width = 894;
}
);
},
{
color = 4;
glyphname = R.ss01;
lastChange = "2026-06-17 02:21:44 +0000";
layers = (
{
anchors = (
{
name = bottom;
pos = (421,0);
},
{
name = top;
pos = (421,800);
}
);
hints = (
{
name = _corner.leftserif;
options = 1;
origin = (1,0);
scale = (-1,1);
type = Corner;
},
{
name = _corner.leftserif;
origin = (1,3);
type = Corner;
}
);
layerId = "E5DC9139-DBE8-45F6-BCD0-0641ED917C2C";
shapes = (
{
closed = 1;
nodes = (
(348,395,ls),
(498,395,o),
(634,422,o),
(634,602,cs),
(634,777,o),
(489,800,o),
(348,800,cs),
(192,800,l),
(192,790,l),
(348,790,ls),
(423,790,o),
(549,753,o),
(549,602,cs),
(546,446,o),
(429,403,o),
(347,403,cs),
(221,403,l),
(221,395,l)
);
},
{
closed = 1;
nodes = (
(243,0,l),
(243,702,l),
(175,702,l),
(175,0,l)
);
},
{
closed = 1;
nodes = (
(748,18,l),
(688,-6,o),
(646,20,o),
(633,75,cs),
(617,144,o),
(638,236,o),
(609,300,cs),
(580,367,o),
(514,395,o),
(422,402,cs),
(391,405,o),
(374,403,o),
(347,403,c),
(342,395,l),
(422,396,o),
(526,392,o),
(539,237,cs),
(542,202,o),
(543,105,o),
(566,54,cs),
(602,-25,o),
(698,-23,o),
(751,13,c)
);
},
{
closed = 1;
nodes = (
(243,696,l),
(243,716,ls),
(243,777,o),
(222,800,o),
(191,800,cs),
(158,800,o),
(128,790,o),
(108,759,c),
(112,749,l),
(134,780,o),
(175,797,o),
(175,714,cs),
(175,696,l)
);
}
);
width = 851;
},
{
anchors = (
{
name = bottom;
pos = (450,0);
},
{
name = top;
pos = (450,800);
}
);
hints = (
{
name = _corner.leftserif;
options = 1;
origin = (1,0);
scale = (-1,1);
type = Corner;
},
{
name = _corner.leftserif;
origin = (1,3);
type = Corner;
}
);
layerId = "2F0BCB80-3430-4FA1-A4A3-7C385E8DAA98";
shapes = (
{
closed = 1;
nodes = (
(385,394,ls),
(545,394,o),
(676,422,o),
(676,592,cs),
(676,782,o),
(536,800,o),
(385,800,cs),
(212,800,l),
(212,785,l),
(385,785,ls),
(457,785,o),
(576,763,o),
(576,592,cs),
(573,441,o),
(466,404,o),
(384,404,cs),
(268,404,l),
(268,394,l)
);
},
{
closed = 1;
nodes = (
(283,1,l),
(283,701,l),
(175,701,l),
(175,1,l)
);
},
{
closed = 1;
nodes = (
(786,25,l),
(726,1,o),
(691,31,o),
(682,75,cs),
(669,144,o),
(687,236,o),
(658,300,cs),
(629,367,o),
(553,395,o),
(461,402,cs),
(430,405,o),
(413,404,o),
(386,404,c),
(381,394,l),
(461,395,o),
(545,392,o),
(558,237,cs),
(561,202,o),
(562,105,o),
(585,54,cs),
(620,-23,o),
(737,-23,o),
(790,13,c)
);
},
{
closed = 1;
nodes = (
(283,696,l),
(283,716,ls),
(283,777,o),
(252,800,o),
(211,800,cs),
(178,800,o),
(128,790,o),
(108,759,c),
(112,749,l),
(134,780,o),
(175,771,o),
(175,714,cs),
(175,696,l)
);
}
);
width = 890;
},
{
anchors = (
{
name = bottom;
pos = (482,0);
},
{
name = top;
pos = (482,800);
}
);
hints = (
{
horizontal = 1;
place = (783,17);
type = Stem;
},
{
horizontal = 1;
place = (762,38);
type = Stem;
},
{
horizontal = 1;
place = (696,15);
type = Stem;
},
{
horizontal = 1;
place = (394,11);
type = Stem;
},
{
horizontal = 1;
place = (0,18);
type = Stem;
},
{
horizontal = 1;
place = (-9,35);
type = Stem;
},
{
place = (517,117);
type = Stem;
},
{
place = (153,90);
type = Stem;
},
{
place = (95,148);
type = Stem;
},
{
name = _corner.leftserif;
options = 1;
origin = (1,0);
scale = (-1,1);
type = Corner;
},
{
name = _corner.leftserif;
origin = (1,3);
type = Corner;
}
);
layerId = m01;
shapes = (
{
closed = 1;
nodes = (
(416,394,ls),
(581,394,o),
(709,392,o),
(709,587,cs),
(709,800,o),
(572,800,o),
(416,800,cs),
(228,800,l),
(228,783,l),
(416,783,ls),
(476,783,o),
(592,768,o),
(592,587,cs),
(589,424,o),
(487,405,o),
(415,405,cs),
(315,405,l),
(315,394,l)
);
},
{
closed = 1;
nodes = (
(318,0,l),
(318,698,l),
(170,698,l),
(170,0,l)
);
},
{
closed = 1;
nodes = (
(819,33,l),
(759,9,o),
(737,48,o),
(731,75,cs),
(719,144,o),
(736,236,o),
(707,300,cs),
(678,367,o),
(587,395,o),
(495,402,cs),
(464,405,o),
(447,405,o),
(420,405,c),
(415,394,l),
(495,395,o),
(559,392,o),
(572,237,cs),
(575,202,o),
(576,105,o),
(599,54,cs),
(632,-20,o),
(771,-23,o),
(824,13,c)
);
},
{
closed = 1;
nodes = (
(318,696,l),
(318,716,ls),
(318,777,o),
(272,800,o),
(226,800,cs),
(193,800,o),
(123,790,o),
(103,759,c),
(107,749,l),
(129,780,o),
(170,752,o),
(170,714,cs),
(170,696,l)
);
}
);
width = 924;
}
);
},
{
color = 4;
glyphname = S.ss01;
lastChange = "2026-06-16 00:37:54 +0000";
layers = (
{
anchors = (
{
name = bottom;
pos = (371,0);
},
{
name = top;
pos = (371,800);
}
);
layerId = "E5DC9139-DBE8-45F6-BCD0-0641ED917C2C";
shapes = (
{
closed = 1;
nodes = (
(632,-14,o),
(667,174,o),
(628,290,cs),
(562,495,o),
(204,423,o),
(198,615,cs),
(195,704,o),
(268,781,o),
(384,787,cs),
(463,791,o),
(574,772,o),
(591,645,c),
(583,655,o),
(571,661,o),
(557,661,cs),
(531,661,o),
(509,639,o),
(509,613,cs),
(509,587,o),
(531,566,o),
(557,566,cs),
(583,566,o),
(602,587,o),
(604,613,cs),
(611,699,o),
(566,804,o),
(385,802,cs),
(206,800,o),
(129,698,o),
(121,588,cs),
(103,322,o),
(555,404,o),
(552,182,cs),
(551,87,o),
(477,14,o),
(333,14,cs),
(190,14,o),
(122,130,o),
(114,220,c),
(123,211,o),
(135,205,o),
(149,205,cs),
(175,205,o),
(196,226,o),
(196,252,cs),
(196,278,o),
(175,300,o),
(149,300,cs),
(123,300,o),
(103,278,o),
(101,252,cs),
(92,136,o),
(181,-1,o),
(350,-6,cs)
);
}
);
width = 741;
},
{
anchors = (
{
name = bottom;
pos = (371,0);
},
{
name = top;
pos = (371,800);
}
);
layerId = "2F0BCB80-3430-4FA1-A4A3-7C385E8DAA98";
shapes = (
{
closed = 1;
nodes = (
(632,-7,o),
(667,181,o),
(628,297,cs),
(560,500,o),
(247,430,o),
(238,622,cs),
(235,691,o),
(278,780,o),
(384,789,cs),
(468,796,o),
(565,766,o),
(582,669,c),
(572,677,o),
(558,681,o),
(545,681,cs),
(512,681,o),
(484,653,o),
(484,620,cs),
(484,587,o),
(512,561,o),
(545,561,cs),
(578,561,o),
(602,587,o),
(604,620,cs),
(609,706,o),
(566,811,o),
(385,809,cs),
(206,807,o),
(129,705,o),
(121,595,cs),
(103,329,o),
(510,395,o),
(512,189,cs),
(513,118,o),
(474,30,o),
(333,30,cs),
(195,30,o),
(130,130,o),
(120,217,c),
(131,206,o),
(146,200,o),
(162,200,cs),
(195,200,o),
(221,226,o),
(221,259,cs),
(221,292,o),
(195,320,o),
(162,320,cs),
(129,320,o),
(104,292,o),
(101,259,cs),
(89,131,o),
(181,6,o),
(350,1,cs)
);
}
);
width = 741;
},
{
anchors = (
{
name = bottom;
pos = (371,0);
},
{
name = top;
pos = (371,800);
}
);
hints = (
{
horizontal = 1;
place = (796,23);
type = Stem;
},
{
horizontal = 1;
place = (558,146);
type = Stem;
},
{
horizontal = 1;
place = (197,146);
type = Stem;
},
{
horizontal = 1;
place = (11,37);
type = Stem;
},
{
place = (402,169);
type = Stem;
},
{
place = (388,146);
type = Stem;
},
{
place = (51,157);
type = Stem;
},
{
place = (31,147);
type = Stem;
},
{
place = (31,23);
type = Stem;
}
);
layerId = m01;
shapes = (
{
closed = 1;
nodes = (
(632,3,o),
(667,191,o),
(628,307,cs),
(557,507,o),
(292,439,o),
(278,632,cs),
(275,671,o),
(278,786,o),
(384,796,cs),
(481,805,o),
(561,756,o),
(576,694,c),
(564,701,o),
(546,704,o),
(532,704,cs),
(492,704,o),
(458,670,o),
(458,630,cs),
(458,589,o),
(492,558,o),
(532,558,cs),
(573,558,o),
(602,589,o),
(604,630,cs),
(607,711,o),
(566,821,o),
(385,819,cs),
(206,817,o),
(129,715,o),
(121,605,cs),
(103,339,o),
(463,380,o),
(472,199,c),
(476,164,o),
(470,48,o),
(333,48,cs),
(200,48,o),
(136,134,o),
(124,219,c),
(137,204,o),
(156,197,o),
(176,197,cs),
(216,197,o),
(248,228,o),
(248,269,cs),
(248,309,o),
(216,343,o),
(176,343,cs),
(135,343,o),
(104,308,o),
(101,269,cs),
(87,126,o),
(181,16,o),
(350,11,cs)
);
}
);
width = 741;
}
);
},
{
color = 4;
glyphname = T.ss01;
lastChange = "2026-06-16 00:37:54 +0000";
layers = (
{
anchors = (
{
name = bottom;
pos = (384,0);
},
{
name = center;
pos = (384,400);
},
{
name = top;
pos = (384,800);
}
);
layerId = "E5DC9139-DBE8-45F6-BCD0-0641ED917C2C";
shapes = (
{
closed = 1;
nodes = (
(418,0,l),
(418,800,l),
(350,800,l),
(350,0,l)
);
},
{
closed = 1;
nodes = (
(173,705,o),
(195,727,o),
(195,753,cs),
(195,779,o),
(173,800,o),
(147,800,cs),
(121,800,o),
(100,779,o),
(100,753,cs),
(100,727,o),
(121,705,o),
(147,705,cs)
);
},
{
closed = 1;
nodes = (
(360,790,l),
(360,800,l),
(147,800,l),
(147,790,l)
);
},
{
closed = 1;
nodes = (
(621,790,l),
(621,800,l),
(408,800,l),
(408,790,l)
);
},
{
closed = 1;
nodes = (
(647,705,o),
(668,727,o),
(668,753,cs),
(668,779,o),
(647,800,o),
(621,800,cs),
(595,800,o),
(573,779,o),
(573,753,cs),
(573,727,o),
(595,705,o),
(621,705,cs)
);
}
);
width = 768;
},
{
anchors = (
{
name = bottom;
pos = (418,0);
},
{
name = center;
pos = (418,400);
},
{
name = top;
pos = (418,800);
}
);
layerId = "2F0BCB80-3430-4FA1-A4A3-7C385E8DAA98";
shapes = (
{
closed = 1;
nodes = (
(472,0,l),
(472,800,l),
(364,800,l),
(364,0,l)
);
},
{
closed = 1;
nodes = (
(192,680,o),
(220,708,o),
(220,741,cs),
(220,774,o),
(192,800,o),
(159,800,cs),
(126,800,o),
(100,774,o),
(100,741,cs),
(100,708,o),
(126,680,o),
(159,680,cs)
);
},
{
closed = 1;
nodes = (
(380,785,l),
(380,800,l),
(159,800,l),
(159,785,l)
);
},
{
closed = 1;
nodes = (
(677,785,l),
(677,800,l),
(456,800,l),
(456,785,l)
);
},
{
closed = 1;
nodes = (
(710,680,o),
(736,708,o),
(736,741,cs),
(736,774,o),
(710,800,o),
(677,800,cs),
(644,800,o),
(616,774,o),
(616,741,cs),
(616,708,o),
(644,680,o),
(677,680,cs)
);
}
);
width = 836;
},
{
anchors = (
{
name = bottom;
pos = (464,0);
},
{
name = center;
pos = (464,400);
},
{
name = top;
pos = (464,800);
}
);
hints = (
{
horizontal = 1;
place = (783,17);
type = Stem;
},
{
horizontal = 1;
place = (654,146);
type = Stem;
},
{
place = (597,146);
type = Stem;
},
{
place = (597,74);
type = Stem;
},
{
place = (428,25);
type = Stem;
},
{
place = (305,148);
type = Stem;
},
{
place = (305,25);
type = Stem;
},
{
place = (15,147);
type = Stem;
}
);
layerId = m01;
shapes = (
{
closed = 1;
nodes = (
(538,0,l),
(538,800,l),
(390,800,l),
(390,0,l)
);
},
{
closed = 1;
nodes = (
(213,654,o),
(247,688,o),
(247,728,cs),
(247,769,o),
(213,800,o),
(172,800,cs),
(132,800,o),
(100,769,o),
(100,728,cs),
(100,688,o),
(132,654,o),
(172,654,cs)
);
},
{
closed = 1;
nodes = (
(415,783,l),
(415,800,l),
(172,800,l),
(172,783,l)
);
},
{
closed = 1;
nodes = (
(756,783,l),
(756,800,l),
(513,800,l),
(513,783,l)
);
},
{
closed = 1;
nodes = (
(797,654,o),
(828,688,o),
(828,728,cs),
(828,769,o),
(797,800,o),
(756,800,cs),
(716,800,o),
(682,769,o),
(682,728,cs),
(682,688,o),
(716,654,o),
(756,654,cs)
);
}
);
width = 928;
}
);
},
{
color = 4;
glyphname = V.ss01;
lastChange = "2026-06-16 00:37:54 +0000";
layers = (
{
anchors = (
{
name = bottom;
pos = (436,0);
},
{
name = top;
pos = (436,800);
}
);
layerId = "E5DC9139-DBE8-45F6-BCD0-0641ED917C2C";
shapes = (
{
closed = 1;
nodes = (
(475,0,l),
(772,800,l),
(762,800,l),
(489,68,l),
(221,800,l),
(148,800,l),
(444,0,l)
);
},
{
closed = 1;
nodes = (
(174,705,o),
(195,726,o),
(195,752,cs),
(195,778,o),
(174,800,o),
(148,800,cs),
(122,800,o),
(100,778,o),
(100,752,cs),
(100,726,o),
(122,705,o),
(148,705,cs)
);
}
);
width = 872;
},
{
anchors = (
{
name = bottom;
pos = (455,0);
},
{
name = top;
pos = (455,800);
}
);
layerId = "2F0BCB80-3430-4FA1-A4A3-7C385E8DAA98";
shapes = (
{
closed = 1;
nodes = (
(503,0,l),
(809,800,l),
(793,800,l),
(533,121,l),
(276,800,l),
(161,800,l),
(465,0,l)
);
},
{
closed = 1;
nodes = (
(194,680,o),
(220,706,o),
(220,739,cs),
(220,772,o),
(194,800,o),
(161,800,cs),
(128,800,o),
(100,772,o),
(100,739,cs),
(100,706,o),
(128,680,o),
(161,680,cs)
);
}
);
width = 909;
},
{
anchors = (
{
name = bottom;
pos = (477,0);
},
{
name = top;
pos = (477,800);
}
);
hints = (
{
horizontal = 1;
place = (654,146);
type = Stem;
},
{
place = (30,147);
type = Stem;
}
);
layerId = m01;
shapes = (
{
closed = 1;
nodes = (
(534,0,l),
(853,800,l),
(834,800,l),
(582,172,l),
(332,800,l),
(175,800,l),
(491,0,l)
);
},
{
closed = 1;
nodes = (
(215,654,o),
(247,685,o),
(247,726,cs),
(247,766,o),
(215,800,o),
(175,800,cs),
(134,800,o),
(100,766,o),
(100,726,cs),
(100,685,o),
(134,654,o),
(175,654,cs)
);
}
);
width = 953;
}
);
},
{
color = 4;
glyphname = W.ss01;
lastChange = "2026-06-16 00:37:54 +0000";
layers = (
{
anchors = (
{
name = bottom;
pos = (634,0);
},
{
name = top;
pos = (634,800);
}
);
layerId = "E5DC9139-DBE8-45F6-BCD0-0641ED917C2C";
shapes = (
{
closed = 1;
nodes = (
(464,0,l),
(656,538,l),
(850,0,l),
(879,0,l),
(1168,800,l),
(1157,800,l),
(895,75,l),
(634,800,l),
(562,800,l),
(651,552,l),
(480,76,l),
(220,800,l),
(147,800,l),
(435,0,l)
);
},
{
closed = 1;
nodes = (
(174,705,o),
(195,726,o),
(195,752,cs),
(195,778,o),
(174,800,o),
(148,800,cs),
(122,800,o),
(100,778,o),
(100,752,cs),
(100,726,o),
(122,705,o),
(148,705,cs)
);
},
{
closed = 1;
nodes = (
(588,705,o),
(609,726,o),
(609,752,cs),
(609,778,o),
(588,800,o),
(562,800,cs),
(536,800,o),
(514,778,o),
(514,752,cs),
(514,726,o),
(536,705,o),
(562,705,cs)
);
}
);
width = 1268;
},
{
anchors = (
{
name = bottom;
pos = (644,0);
},
{
name = top;
pos = (644,800);
}
);
layerId = "2F0BCB80-3430-4FA1-A4A3-7C385E8DAA98";
shapes = (
{
closed = 1;
nodes = (
(483,0,l),
(673,530,l),
(864,0,l),
(898,0,l),
(1187,800,l),
(1171,800,l),
(931,135,l),
(691,800,l),
(576,800,l),
(665,552,l),
(516,135,l),
(276,800,l),
(161,800,l),
(449,0,l)
);
},
{
closed = 1;
nodes = (
(194,680,o),
(220,706,o),
(220,739,cs),
(220,772,o),
(194,800,o),
(161,800,cs),
(128,800,o),
(100,772,o),
(100,739,cs),
(100,706,o),
(128,680,o),
(161,680,cs)
);
},
{
closed = 1;
nodes = (
(609,680,o),
(635,706,o),
(635,739,cs),
(635,772,o),
(609,800,o),
(576,800,cs),
(543,800,o),
(515,772,o),
(515,739,cs),
(515,706,o),
(543,680,o),
(576,680,cs)
);
}
);
width = 1287;
},
{
anchors = (
{
name = bottom;
pos = (652,0);
},
{
name = top;
pos = (652,800);
}
);
hints = (
{
horizontal = 1;
place = (654,146);
type = Stem;
},
{
place = (446,146);
type = Stem;
},
{
place = (30,147);
type = Stem;
}
);
layerId = m01;
shapes = (
{
closed = 1;
nodes = (
(500,0,l),
(689,526,l),
(878,0,l),
(915,0,l),
(1204,800,l),
(1185,800,l),
(967,194,l),
(748,800,l),
(590,800,l),
(679,552,l),
(552,194,l),
(332,800,l),
(175,800,l),
(463,0,l)
);
},
{
closed = 1;
nodes = (
(215,654,o),
(247,685,o),
(247,726,cs),
(247,766,o),
(215,800,o),
(175,800,cs),
(134,800,o),
(100,766,o),
(100,726,cs),
(100,685,o),
(134,654,o),
(175,654,cs)
);
},
{
closed = 1;
nodes = (
(631,654,o),
(662,685,o),
(662,726,cs),
(662,766,o),
(631,800,o),
(590,800,cs),
(550,800,o),
(516,766,o),
(516,726,cs),
(516,685,o),
(550,654,o),
(590,654,cs)
);
}
);
width = 1304;
}
);
},
{
color = 4;
glyphname = X.ss01;
lastChange = "2026-06-16 00:37:54 +0000";
layers = (
{
anchors = (
{
name = bottom;
pos = (387,0);
},
{
name = top;
pos = (387,800);
}
);
layerId = "E5DC9139-DBE8-45F6-BCD0-0641ED917C2C";
shapes = (
{
closed = 1;
nodes = (
(140,0,l),
(378,371,l),
(595,0,l),
(674,0,l),
(429,421,l),
(654,800,l),
(643,800,l),
(423,431,l),
(238,748,ls),
(208,800,o),
(170,803,o),
(151,793,cs),
(125,779,o),
(101,753,o),
(100,716,c),
(109,708,l),
(114,747,o),
(147,767,o),
(180,710,cs),
(373,380,l),
(128,0,l)
);
}
);
width = 774;
},
{
anchors = (
{
name = bottom;
pos = (408,0);
},
{
name = top;
pos = (408,800);
}
);
layerId = "2F0BCB80-3430-4FA1-A4A3-7C385E8DAA98";
shapes = (
{
closed = 1;
nodes = (
(155,0,l),
(383,355,l),
(590,0,l),
(715,0,l),
(456,442,l),
(669,800,l),
(652,800,l),
(448,457,l),
(274,754,ls),
(241,810,o),
(192,814,o),
(156,794,cs),
(126,777,o),
(108,748,o),
(100,712,c),
(114,696,l),
(116,723,o),
(148,756,o),
(180,702,cs),
(374,369,l),
(137,0,l)
);
}
);
width = 815;
},
{
anchors = (
{
name = bottom;
pos = (427,0);
},
{
name = top;
pos = (427,800);
}
);
hints = (
{
horizontal = 1;
place = (717,93);
type = Stem;
},
{
place = (40,654);
type = Stem;
}
);
layerId = m01;
shapes = (
{
closed = 1;
nodes = (
(168,0,l),
(386,340,l),
(583,0,l),
(754,0,l),
(481,464,l),
(682,800,l),
(662,800,l),
(473,481,l),
(310,756,ls),
(271,819,o),
(200,818,o),
(162,796,cs),
(129,776,o),
(119,740,o),
(100,705,c),
(120,679,l),
(118,690,o),
(143,751,o),
(180,690,cs),
(375,356,l),
(147,0,l)
);
}
);
width = 854;
}
);
},
{
color = 4;
glyphname = a;
lastChange = "2026-06-16 22:27:58 +0000";
layers = (
{
anchors = (
{
name = bottom;
pos = (340,0);
},
{
name = ogonek;
pos = (555,10);
},
{
name = top;
pos = (340,500);
}
);
guides = (
{
pos = (499,583);
},
{
pos = (499,667);
},
{
pos = (633,1103);
}
);
layerId = "E5DC9139-DBE8-45F6-BCD0-0641ED917C2C";
shapes = (
{
closed = 1;
nodes = (
(502,83,l),
(502,370,ls),
(502,479,o),
(429,514,o),
(327,514,cs),
(223,514,o),
(138,465,o),
(138,397,c),
(153,397,l),
(154,465,o),
(239,501,o),
(327,501,cs),
(412,501,o),
(434,440,o),
(434,370,cs),
(434,83,l)
);
},
{
closed = 1;
nodes = (
(351,-5,o),
(415,22,o),
(447,52,c),
(448,79,l),
(443,54,o),
(394,19,o),
(299,19,cs),
(192,19,o),
(166,108,o),
(166,145,cs),
(166,192,o),
(179,223,o),
(199,244,cs),
(260,309,o),
(390,282,o),
(434,330,c),
(434,368,l),
(434,326,o),
(397,318,o),
(311,311,cs),
(192,302,o),
(100,273,o),
(100,145,cs),
(100,76,o),
(136,-5,o),
(270,-5,cs)
);
},
{
angle = 180;
pos = (609,499);
ref = "light-top-term";
},
{
closed = 1;
nodes = (
(212,350,o),
(233,371,o),
(233,397,cs),
(233,423,o),
(212,445,o),
(186,445,cs),
(160,445,o),
(138,423,o),
(138,397,cs),
(138,371,o),
(160,350,o),
(186,350,cs)
);
}
);
width = 669;
},
{
anchors = (
{
name = bottom;
pos = (351,0);
},
{
name = ogonek;
pos = (576,10);
},
{
name = top;
pos = (351,500);
}
);
guides = (
{
angle = 180;
pos = (-1126,146);
showMeasurement = 1;
},
{
pos = (-1126,146);
}
);
layerId = "2F0BCB80-3430-4FA1-A4A3-7C385E8DAA98";
shapes = (
{
closed = 1;
nodes = (
(525,90,l),
(525,371,ls),
(525,480,o),
(431,515,o),
(331,515,cs),
(233,515,o),
(141,466,o),
(141,398,c),
(158,398,l),
(158,457,o),
(231,497,o),
(320,499,cs),
(405,501,o),
(417,446,o),
(417,371,cs),
(417,90,l)
);
},
{
closed = 1;
nodes = (
(337,-8,o),
(395,17,o),
(430,53,c),
(430,78,l),
(428,67,o),
(385,27,o),
(323,20,cs),
(251,12,o),
(197,70,o),
(195,152,cs),
(194,188,o),
(203,213,o),
(216,231,cs),
(267,303,o),
(377,269,o),
(418,325,c),
(417,369,l),
(417,327,o),
(383,322,o),
(294,312,cs),
(195,301,o),
(100,274,o),
(100,146,cs),
(100,77,o),
(139,1,o),
(253,-4,cs)
);
},
{
angle = 180;
pos = (632,499);
ref = "light-top-term";
},
{
closed = 1;
nodes = (
(232,340,o),
(258,366,o),
(258,398,cs),
(258,430,o),
(232,457,o),
(200,457,cs),
(168,457,o),
(141,430,o),
(141,398,cs),
(141,366,o),
(168,340,o),
(200,340,cs)
);
}
);
width = 692;
},
{
anchors = (
{
name = bottom;
pos = (357,0);
},
{
name = ogonek;
pos = (587,10);
},
{
name = top;
pos = (357,500);
}
);
hints = (
{
horizontal = 1;
place = (497,19);
type = Stem;
},
{
horizontal = 1;
place = (399,70);
type = Stem;
},
{
horizontal = 1;
place = (330,139);
type = Stem;
},
{
horizontal = 1;
place = (54,46);
type = Stem;
},
{
horizontal = 1;
place = (-4,104);
type = Stem;
},
{
place = (331,136);
type = Stem;
},
{
place = (319,148);
type = Stem;
},
{
place = (319,12.5);
type = Stem;
},
{
place = (73,139);
type = Stem;
},
{
place = (73,18);
type = Stem;
},
{
place = (30,117);
type = Stem;
}
);
layerId = m01;
shapes = (
{
closed = 1;
nodes = (
(537,97,l),
(537,372,ls),
(537,481,o),
(432,513,o),
(333,516,cs),
(231,519,o),
(143,467,o),
(143,399,c),
(161,399,l),
(160,453,o),
(233,493,o),
(286,496,cs),
(385,502,o),
(389,454,o),
(389,372,cs),
(389,97,l)
);
},
{
closed = 1;
nodes = (
(313,-13,o),
(359,0,o),
(400,48,c),
(400,99,l),
(399,94,o),
(377,33,o),
(315,21,cs),
(261,11,o),
(217,73,o),
(217,156,cs),
(216,180,o),
(223,199,o),
(230,214,cs),
(273,294,o),
(350,258,o),
(391,321,c),
(389,370,l),
(389,328,o),
(359,327,o),
(266,313,cs),
(197,299,o),
(100,275,o),
(100,147,cs),
(100,78,o),
(141,9,o),
(225,-3,cs)
);
},
{
angle = 180;
pos = (641,500);
ref = "light-top-term";
},
{
closed = 1;
nodes = (
(251,330,o),
(282,361,o),
(282,399,cs),
(282,437,o),
(251,469,o),
(213,469,cs),
(175,469,o),
(143,437,o),
(143,399,cs),
(143,361,o),
(175,330,o),
(213,330,cs)
);
}
);
width = 704;
}
);
unicode = 97;
},
{
color = 4;
glyphname = b;
lastChange = "2026-06-19 00:03:50 +0000";
layers = (
{
anchors = (
{
name = bottom;
pos = (352,0);
},
{
name = center;
pos = (211,720);
},
{
name = top;
pos = (352,500);
}
);
guides = (
{
pos = (-3719,122);
},
{
pos = (1541,250);
}
);
hints = (
{
place = (532,30);
type = Stem;
},
{
place = (487,30);
type = Stem;
}
);
layerId = "E5DC9139-DBE8-45F6-BCD0-0641ED917C2C";
shapes = (
{
closed = 1;
nodes = (
(502,-12,o),
(604,92,o),
(604,251,cs),
(604,412,o),
(502,517,o),
(358,506,cs),
(300,502,o),
(244,463,o),
(224,411,cs),
(214,384,l),
(216,334,l),
(219,427,o),
(282,492,o),
(368,493,cs),
(465,493,o),
(534,393,o),
(536,251,cs),
(536,110,o),
(467,11,o),
(368,12,cs),
(282,13,o),
(219,78,o),
(216,171,c),
(214,121,l),
(224,94,ls),
(244,42,o),
(300,3,o),
(358,-1,cs)
);
},
{
closed = 1;
nodes = (
(235,0,l),
(235,700,l),
(167,708,l),
(167,0,l)
);
},
{
pos = (60,299);
ref = "bold-top-term";
}
);
width = 704;
},
{
anchors = (
{
name = bottom;
pos = (374,0);
},
{
name = center;
pos = (222,720);
},
{
name = top;
pos = (374,500);
}
);
layerId = "2F0BCB80-3430-4FA1-A4A3-7C385E8DAA98";
shapes = (
{
closed = 1;
nodes = (
(536,-14,o),
(646,91,o),
(646,251,cs),
(646,411,o),
(536,515,o),
(380,503,cs),
(322,499,o),
(266,460,o),
(246,408,cs),
(236,381,l),
(237,320,l),
(240,417,o),
(303,486,o),
(390,486,cs),
(477,486,o),
(538,389,o),
(538,251,cs),
(538,112,o),
(477,15,o),
(390,15,cs),
(303,15,o),
(240,84,o),
(237,181,c),
(236,120,l),
(246,93,ls),
(266,41,o),
(322,2,o),
(380,-2,cs)
);
},
{
closed = 1;
nodes = (
(275,0,l),
(275,703,l),
(167,703,l),
(167,0,l)
);
},
{
pos = (60,299);
ref = "bold-top-term";
}
);
width = 746;
},
{
anchors = (
{
name = bottom;
pos = (395,0);
},
{
name = center;
pos = (233,720);
},
{
name = top;
pos = (395,500);
}
);
hints = (
{
place = (-259,15);
type = Stem;
},
{
place = (-281,15);
type = Stem;
}
);
layerId = m01;
shapes = (
{
closed = 1;
nodes = (
(565,-15,o),
(687,89,o),
(687,251,cs),
(687,411,o),
(565,515,o),
(391,502,cs),
(333,498,o),
(277,459,o),
(257,407,cs),
(247,380,l),
(248,313,l),
(251,413,o),
(314,483,o),
(401,483,cs),
(483,483,o),
(540,387,o),
(539,251,cs),
(539,114,o),
(482,17,o),
(401,17,cs),
(314,16,o),
(251,86,o),
(248,186,c),
(247,120,l),
(257,93,ls),
(277,41,o),
(333,2,o),
(391,-2,cs)
);
},
{
closed = 1;
nodes = (
(315,0,l),
(315,704,l),
(167,700,l),
(167,0,l)
);
},
{
pos = (63,298);
ref = "bold-top-term";
}
);
width = 787;
}
);
unicode = 98;
},
{
color = 4;
glyphname = c;
lastChange = "2026-06-23 23:25:39 +0000";
layers = (
{
anchors = (
{
name = bottom;
pos = (300,0);
},
{
name = top;
pos = (300,500);
}
);
layerId = "E5DC9139-DBE8-45F6-BCD0-0641ED917C2C";
shapes = (
{
closed = 1;
nodes = (
(432,-1,o),
(500,74,o),
(500,181,c),
(488,181,l),
(487,82,o),
(424,13,o),
(336,13,cs),
(231,13,o),
(158,106,o),
(158,251,cs),
(158,397,o),
(233,492,o),
(340,493,cs),
(422,494,o),
(479,446,o),
(479,376,c),
(491,376,l),
(492,451,o),
(428,505,o),
(336,506,cs),
(192,507,o),
(90,407,o),
(90,251,cs),
(90,98,o),
(192,-1,o),
(336,-1,cs)
);
},
{
closed = 1;
nodes = (
(472,329,o),
(491,348,o),
(491,376,cs),
(491,404,o),
(472,424,o),
(444,424,cs),
(416,424,o),
(396,404,o),
(396,376,cs),
(396,348,o),
(416,329,o),
(444,329,cs)
);
}
);
width = 600;
},
{
anchors = (
{
name = bottom;
pos = (313,0);
},
{
name = top;
pos = (313,500);
}
);
layerId = "2F0BCB80-3430-4FA1-A4A3-7C385E8DAA98";
shapes = (
{
closed = 1;
nodes = (
(449,-3,o),
(516,74,o),
(516,183,c),
(501,183,l),
(501,82,o),
(440,11,o),
(353,11,cs),
(268,11,o),
(198,105,o),
(198,252,cs),
(198,394,o),
(269,488,o),
(355,491,cs),
(435,494,o),
(492,451,o),
(492,387,c),
(508,387,l),
(508,455,o),
(445,504,o),
(355,506,cs),
(211,509,o),
(100,409,o),
(100,251,cs),
(100,94,o),
(210,-6,o),
(353,-4,cs)
);
},
{
closed = 1;
nodes = (
(484,329,o),
(508,353,o),
(508,387,cs),
(508,422,o),
(484,446,o),
(450,446,cs),
(415,446,o),
(391,422,o),
(391,387,cs),
(391,353,o),
(415,329,o),
(450,329,cs)
);
}
);
width = 616;
},
{
anchors = (
{
name = bottom;
pos = (330,0);
},
{
name = top;
pos = (330,500);
}
);
hints = (
{
horizontal = 1;
place = (490,16);
type = Stem;
},
{
horizontal = 1;
place = (398,70);
type = Stem;
},
{
horizontal = 1;
place = (329,139);
type = Stem;
},
{
horizontal = 1;
place = (-7,15);
type = Stem;
},
{
place = (424,16);
type = Stem;
},
{
place = (407,19);
type = Stem;
},
{
place = (30,123);
type = Stem;
}
);
layerId = m01;
shapes = (
{
closed = 1;
nodes = (
(476,-5,o),
(540,75,o),
(540,186,c),
(524,186,l),
(526,83,o),
(468,10,o),
(384,10,cs),
(295,10,o),
(233,106,o),
(233,254,cs),
(233,391,o),
(293,483,o),
(379,490,cs),
(454,494,o),
(507,456,o),
(507,398,c),
(526,398,l),
(525,459,o),
(467,504,o),
(386,506,cs),
(218,511,o),
(100,410,o),
(100,251,cs),
(100,86,o),
(217,-16,o),
(384,-7,cs)
);
},
{
closed = 1;
nodes = (
(498,329,o),
(526,357,o),
(526,398,cs),
(526,439,o),
(498,468,o),
(457,468,cs),
(416,468,o),
(387,439,o),
(387,398,cs),
(387,357,o),
(416,329,o),
(457,329,cs)
);
}
);
width = 640;
}
);
unicode = 99;
},
{
color = 4;
glyphname = e;
lastChange = "2026-06-19 00:32:16 +0000";
layers = (
{
anchors = (
{
name = bottom;
pos = (320,0);
},
{
name = ogonek;
pos = (519,10);
},
{
name = top;
pos = (320,500);
}
);
layerId = "E5DC9139-DBE8-45F6-BCD0-0641ED917C2C";
shapes = (
{
closed = 1;
nodes = (
(463,-7,o),
(539,65,o),
(539,180,c),
(529,180,l),
(529,71,o),
(457,3,o),
(343,3,cs),
(235,3,o),
(168,98,o),
(168,249,cs),
(168,262,o),
(168,273,o),
(169,286,c),
(538,286,l),
(538,419,o),
(460,503,o),
(335,503,cs),
(191,503,o),
(100,405,o),
(100,248,cs),
(100,91,o),
(194,-7,o),
(343,-7,cs)
);
},
{
closed = 1;
nodes = (
(183,417,o),
(243,490,o),
(335,490,cs),
(413,490,o),
(463,416,o),
(467,296,c),
(170,296,l)
);
}
);
width = 639;
},
{
anchors = (
{
name = bottom;
pos = (320,0);
},
{
name = ogonek;
pos = (520,10);
},
{
name = top;
pos = (320,500);
}
);
layerId = "2F0BCB80-3430-4FA1-A4A3-7C385E8DAA98";
shapes = (
{
closed = 1;
nodes = (
(464,-7,o),
(540,65,o),
(540,180,c),
(525,180,l),
(525,74,o),
(455,8,o),
(343,8,cs),
(260,8,o),
(208,101,o),
(208,249,cs),
(208,262,o),
(208,273,o),
(209,286,c),
(538,286,l),
(538,419,o),
(460,503,o),
(335,503,cs),
(191,503,o),
(100,405,o),
(100,248,cs),
(100,91,o),
(194,-7,o),
(343,-7,cs)
);
},
{
closed = 1;
nodes = (
(221,419,o),
(265,488,o),
(330,488,cs),
(388,488,o),
(426,418,o),
(430,306,c),
(211,306,l)
);
}
);
width = 640;
},
{
anchors = (
{
name = bottom;
pos = (331,0);
},
{
name = ogonek;
pos = (596,10);
},
{
name = top;
pos = (331,500);
}
);
hints = (
{
horizontal = 1;
place = (487,16);
type = Stem;
},
{
horizontal = 1;
place = (286,30);
type = Stem;
},
{
horizontal = 1;
place = (-7,18);
type = Stem;
},
{
place = (454,18);
type = Stem;
},
{
place = (322,146);
type = Stem;
},
{
place = (122,56);
type = Stem;
},
{
place = (30,148);
type = Stem;
}
);
layerId = m01;
shapes = (
{
closed = 1;
nodes = (
(485,-7,o),
(562,65,o),
(562,180,c),
(544,180,l),
(544,76,o),
(481,11,o),
(380,11,cs),
(305,11,o),
(258,103,o),
(258,249,cs),
(258,262,o),
(258,273,o),
(259,286,c),
(558,286,l),
(558,419,o),
(480,503,o),
(355,503,cs),
(198,503,o),
(100,405,o),
(100,248,cs),
(100,91,o),
(201,-7,o),
(363,-7,cs)
);
},
{
closed = 1;
nodes = (
(267,418,o),
(298,487,o),
(343,487,cs),
(384,487,o),
(410,418,o),
(412,306,c),
(260,306,l)
);
}
);
width = 662;
}
);
unicode = 101;
},
{
color = 4;
glyphname = f;
lastChange = "2026-06-23 23:26:30 +0000";
layers = (
{
anchors = (
{
name = bottom;
pos = (252,0);
},
{
name = top;
pos = (252,900);
}
);
layerId = "E5DC9139-DBE8-45F6-BCD0-0641ED917C2C";
shapes = (
{
closed = 1;
nodes = (
(186,0,l),
(186,488,ls),
(186,548,o),
(179,696,o),
(298,696,cs),
(363,696,o),
(387,653,o),
(390,648,cs),
(403,629,l),
(403,689,o),
(337,708,o),
(298,708,cs),
(151,708,o),
(118,608,o),
(118,434,cs),
(118,0,l)
);
},
{
closed = 1;
nodes = (
(277,490,l),
(277,500,l),
(70,500,l),
(70,490,l)
);
},
{
closed = 1;
nodes = (
(382,581,o),
(403,602,o),
(403,628,cs),
(403,654,o),
(382,676,o),
(356,676,cs),
(330,676,o),
(308,654,o),
(308,628,cs),
(308,602,o),
(330,581,o),
(356,581,cs)
);
}
);
width = 503;
},
{
anchors = (
{
name = bottom;
pos = (252,0);
},
{
name = top;
pos = (252,900);
}
);
layerId = "2F0BCB80-3430-4FA1-A4A3-7C385E8DAA98";
shapes = (
{
closed = 1;
nodes = (
(226,0,l),
(226,488,ls),
(226,548,o),
(219,686,o),
(308,686,cs),
(364,686,o),
(345,642,o),
(383,643,c),
(413,629,l),
(413,689,o),
(347,708,o),
(308,708,cs),
(161,708,o),
(118,608,o),
(118,434,cs),
(118,0,l)
);
},
{
closed = 1;
nodes = (
(297,485,l),
(297,500,l),
(60,500,l),
(60,485,l)
);
},
{
closed = 1;
nodes = (
(387,574,o),
(413,598,o),
(413,629,cs),
(413,659,o),
(387,684,o),
(357,684,cs),
(327,684,o),
(303,659,o),
(303,629,cs),
(303,598,o),
(327,574,o),
(357,574,cs)
);
}
);
width = 513;
},
{
anchors = (
{
name = bottom;
pos = (252,0);
},
{
name = top;
pos = (252,900);
}
);
hints = (
{
horizontal = 1;
place = (681,27);
type = Stem;
},
{
horizontal = 1;
place = (681,9);
type = Stem;
},
{
horizontal = 1;
place = (483,17);
type = Stem;
},
{
place = (258.25,89.75);
type = Stem;
},
{
place = (227,121);
type = Stem;
},
{
place = (48,148);
type = Stem;
},
{
place = (30,166);
type = Stem;
}
);
layerId = m01;
shapes = (
{
closed = 1;
nodes = (
(266,0,l),
(266,488,ls),
(266,548,o),
(259,681,o),
(313,681,cs),
(361,681,o),
(282,626,o),
(373,636,c),
(418,629,l),
(418,689,o),
(352,708,o),
(313,708,cs),
(166,708,o),
(118,608,o),
(118,434,cs),
(118,0,l)
);
},
{
closed = 1;
nodes = (
(327,483,l),
(327,500,l),
(70,500,l),
(70,483,l)
);
},
{
closed = 1;
nodes = (
(388,569,o),
(418,594,o),
(418,630,cs),
(418,663,o),
(388,690,o),
(355,690,cs),
(322,690,o),
(297,663,o),
(297,630,cs),
(297,594,o),
(322,569,o),
(355,569,cs)
);
}
);
width = 518;
}
);
unicode = 102;
},
{
color = 4;
glyphname = g;
lastChange = "2026-06-16 00:37:54 +0000";
layers = (
{
anchors = (
{
name = bottom;
pos = (358,-250);
},
{
name = top;
pos = (358,500);
}
);
layerId = "E5DC9139-DBE8-45F6-BCD0-0641ED917C2C";
shapes = (
{
closed = 1;
nodes = (
(503,-249,o),
(545,-178,o),
(550,-105,cs),
(557,-10,o),
(499,70,o),
(353,69,cs),
(248,68,o),
(153,57,o),
(153,120,cs),
(153,145,o),
(199,176,o),
(276,186,c),
(251,192,l),
(245,189,o),
(100,179,o),
(100,87,cs),
(100,39,o),
(128,5,o),
(204,5,cs),
(256,5,o),
(307,5,o),
(359,5,cs),
(432,5,o),
(502,-16,o),
(502,-104,cs),
(502,-187,o),
(436,-237,o),
(326,-237,cs),
(226,-237,o),
(157,-187,o),
(157,-108,cs),
(157,-25,o),
(233,4,o),
(285,29,c),
(270,29,l),
(269,19,o),
(102,-1,o),
(102,-106,cs),
(102,-222,o),
(235,-249,o),
(326,-249,cs)
);
},
{
closed = 1;
nodes = (
(430,177,o),
(488,255,o),
(488,341,cs),
(488,427,o),
(430,505,o),
(299,505,cs),
(167,505,o),
(109,427,o),
(109,341,cs),
(109,255,o),
(167,177,o),
(299,177,cs)
);
},
{
closed = 1;
nodes = (
(217,187,o),
(177,270,o),
(177,341,cs),
(177,412,o),
(217,495,o),
(299,495,cs),
(380,495,o),
(420,412,o),
(420,341,cs),
(420,270,o),
(380,187,o),
(299,187,cs)
);
},
{
closed = 1;
nodes = (
(446,470,o),
(480,505,o),
(539,505,cs),
(567,505,o),
(589,497,o),
(600,479,c),
(609,484,l),
(596,505,o),
(569,515,o),
(539,515,cs),
(476,515,o),
(437,475,o),
(419,412,c),
(429,409,l)
);
},
{
closed = 1;
nodes = (
(595,412,o),
(616,433,o),
(616,459,cs),
(616,485,o),
(595,507,o),
(569,507,cs),
(543,507,o),
(521,485,o),
(521,459,cs),
(521,433,o),
(543,412,o),
(569,412,cs)
);
}
);
width = 716;
},
{
anchors = (
{
name = bottom;
pos = (365,-250);
},
{
name = top;
pos = (365,500);
}
);
layerId = "2F0BCB80-3430-4FA1-A4A3-7C385E8DAA98";
shapes = (
{
closed = 1;
nodes = (
(503,-249,o),
(560,-162,o),
(560,-85,cs),
(560,20,o),
(497,76,o),
(353,79,cs),
(209,82,o),
(150,87,o),
(153,125,cs),
(155,145,o),
(175,163,o),
(276,186,c),
(251,192,l),
(245,189,o),
(100,179,o),
(100,87,cs),
(100,39,o),
(129,0,o),
(204,-9,cs),
(230,-12,o),
(293,-11,o),
(359,-15,cs),
(452,-21,o),
(484,-68,o),
(485,-120,cs),
(486,-184,o),
(433,-238,o),
(326,-234,cs),
(226,-230,o),
(188,-162,o),
(192,-108,cs),
(198,-32,o),
(266,-10,o),
(285,29,c),
(270,29,l),
(269,19,o),
(102,-1,o),
(102,-106,cs),
(102,-212,o),
(235,-249,o),
(326,-249,cs)
);
},
{
closed = 1;
nodes = (
(430,177,o),
(489,255,o),
(489,341,cs),
(489,427,o),
(430,505,o),
(299,505,cs),
(167,505,o),
(107,427,o),
(107,341,cs),
(107,255,o),
(167,177,o),
(299,177,cs)
);
},
{
closed = 1;
nodes = (
(227,192,o),
(203,290,o),
(203,341,cs),
(203,392,o),
(227,490,o),
(299,490,cs),
(370,490,o),
(394,392,o),
(394,341,cs),
(394,290,o),
(370,192,o),
(299,192,cs)
);
},
{
closed = 1;
nodes = (
(447,468,o),
(488,502,o),
(546,502,cs),
(573,502,o),
(593,495,o),
(603,478,c),
(616,486,l),
(603,507,o),
(576,517,o),
(546,517,cs),
(483,517,o),
(434,477,o),
(416,414,c),
(430,410,l)
);
},
{
closed = 1;
nodes = (
(603,393,o),
(629,419,o),
(629,451,cs),
(629,483,o),
(603,510,o),
(571,510,cs),
(539,510,o),
(512,483,o),
(512,451,cs),
(512,419,o),
(539,393,o),
(571,393,cs)
);
}
);
width = 729;
},
{
anchors = (
{
name = bottom;
pos = (373,-250);
},
{
name = top;
pos = (373,500);
}
);
hints = (
{
horizontal = 1;
place = (501,17);
type = Stem;
},
{
horizontal = 1;
place = (501,14);
type = Stem;
},
{
horizontal = 1;
place = (488,17);
type = Stem;
},
{
horizontal = 1;
place = (186,9);
type = Stem;
},
{
horizontal = 1;
place = (177,18);
type = Stem;
},
{
horizontal = 1;
place = (177,15);
type = Stem;
},
{
horizontal = 1;
place = (-249,17);
type = Stem;
},
{
place = (421,150);
type = Stem;
},
{
place = (400,95);
type = Stem;
},
{
place = (305,116);
type = Stem;
},
{
place = (200,18);
type = Stem;
},
{
place = (34,118);
type = Stem;
},
{
place = (32,120);
type = Stem;
}
);
layerId = m01;
shapes = (
{
closed = 1;
nodes = (
(503,-249,o),
(568,-155,o),
(565,-75,cs),
(561,26,o),
(494,70,o),
(353,79,cs),
(151,88,o),
(145,116,o),
(153,133,cs),
(158,145,o),
(171,162,o),
(276,186,c),
(251,192,l),
(245,189,o),
(100,179,o),
(100,87,cs),
(100,39,o),
(130,-7,o),
(204,-30,cs),
(232,-38,o),
(293,-35,o),
(359,-45,cs),
(482,-60,o),
(467,-146,o),
(470,-144,c),
(472,-177,o),
(429,-241,o),
(326,-232,cs),
(226,-223,o),
(215,-144,o),
(225,-108,cs),
(240,-42,o),
(303,-23,o),
(285,29,c),
(270,29,l),
(269,19,o),
(102,-1,o),
(102,-106,cs),
(102,-207,o),
(235,-249,o),
(326,-249,cs)
);
},
{
closed = 1;
nodes = (
(430,177,o),
(491,255,o),
(491,341,cs),
(491,427,o),
(430,505,o),
(299,505,cs),
(167,505,o),
(104,427,o),
(104,341,cs),
(104,255,o),
(167,177,o),
(299,177,cs)
);
},
{
closed = 1;
nodes = (
(232,195,o),
(222,320,o),
(222,341,cs),
(222,362,o),
(232,488,o),
(299,488,cs),
(365,488,o),
(375,362,o),
(375,341,cs),
(375,320,o),
(365,195,o),
(299,195,cs)
);
},
{
closed = 1;
nodes = (
(448,468,o),
(492,501,o),
(550,501,cs),
(576,501,o),
(595,494,o),
(605,478,c),
(620,487,l),
(607,508,o),
(580,518,o),
(550,518,cs),
(487,518,o),
(433,478,o),
(415,415,c),
(431,410,l)
);
},
{
closed = 1;
nodes = (
(607,365,o),
(641,398,o),
(641,439,cs),
(641,480,o),
(607,515,o),
(566,515,cs),
(525,515,o),
(491,480,o),
(491,439,cs),
(491,398,o),
(525,365,o),
(566,365,cs)
);
}
);
width = 741;
}
);
unicode = 103;
},
{
color = 4;
glyphname = h;
lastChange = "2026-06-16 00:37:54 +0000";
layers = (
{
anchors = (
{
name = bottom;
pos = (327,0);
},
{
name = center;
pos = (194,720);
},
{
name = top;
pos = (327,900);
}
);
layerId = "E5DC9139-DBE8-45F6-BCD0-0641ED917C2C";
shapes = (
{
closed = 1;
nodes = (
(564,0,l),
(564,284,ls),
(564,342,o),
(564,385,o),
(540,431,cs),
(508,492,o),
(414,511,o),
(348,506,cs),
(261,500,o),
(223,434,o),
(214,411,cs),
(204,384,l),
(206,334,l),
(208,398,o),
(256,492,o),
(358,493,cs),
(479,494,o),
(496,426,o),
(496,308,cs),
(496,0,l)
);
},
{
closed = 1;
nodes = (
(235,0,l),
(235,702,l),
(167,702,l),
(167,0,l)
);
},
{
closed = 1;
nodes = (
(235,700,l),
(235,720,ls),
(235,781,o),
(214,804,o),
(183,804,cs),
(150,804,o),
(120,794,o),
(100,763,c),
(104,753,l),
(126,784,o),
(167,801,o),
(167,718,cs),
(167,700,l)
);
}
);
width = 664;
},
{
anchors = (
{
name = bottom;
pos = (340,0);
},
{
name = center;
pos = (200,720);
},
{
name = top;
pos = (340,900);
}
);
layerId = "2F0BCB80-3430-4FA1-A4A3-7C385E8DAA98";
shapes = (
{
closed = 1;
nodes = (
(589,0,l),
(589,284,ls),
(589,342,o),
(589,385,o),
(572,417,cs),
(533,492,o),
(439,511,o),
(373,506,cs),
(286,500,o),
(248,434,o),
(239,411,cs),
(229,384,l),
(230,323,l),
(232,387,o),
(281,489,o),
(383,489,cs),
(476,489,o),
(488,408,o),
(488,308,cs),
(488,0,l)
);
},
{
closed = 1;
nodes = (
(275,1,l),
(275,709,l),
(167,709,l),
(167,1,l)
);
},
{
closed = 1;
nodes = (
(275,700,l),
(275,719,ls),
(275,780,o),
(244,804,o),
(203,804,cs),
(160,804,o),
(120,794,o),
(100,763,c),
(104,753,l),
(126,784,o),
(167,781,o),
(167,718,cs),
(167,700,l)
);
}
);
width = 689;
},
{
anchors = (
{
name = bottom;
pos = (351,0);
},
{
name = center;
pos = (206,720);
},
{
name = top;
pos = (351,900);
}
);
hints = (
{
horizontal = 1;
place = (770,34);
type = Stem;
},
{
horizontal = 1;
place = (700,18);
type = Stem;
},
{
horizontal = 1;
place = (487,19);
type = Stem;
},
{
place = (421,131);
type = Stem;
},
{
place = (192,63);
type = Stem;
},
{
place = (107,148);
type = Stem;
},
{
place = (107,85);
type = Stem;
}
);
layerId = m01;
shapes = (
{
closed = 1;
nodes = (
(612,0,l),
(612,284,ls),
(612,342,o),
(612,384,o),
(598,410,cs),
(555,493,o),
(462,511,o),
(396,506,cs),
(309,500,o),
(271,434,o),
(262,411,cs),
(252,384,l),
(252,318,l),
(254,382,o),
(303,488,o),
(406,487,cs),
(471,487,o),
(481,399,o),
(481,308,cs),
(481,0,l)
);
},
{
closed = 1;
nodes = (
(315,3,l),
(315,718,l),
(167,718,l),
(167,3,l)
);
},
{
closed = 1;
nodes = (
(315,700,l),
(315,718,ls),
(315,779,o),
(269,804,o),
(223,804,cs),
(165,804,o),
(120,794,o),
(100,763,c),
(104,753,l),
(126,784,o),
(167,771,o),
(167,718,cs),
(167,700,l)
);
}
);
width = 712;
}
);
unicode = 104;
},
{
color = 4;
glyphname = idotless;
lastChange = "2026-06-16 01:52:43 +0000";
layers = (
{
anchors = (
{
name = bottom;
pos = (134,0);
},
{
name = ogonek;
pos = (168,0);
},
{
name = top;
pos = (134,500);
}
);
layerId = "E5DC9139-DBE8-45F6-BCD0-0641ED917C2C";
shapes = (
{
closed = 1;
nodes = (
(168,0,l),
(168,500,l),
(100,500,l),
(100,0,l)
);
}
);
width = 268;
},
{
anchors = (
{
name = bottom;
pos = (154,0);
},
{
name = ogonek;
pos = (208,0);
},
{
name = top;
pos = (154,500);
}
);
layerId = "2F0BCB80-3430-4FA1-A4A3-7C385E8DAA98";
shapes = (
{
closed = 1;
nodes = (
(208,0,l),
(208,500,l),
(100,500,l),
(100,0,l)
);
}
);
width = 308;
},
{
anchors = (
{
name = bottom;
pos = (174,0);
},
{
name = ogonek;
pos = (248,0);
},
{
name = top;
pos = (174,500);
}
);
layerId = m01;
shapes = (
{
closed = 1;
nodes = (
(248,0,l),
(248,500,l),
(100,500,l),
(100,0,l)
);
}
);
width = 348;
}
);
unicode = 305;
},
{
color = 4;
glyphname = jdotless;
lastChange = "2026-06-23 23:29:27 +0000";
layers = (
{
anchors = (
{
name = bottom;
pos = (236,-250);
},
{
name = top;
pos = (313,500);
}
);
layerId = "E5DC9139-DBE8-45F6-BCD0-0641ED917C2C";
shapes = (
{
closed = 1;
nodes = (
(362,-180,o),
(350,-80,o),
(350,94,cs),
(350,500,l),
(282,500,l),
(282,40,ls),
(282,-20,o),
(294,-168,o),
(205,-168,cs),
(140,-168,o),
(116,-125,o),
(113,-120,cs),
(100,-101,l),
(100,-161,o),
(166,-180,o),
(205,-180,cs)
);
},
{
closed = 1;
nodes = (
(173,-148,o),
(195,-126,o),
(195,-100,cs),
(195,-74,o),
(173,-53,o),
(147,-53,cs),
(121,-53,o),
(100,-74,o),
(100,-100,cs),
(100,-126,o),
(121,-148,o),
(147,-148,cs)
);
}
);
width = 450;
},
{
anchors = (
{
name = bottom;
pos = (255,-250);
},
{
name = top;
pos = (333,500);
}
);
layerId = "2F0BCB80-3430-4FA1-A4A3-7C385E8DAA98";
shapes = (
{
closed = 1;
nodes = (
(379,-185,o),
(390,-85,o),
(390,89,cs),
(390,500,l),
(282,500,l),
(282,35,ls),
(282,-25,o),
(290,-165,o),
(204,-165,cs),
(142,-165,o),
(136,-138,o),
(123,-115,c),
(100,-96,l),
(100,-156,o),
(152,-185,o),
(225,-185,cs)
);
},
{
closed = 1;
nodes = (
(191,-155,o),
(217,-128,o),
(217,-96,cs),
(217,-64,o),
(191,-38,o),
(159,-38,cs),
(127,-38,o),
(100,-64,o),
(100,-96,cs),
(100,-128,o),
(127,-155,o),
(159,-155,cs)
);
}
);
width = 490;
},
{
anchors = (
{
name = bottom;
pos = (270,-250);
},
{
name = top;
pos = (361,500);
}
);
layerId = m01;
shapes = (
{
closed = 1;
nodes = (
(405,-192,o),
(440,-92,o),
(440,82,cs),
(440,500,l),
(292,500,l),
(292,28,ls),
(292,-32,o),
(294,-170,o),
(203,-170,cs),
(140,-170,o),
(156,-157,o),
(128,-107,c),
(102,-82,l),
(91,-142,o),
(131,-192,o),
(255,-192,cs)
);
},
{
closed = 1;
nodes = (
(209,-166,o),
(239,-134,o),
(239,-96,cs),
(239,-58,o),
(209,-27,o),
(171,-27,cs),
(133,-27,o),
(100,-58,o),
(100,-96,cs),
(100,-134,o),
(133,-166,o),
(171,-166,cs)
);
}
);
width = 540;
}
);
unicode = 567;
},
{
color = 4;
glyphname = k;
lastChange = "2026-06-16 00:37:54 +0000";
layers = (
{
anchors = (
{
name = bottom;
pos = (317,0);
},
{
name = top;
pos = (317,900);
}
);
guides = (
{
pos = (293,130);
showMeasurement = 1;
},
{
angle = 220.3645;
pos = (413,398);
}
);
layerId = "E5DC9139-DBE8-45F6-BCD0-0641ED917C2C";
shapes = (
{
closed = 1;
nodes = (
(235,0,l),
(235,247,l),
(241,252,l),
(445,0,l),
(533,0,l),
(293,296,l),
(533,500,l),
(517,500,l),
(235,260,l),
(235,705,l),
(167,705,l),
(167,0,l)
);
},
{
pos = (60,299);
ref = "bold-top-term";
}
);
width = 633;
},
{
anchors = (
{
name = bottom;
pos = (351,0);
},
{
name = top;
pos = (351,900);
}
);
guides = (
{
angle = 220.518;
pos = (459,404);
},
{
pos = (313,103);
showMeasurement = 1;
}
);
layerId = "2F0BCB80-3430-4FA1-A4A3-7C385E8DAA98";
shapes = (
{
closed = 1;
nodes = (
(275,0,l),
(275,239,l),
(280,233,l),
(467,0,l),
(601,0,l),
(345,306,l),
(571,500,l),
(548,500,l),
(275,268,l),
(275,705,l),
(167,705,l),
(167,0,l)
);
},
{
pos = (60,300);
ref = "bold-top-term";
}
);
width = 701;
},
{
anchors = (
{
name = bottom;
pos = (380,0);
},
{
name = top;
pos = (380,900);
}
);
hints = (
{
horizontal = 1;
place = (701,104);
type = Stem;
},
{
place = (97,148);
type = Stem;
}
);
layerId = m01;
shapes = (
{
closed = 1;
nodes = (
(315,0,l),
(315,233,l),
(316,208,l),
(480,0,l),
(657,0,l),
(385,312,l),
(602,500,l),
(576,500,l),
(315,280,l),
(315,704,l),
(167,704,l),
(167,0,l)
);
},
{
pos = (63,301);
ref = "bold-top-term";
}
);
width = 757;
}
);
unicode = 107;
},
{
color = 4;
glyphname = l;
lastChange = "2026-06-16 00:37:54 +0000";
layers = (
{
anchors = (
{
name = bottom;
pos = (173,0);
},
{
name = center;
pos = (173,250);
},
{
name = top;
pos = (173,900);
},
{
name = topright;
pos = (235,900);
}
);
layerId = "E5DC9139-DBE8-45F6-BCD0-0641ED917C2C";
shapes = (
{
closed = 1;
nodes = (
(235,0,l),
(235,700,l),
(167,708,l),
(167,0,l)
);
},
{
closed = 1;
nodes = (
(235,700,l),
(235,720,ls),
(235,781,o),
(214,804,o),
(183,804,cs),
(150,804,o),
(120,794,o),
(100,763,c),
(104,753,l),
(126,784,o),
(167,801,o),
(167,718,cs),
(167,700,l)
);
}
);
width = 335;
},
{
anchors = (
{
name = bottom;
pos = (193,0);
},
{
name = center;
pos = (193,250);
},
{
name = top;
pos = (193,900);
},
{
name = topright;
pos = (275,900);
}
);
layerId = "2F0BCB80-3430-4FA1-A4A3-7C385E8DAA98";
shapes = (
{
closed = 1;
nodes = (
(275,0,l),
(275,710,l),
(167,710,l),
(167,0,l)
);
},
{
closed = 1;
nodes = (
(275,649,l),
(275,720,ls),
(275,781,o),
(244,804,o),
(203,804,cs),
(160,804,o),
(120,794,o),
(100,763,c),
(104,753,l),
(126,784,o),
(167,780,o),
(167,718,cs),
(167,649,l)
);
}
);
width = 375;
},
{
anchors = (
{
name = bottom;
pos = (213,0);
},
{
name = center;
pos = (213,250);
},
{
name = top;
pos = (213,900);
},
{
name = topright;
pos = (315,900);
}
);
hints = (
{
horizontal = 1;
place = (769,35);
type = Stem;
},
{
horizontal = 1;
place = (573,86);
type = Stem;
},
{
place = (97,148);
type = Stem;
}
);
layerId = m01;
shapes = (
{
closed = 1;
nodes = (
(315,0,l),
(315,721,l),
(167,659,l),
(167,0,l)
);
},
{
closed = 1;
nodes = (
(315,573,l),
(315,720,ls),
(315,781,o),
(269,804,o),
(223,804,cs),
(165,804,o),
(120,794,o),
(100,763,c),
(104,753,l),
(126,784,o),
(167,769,o),
(167,718,cs),
(167,573,l)
);
}
);
width = 415;
}
);
unicode = 108;
},
{
color = 4;
glyphname = m;
lastChange = "2026-06-16 00:37:54 +0000";
layers = (
{
anchors = (
{
name = bottom;
pos = (497,0);
},
{
name = top;
pos = (497,500);
}
);
layerId = "E5DC9139-DBE8-45F6-BCD0-0641ED917C2C";
shapes = (
{
closed = 1;
nodes = (
(903,0,l),
(903,284,ls),
(903,342,o),
(903,385,o),
(879,431,cs),
(847,492,o),
(753,511,o),
(687,506,cs),
(600,500,o),
(562,434,o),
(553,411,cs),
(543,384,l),
(545,334,l),
(547,398,o),
(595,492,o),
(697,493,cs),
(818,494,o),
(835,426,o),
(835,308,cs),
(835,0,l)
);
},
{
closed = 1;
nodes = (
(235,1,l),
(235,421,l),
(167,409,l),
(167,1,l)
);
},
{
closed = 1;
nodes = (
(235,401,l),
(235,421,ls),
(235,482,o),
(214,505,o),
(183,505,cs),
(150,505,o),
(120,495,o),
(100,464,c),
(104,454,l),
(126,485,o),
(167,502,o),
(167,419,cs),
(167,401,l)
);
},
{
closed = 1;
nodes = (
(569,0,l),
(569,284,ls),
(569,342,o),
(569,385,o),
(545,431,cs),
(513,492,o),
(419,511,o),
(353,506,cs),
(266,500,o),
(228,434,o),
(219,411,cs),
(209,384,l),
(211,334,l),
(213,398,o),
(261,492,o),
(363,493,cs),
(484,494,o),
(501,426,o),
(501,308,cs),
(501,0,l)
);
}
);
width = 1003;
},
{
anchors = (
{
name = bottom;
pos = (502,0);
},
{
name = top;
pos = (502,500);
}
);
layerId = "2F0BCB80-3430-4FA1-A4A3-7C385E8DAA98";
shapes = (
{
closed = 1;
nodes = (
(913,0,l),
(913,284,ls),
(913,342,o),
(913,385,o),
(896,417,cs),
(857,492,o),
(743,511,o),
(677,506,cs),
(590,500,o),
(552,434,o),
(543,411,cs),
(533,384,l),
(534,323,l),
(536,387,o),
(585,489,o),
(687,489,cs),
(793,489,o),
(805,408,o),
(805,308,cs),
(805,0,l)
);
},
{
closed = 1;
nodes = (
(275,1,l),
(275,421,l),
(167,421,l),
(167,1,l)
);
},
{
closed = 1;
nodes = (
(275,371,l),
(275,420,ls),
(275,481,o),
(244,505,o),
(193,505,cs),
(160,505,o),
(120,495,o),
(100,464,c),
(104,454,l),
(126,485,o),
(167,482,o),
(167,419,cs),
(167,371,l)
);
},
{
closed = 1;
nodes = (
(589,0,l),
(589,284,ls),
(589,342,o),
(589,385,o),
(572,417,cs),
(533,492,o),
(426,511,o),
(360,506,cs),
(273,500,o),
(235,434,o),
(226,411,cs),
(216,384,l),
(217,323,l),
(219,387,o),
(268,489,o),
(370,489,cs),
(476,489,o),
(488,408,o),
(488,308,cs),
(488,0,l)
);
}
);
width = 1013;
},
{
anchors = (
{
name = bottom;
pos = (509,0);
},
{
name = top;
pos = (509,500);
}
);
hints = (
{
horizontal = 1;
place = (487,19);
type = Stem;
},
{
horizontal = 1;
place = (471,34);
type = Stem;
},
{
horizontal = 1;
place = (326,43);
type = Stem;
},
{
place = (720,148);
type = Stem;
},
{
place = (458.5,90.5);
type = Stem;
},
{
place = (419,130);
type = Stem;
},
{
place = (419,40);
type = Stem;
},
{
place = (157,98);
type = Stem;
},
{
place = (107,148);
type = Stem;
},
{
place = (107,50);
type = Stem;
}
);
layerId = m01;
shapes = (
{
closed = 1;
nodes = (
(928,0,l),
(928,284,ls),
(928,342,o),
(928,385,o),
(915,410,cs),
(872,492,o),
(728,511,o),
(662,506,cs),
(575,500,o),
(537,434,o),
(528,411,cs),
(518,384,l),
(519,318,l),
(521,382,o),
(569,488,o),
(672,487,cs),
(771,486,o),
(780,399,o),
(780,308,cs),
(780,0,l)
);
},
{
closed = 1;
nodes = (
(315,1,l),
(315,421,l),
(167,369,l),
(167,1,l)
);
},
{
closed = 1;
nodes = (
(315,326,l),
(315,419,ls),
(315,480,o),
(269,505,o),
(198,505,cs),
(165,505,o),
(120,495,o),
(100,464,c),
(104,454,l),
(126,485,o),
(167,472,o),
(167,419,cs),
(167,326,l)
);
},
{
closed = 1;
nodes = (
(609,0,l),
(609,284,ls),
(609,342,o),
(609,385,o),
(596,410,cs),
(553,492,o),
(427,511,o),
(361,506,cs),
(274,500,o),
(236,434,o),
(227,411,cs),
(217,384,l),
(217,318,l),
(219,382,o),
(268,488,o),
(371,487,cs),
(468,487,o),
(479,399,o),
(479,308,cs),
(479,0,l)
);
}
);
width = 1028;
}
);
unicode = 109;
},
{
color = 4;
glyphname = n;
lastChange = "2026-06-16 00:37:54 +0000";
layers = (
{
anchors = (
{
name = bottom;
pos = (330,0);
},
{
name = top;
pos = (330,500);
}
);
layerId = "E5DC9139-DBE8-45F6-BCD0-0641ED917C2C";
shapes = (
{
closed = 1;
nodes = (
(569,0,l),
(569,284,ls),
(569,342,o),
(569,385,o),
(545,431,cs),
(513,492,o),
(419,511,o),
(353,506,cs),
(266,500,o),
(228,434,o),
(219,411,cs),
(209,384,l),
(211,334,l),
(213,398,o),
(261,492,o),
(363,493,cs),
(484,494,o),
(501,426,o),
(501,308,cs),
(501,0,l)
);
},
{
closed = 1;
nodes = (
(235,1,l),
(235,421,l),
(167,409,l),
(167,1,l)
);
},
{
closed = 1;
nodes = (
(235,401,l),
(235,421,ls),
(235,482,o),
(214,505,o),
(183,505,cs),
(150,505,o),
(120,495,o),
(100,464,c),
(104,454,l),
(126,485,o),
(167,502,o),
(167,419,cs),
(167,401,l)
);
}
);
width = 669;
},
{
anchors = (
{
name = bottom;
pos = (343,0);
},
{
name = top;
pos = (343,500);
}
);
layerId = "2F0BCB80-3430-4FA1-A4A3-7C385E8DAA98";
shapes = (
{
closed = 1;
nodes = (
(596,0,l),
(596,284,ls),
(596,342,o),
(596,385,o),
(579,417,cs),
(540,492,o),
(449,511,o),
(370,506,cs),
(270,500,o),
(235,431,o),
(226,408,cs),
(216,384,l),
(217,323,l),
(219,387,o),
(269,489,o),
(370,489,cs),
(479,489,o),
(488,408,o),
(488,308,cs),
(488,0,l)
);
},
{
closed = 1;
nodes = (
(275,0,l),
(275,420,l),
(167,408,l),
(167,0,l)
);
},
{
closed = 1;
nodes = (
(275,400,l),
(275,419,ls),
(275,480,o),
(244,504,o),
(203,504,cs),
(160,504,o),
(120,494,o),
(100,463,c),
(104,453,l),
(126,484,o),
(167,480,o),
(167,420,cs),
(167,400,l)
);
}
);
width = 696;
},
{
anchors = (
{
name = bottom;
pos = (359,0);
},
{
name = top;
pos = (359,500);
}
);
hints = (
{
horizontal = 1;
place = (487,19);
type = Stem;
},
{
horizontal = 1;
place = (468,35);
type = Stem;
},
{
horizontal = 1;
place = (399,14);
type = Stem;
},
{
place = (419,148);
type = Stem;
},
{
place = (157,88);
type = Stem;
},
{
place = (107,138);
type = Stem;
},
{
place = (107,50);
type = Stem;
}
);
layerId = m01;
shapes = (
{
closed = 1;
nodes = (
(627,0,l),
(627,284,ls),
(627,342,o),
(627,384,o),
(613,410,cs),
(570,493,o),
(484,511,o),
(386,506,cs),
(266,500,o),
(236,427,o),
(227,404,cs),
(217,384,l),
(217,318,l),
(219,382,o),
(270,488,o),
(371,487,cs),
(476,487,o),
(479,399,o),
(479,308,cs),
(479,0,l)
);
},
{
closed = 1;
nodes = (
(305,-1,l),
(305,419,l),
(167,407,l),
(167,-1,l)
);
},
{
closed = 1;
nodes = (
(305,399,l),
(305,416,ls),
(305,477,o),
(259,503,o),
(213,503,cs),
(165,503,o),
(120,493,o),
(100,462,c),
(104,452,l),
(126,483,o),
(167,467,o),
(167,422,cs),
(167,399,l)
);
}
);
width = 727;
}
);
unicode = 110;
},
{
color = 4;
glyphname = o;
lastChange = "2026-06-19 00:02:34 +0000";
layers = (
{
anchors = (
{
name = bottom;
pos = (328,0);
},
{
name = center;
pos = (328,250);
},
{
name = ogonek;
pos = (534,10);
},
{
name = top;
pos = (328,500);
},
{
name = topright;
pos = (566,500);
}
);
layerId = "E5DC9139-DBE8-45F6-BCD0-0641ED917C2C";
shapes = (
{
closed = 1;
nodes = (
(468,-7,o),
(556,92,o),
(556,250,cs),
(556,408,o),
(468,507,o),
(328,507,cs),
(188,507,o),
(100,408,o),
(100,250,cs),
(100,92,o),
(188,-7,o),
(328,-7,cs)
);
},
{
closed = 1;
nodes = (
(230,3,o),
(168,98,o),
(168,250,cs),
(168,402,o),
(230,498,o),
(328,498,cs),
(426,498,o),
(488,402,o),
(488,250,cs),
(488,98,o),
(426,3,o),
(328,3,cs)
);
}
);
width = 656;
},
{
anchors = (
{
name = bottom;
pos = (328,0);
},
{
name = center;
pos = (328,250);
},
{
name = ogonek;
pos = (534,10);
},
{
name = top;
pos = (328,500);
},
{
name = topright;
pos = (566,500);
}
);
layerId = "2F0BCB80-3430-4FA1-A4A3-7C385E8DAA98";
shapes = (
{
closed = 1;
nodes = (
(468,-7,o),
(556,92,o),
(556,250,cs),
(556,408,o),
(468,507,o),
(328,507,cs),
(188,507,o),
(100,408,o),
(100,250,cs),
(100,92,o),
(188,-7,o),
(328,-7,cs)
);
},
{
closed = 1;
nodes = (
(254,8,o),
(208,101,o),
(208,250,cs),
(208,399,o),
(254,492,o),
(328,492,cs),
(402,492,o),
(448,399,o),
(448,250,cs),
(448,101,o),
(402,8,o),
(328,8,cs)
);
}
);
width = 656;
},
{
anchors = (
{
name = bottom;
pos = (328,0);
},
{
name = center;
pos = (328,250);
},
{
name = ogonek;
pos = (534,10);
},
{
name = top;
pos = (328,500);
},
{
name = topright;
pos = (566,500);
}
);
hints = (
{
horizontal = 1;
place = (489,18);
type = Stem;
},
{
horizontal = 1;
place = (-7,18);
type = Stem;
},
{
place = (338,148);
type = Stem;
},
{
place = (30,148);
type = Stem;
}
);
layerId = m01;
shapes = (
{
closed = 1;
nodes = (
(468,-7,o),
(556,92,o),
(556,250,cs),
(556,408,o),
(468,507,o),
(328,507,cs),
(188,507,o),
(100,408,o),
(100,250,cs),
(100,92,o),
(188,-7,o),
(328,-7,cs)
);
},
{
closed = 1;
nodes = (
(279,11,o),
(248,103,o),
(248,250,cs),
(248,397,o),
(279,489,o),
(328,489,cs),
(377,489,o),
(408,397,o),
(408,250,cs),
(408,103,o),
(377,11,o),
(328,11,cs)
);
}
);
width = 656;
}
);
unicode = 111;
},
{
color = 4;
glyphname = p;
lastChange = "2026-06-19 00:03:20 +0000";
layers = (
{
anchors = (
{
name = bottom;
pos = (347,0);
},
{
name = top;
pos = (347,500);
}
);
layerId = "E5DC9139-DBE8-45F6-BCD0-0641ED917C2C";
shapes = (
{
closed = 1;
nodes = (
(502,-17,o),
(604,88,o),
(604,249,cs),
(604,408,o),
(502,512,o),
(358,501,cs),
(300,497,o),
(244,458,o),
(224,406,cs),
(214,379,l),
(216,329,l),
(219,422,o),
(282,487,o),
(368,488,cs),
(467,489,o),
(536,390,o),
(536,249,cs),
(534,107,o),
(465,7,o),
(368,7,cs),
(282,8,o),
(219,73,o),
(216,166,c),
(214,116,l),
(224,89,ls),
(244,37,o),
(300,-2,o),
(358,-6,cs)
);
},
{
closed = 1;
nodes = (
(235,-237,l),
(235,423,l),
(167,404,l),
(167,-237,l)
);
},
{
closed = 1;
nodes = (
(235,403,l),
(235,423,ls),
(235,484,o),
(214,507,o),
(183,507,cs),
(150,507,o),
(120,497,o),
(100,466,c),
(104,456,l),
(126,487,o),
(167,504,o),
(167,421,cs),
(167,403,l)
);
}
);
width = 704;
},
{
anchors = (
{
name = bottom;
pos = (363,0);
},
{
name = top;
pos = (363,500);
}
);
guides = (
{
pos = (391,504);
}
);
layerId = "2F0BCB80-3430-4FA1-A4A3-7C385E8DAA98";
shapes = (
{
closed = 1;
nodes = (
(533,-12,o),
(640,92,o),
(640,251,cs),
(640,411,o),
(533,516,o),
(380,504,cs),
(322,500,o),
(266,461,o),
(246,409,cs),
(236,382,l),
(237,321,l),
(240,418,o),
(301,487,o),
(385,487,cs),
(471,487,o),
(532,390,o),
(532,251,cs),
(532,113,o),
(471,16,o),
(385,16,cs),
(301,16,o),
(240,85,o),
(237,182,c),
(236,121,l),
(246,94,ls),
(266,42,o),
(322,3,o),
(380,-1,cs)
);
},
{
closed = 1;
nodes = (
(275,-238,l),
(275,421,l),
(167,413,l),
(167,-238,l)
);
},
{
closed = 1;
nodes = (
(271,402,l),
(275,421,l),
(275,482,o),
(244,506,o),
(203,506,cs),
(160,506,o),
(120,496,o),
(100,465,c),
(104,455,l),
(126,486,o),
(167,489,o),
(167,420,cs),
(167,402,l)
);
}
);
width = 740;
},
{
anchors = (
{
name = bottom;
pos = (376,0);
},
{
name = top;
pos = (376,500);
}
);
hints = (
{
horizontal = 1;
place = (487,19);
type = Stem;
},
{
horizontal = 1;
place = (475,31);
type = Stem;
},
{
horizontal = 1;
place = (402,18);
type = Stem;
},
{
horizontal = 1;
place = (2,19);
type = Stem;
},
{
place = (464,148);
type = Stem;
},
{
place = (187.5,67.5);
type = Stem;
},
{
place = (107,148);
type = Stem;
},
{
place = (107,81);
type = Stem;
}
);
layerId = m01;
shapes = (
{
closed = 1;
nodes = (
(556,-10,o),
(672,93,o),
(672,252,cs),
(672,414,o),
(556,519,o),
(391,506,cs),
(333,502,o),
(277,463,o),
(257,411,cs),
(247,384,l),
(248,317,l),
(251,417,o),
(309,487,o),
(389,487,cs),
(468,486,o),
(524,389,o),
(524,252,cs),
(525,116,o),
(470,21,o),
(389,21,cs),
(309,20,o),
(251,90,o),
(248,190,c),
(247,124,l),
(257,97,ls),
(277,45,o),
(333,6,o),
(391,2,cs)
);
},
{
closed = 1;
nodes = (
(315,-236,l),
(315,419,l),
(167,421,l),
(167,-236,l)
);
},
{
closed = 1;
nodes = (
(305,402,l),
(315,419,l),
(315,480,o),
(269,506,o),
(223,506,cs),
(165,506,o),
(120,496,o),
(100,465,c),
(104,455,l),
(126,486,o),
(167,488,o),
(167,420,cs),
(167,402,l)
);
}
);
width = 772;
}
);
unicode = 112;
},
{
color = 4;
glyphname = r;
lastChange = "2026-06-19 00:01:38 +0000";
layers = (
{
anchors = (
{
name = bottom;
pos = (272,0);
},
{
name = top;
pos = (272,500);
}
);
layerId = "E5DC9139-DBE8-45F6-BCD0-0641ED917C2C";
shapes = (
{
closed = 1;
nodes = (
(235,0,l),
(235,420,l),
(167,408,l),
(167,0,l)
);
},
{
pos = (60,0);
ref = "bold-top-term";
},
{
closed = 1;
nodes = (
(242,462,o),
(303,502,o),
(374,502,cs),
(401,502,o),
(427,491,o),
(438,475,c),
(446,480,l),
(435,498,o),
(406,511,o),
(376,511,cs),
(299,511,o),
(233,468,o),
(216,408,c),
(226,405,l)
);
},
{
closed = 1;
nodes = (
(434,408,o),
(453,427,o),
(453,455,cs),
(453,483,o),
(434,503,o),
(406,503,cs),
(378,503,o),
(358,483,o),
(358,455,cs),
(358,427,o),
(378,408,o),
(406,408,cs)
);
}
);
width = 553;
},
{
anchors = (
{
name = bottom;
pos = (288,0);
},
{
name = top;
pos = (288,500);
}
);
layerId = "2F0BCB80-3430-4FA1-A4A3-7C385E8DAA98";
shapes = (
{
closed = 1;
nodes = (
(275,0,l),
(275,420,l),
(167,408,l),
(167,0,l)
);
},
{
pos = (60,0);
ref = "bold-top-term";
},
{
closed = 1;
nodes = (
(258,460,o),
(318,499,o),
(386,499,cs),
(412,499,o),
(437,488,o),
(445,473,c),
(462,481,l),
(449,499,o),
(419,511,o),
(388,511,cs),
(311,511,o),
(245,469,o),
(228,409,c),
(242,405,l)
);
},
{
closed = 1;
nodes = (
(451,387,o),
(475,411,o),
(475,445,cs),
(475,480,o),
(451,504,o),
(417,504,cs),
(382,504,o),
(358,480,o),
(358,445,cs),
(358,411,o),
(382,387,o),
(417,387,cs)
);
}
);
width = 575;
},
{
anchors = (
{
name = bottom;
pos = (305,0);
},
{
name = top;
pos = (305,500);
}
);
hints = (
{
horizontal = 1;
place = (497,14);
type = Stem;
},
{
horizontal = 1;
place = (469,34);
type = Stem;
},
{
horizontal = 1;
place = (405,8);
type = Stem;
},
{
horizontal = 1;
place = (399,14);
type = Stem;
},
{
horizontal = 1;
place = (362,140);
type = Stem;
},
{
place = (296,140);
type = Stem;
},
{
place = (107,148);
type = Stem;
}
);
layerId = m01;
shapes = (
{
closed = 1;
nodes = (
(315,0,l),
(315,419,l),
(167,407,l),
(167,0,l)
);
},
{
pos = (63,-1);
ref = "bold-top-term";
},
{
closed = 1;
nodes = (
(266,459,o),
(325,497,o),
(393,497,cs),
(418,497,o),
(441,487,o),
(449,473,c),
(474,482,l),
(458,499,o),
(424,511,o),
(393,511,cs),
(317,511,o),
(251,469,o),
(234,410,c),
(251,405,l)
);
},
{
closed = 1;
nodes = (
(468,362,o),
(496,390,o),
(496,431,cs),
(496,473,o),
(468,502,o),
(427,502,cs),
(385,502,o),
(356,473,o),
(356,431,cs),
(356,390,o),
(385,362,o),
(427,362,cs)
);
}
);
width = 596;
}
);
unicode = 114;
},
{
color = 4;
glyphname = s;
lastChange = "2026-06-16 00:37:54 +0000";
layers = (
{
anchors = (
{
name = bottom;
pos = (272,0);
},
{
name = top;
pos = (272,500);
}
);
layerId = "E5DC9139-DBE8-45F6-BCD0-0641ED917C2C";
shapes = (
{
closed = 1;
nodes = (
(421,2,o),
(461,117,o),
(437,190,cs),
(395,320,o),
(176,274,o),
(172,389,cs),
(170,445,o),
(222,487,o),
(277,492,cs),
(342,498,o),
(422,490,o),
(426,388,c),
(436,388,l),
(436,435,o),
(418,508,o),
(297,507,cs),
(184,506,o),
(122,441,o),
(117,372,cs),
(106,204,o),
(381,262,o),
(383,122,cs),
(384,75,o),
(329,12,o),
(251,12,cs),
(157,12,o),
(107,90,o),
(111,168,c),
(100,168,l),
(97,63,o),
(166,-6,o),
(262,-3,cs)
);
},
{
closed = 1;
nodes = (
(416,345,o),
(436,364,o),
(436,388,cs),
(436,411,o),
(416,431,o),
(392,431,cs),
(369,431,o),
(349,411,o),
(349,388,cs),
(349,364,o),
(369,345,o),
(392,345,cs)
);
}
);
width = 543;
},
{
anchors = (
{
name = bottom;
pos = (273,0);
},
{
name = top;
pos = (273,500);
}
);
layerId = "2F0BCB80-3430-4FA1-A4A3-7C385E8DAA98";
shapes = (
{
closed = 1;
nodes = (
(422,2,o),
(462,117,o),
(438,190,cs),
(396,320,o),
(199,289,o),
(193,389,cs),
(190,432,o),
(224,482,o),
(278,490,cs),
(334,498,o),
(426,490,o),
(427,388,c),
(437,388,l),
(437,433,o),
(419,508,o),
(298,507,cs),
(185,506,o),
(123,441,o),
(118,372,cs),
(107,204,o),
(344,232,o),
(357,122,cs),
(362,80,o),
(330,17,o),
(252,17,cs),
(163,17,o),
(114,91,o),
(116,169,c),
(100,169,l),
(99,64,o),
(167,-6,o),
(263,-3,cs)
);
},
{
closed = 1;
nodes = (
(413,335,o),
(437,358,o),
(437,388,cs),
(437,417,o),
(413,441,o),
(384,441,cs),
(355,441,o),
(331,417,o),
(331,388,cs),
(331,358,o),
(355,335,o),
(384,335,cs)
);
}
);
width = 544;
},
{
anchors = (
{
name = bottom;
pos = (272,0);
},
{
name = top;
pos = (272,500);
}
);
hints = (
{
horizontal = 1;
place = (489,18);
type = Stem;
},
{
horizontal = 1;
place = (388,63);
type = Stem;
},
{
horizontal = 1;
place = (325,126);
type = Stem;
},
{
horizontal = 1;
place = (-3,23);
type = Stem;
},
{
place = (351,14);
type = Stem;
},
{
place = (262,111);
type = Stem;
},
{
place = (241,124);
type = Stem;
},
{
place = (47,100);
type = Stem;
},
{
place = (30,17);
type = Stem;
}
);
layerId = m01;
shapes = (
{
closed = 1;
nodes = (
(421,2,o),
(461,117,o),
(437,190,cs),
(395,320,o),
(225,307,o),
(217,389,cs),
(212,421,o),
(221,479,o),
(277,489,cs),
(324,497,o),
(416,483,o),
(421,388,c),
(435,388,l),
(435,434,o),
(396,508,o),
(297,507,cs),
(184,506,o),
(122,441,o),
(117,372,cs),
(106,204,o),
(298,207,o),
(328,122,cs),
(339,88,o),
(329,20,o),
(251,20,cs),
(172,20,o),
(118,86,o),
(117,161,c),
(100,161,l),
(101,60,o),
(168,-6,o),
(262,-3,cs)
);
},
{
closed = 1;
nodes = (
(407,325,o),
(435,352,o),
(435,388,cs),
(435,423,o),
(407,451,o),
(374,451,cs),
(339,451,o),
(311,423,o),
(311,388,cs),
(311,352,o),
(339,325,o),
(374,325,cs)
);
}
);
width = 543;
}
);
unicode = 115;
},
{
color = 4;
glyphname = t;
lastChange = "2026-06-24 03:34:44 +0000";
layers = (
{
anchors = (
{
name = bottom;
pos = (192,0);
},
{
name = center;
pos = (192,250);
},
{
name = top;
pos = (192,614);
},
{
name = topright;
pos = (293,900);
}
);
layerId = "E5DC9139-DBE8-45F6-BCD0-0641ED917C2C";
shapes = (
{
closed = 1;
nodes = (
(216,102,l),
(216,614,l),
(216,585,o),
(195,567,o),
(169,567,cs),
(148,567,l),
(148,102,l)
);
},
{
closed = 1;
nodes = (
(233,0,o),
(263,10,o),
(283,41,c),
(279,51,l),
(257,20,o),
(216,3,o),
(216,86,cs),
(216,104,l),
(148,104,l),
(148,84,ls),
(148,23,o),
(169,0,o),
(200,0,cs)
);
},
{
closed = 1;
nodes = (
(264,495,l),
(264,505,l),
(100,505,l),
(100,495,l)
);
}
);
width = 383;
},
{
anchors = (
{
name = bottom;
pos = (207,0);
},
{
name = center;
pos = (207,250);
},
{
name = top;
pos = (207,624);
},
{
name = topright;
pos = (323,900);
}
);
layerId = "2F0BCB80-3430-4FA1-A4A3-7C385E8DAA98";
shapes = (
{
closed = 1;
nodes = (
(256,96,l),
(256,624,l),
(256,599,o),
(230,566,o),
(198,566,cs),
(148,566,l),
(148,94,l)
);
},
{
closed = 1;
nodes = (
(273,0,o),
(303,10,o),
(323,41,c),
(319,51,l),
(297,20,o),
(256,13,o),
(256,86,cs),
(256,104,l),
(148,104,l),
(148,84,ls),
(148,23,o),
(179,0,o),
(230,0,cs)
);
},
{
closed = 1;
nodes = (
(304,493,l),
(304,508,l),
(100,508,l),
(100,493,l)
);
}
);
width = 423;
},
{
anchors = (
{
name = bottom;
pos = (220,0);
},
{
name = center;
pos = (220,250);
},
{
name = top;
pos = (220,629);
},
{
name = topright;
pos = (349,900);
}
);
hints = (
{
horizontal = 1;
place = (493,68);
type = Stem;
},
{
horizontal = 1;
place = (493,17);
type = Stem;
},
{
horizontal = 1;
place = (86.5,17.5);
type = Stem;
},
{
horizontal = 1;
place = (0,28);
type = Stem;
},
{
place = (79,148);
type = Stem;
}
);
layerId = m01;
shapes = (
{
closed = 1;
nodes = (
(297,89,l),
(297,629,l),
(297,612,o),
(267,561,o),
(229,561,cs),
(149,561,l),
(149,84,l)
);
},
{
closed = 1;
nodes = (
(324,0,o),
(344,10,o),
(364,41,c),
(360,51,l),
(338,20,o),
(297,8,o),
(297,86,cs),
(297,104,l),
(149,104,l),
(149,84,ls),
(149,23,o),
(195,0,o),
(266,0,cs)
);
},
{
closed = 1;
nodes = (
(345,490,l),
(345,510,l),
(100,510,l),
(100,490,l)
);
}
);
width = 464;
}
);
unicode = 116;
},
{
color = 4;
glyphname = v;
lastChange = "2026-06-16 00:37:54 +0000";
layers = (
{
anchors = (
{
name = bottom;
pos = (315,0);
},
{
name = top;
pos = (315,500);
}
);
layerId = "E5DC9139-DBE8-45F6-BCD0-0641ED917C2C";
shapes = (
{
closed = 1;
nodes = (
(347,79,l),
(174,501,l),
(100,501,l),
(310,-11,l)
);
},
{
closed = 1;
nodes = (
(530,500,l),
(519,500,l),
(310,14,l),
(310,-11,l)
);
}
);
width = 630;
},
{
anchors = (
{
name = bottom;
pos = (317,0);
},
{
name = top;
pos = (317,500);
}
);
layerId = "2F0BCB80-3430-4FA1-A4A3-7C385E8DAA98";
shapes = (
{
closed = 1;
nodes = (
(366,122,l),
(216,501,l),
(100,501,l),
(312,-16,l)
);
},
{
closed = 1;
nodes = (
(533,500,l),
(517,500,l),
(312,20,l),
(312,-16,l)
);
}
);
width = 633;
},
{
anchors = (
{
name = bottom;
pos = (317,0);
},
{
name = top;
pos = (317,500);
}
);
hints = (
{
horizontal = 1;
place = (-20,521);
type = Stem;
},
{
place = (30,433);
type = Stem;
}
);
layerId = m01;
shapes = (
{
closed = 1;
nodes = (
(384,165,l),
(258,501,l),
(100,501,l),
(313,-20,l)
);
},
{
closed = 1;
nodes = (
(533,500,l),
(514,500,l),
(319,33,l),
(313,-20,l)
);
}
);
width = 633;
}
);
unicode = 118;
},
{
color = 4;
glyphname = w;
lastChange = "2026-06-16 00:37:54 +0000";
layers = (
{
anchors = (
{
name = bottom;
pos = (456,0);
},
{
name = top;
pos = (456,500);
}
);
layerId = "E5DC9139-DBE8-45F6-BCD0-0641ED917C2C";
shapes = (
{
closed = 1;
nodes = (
(332,84,l),
(173,500,l),
(100,500,l),
(295,-14,l)
);
},
{
closed = 1;
nodes = (
(492,475,l),
(487,489,l),
(303,32,l),
(295,-14,l)
);
},
{
closed = 1;
nodes = (
(643,84,l),
(489,500,l),
(416,500,l),
(606,-14,l)
);
},
{
closed = 1;
nodes = (
(812,500,l),
(801,500,l),
(620,49,l),
(606,-14,l)
);
}
);
width = 912;
},
{
anchors = (
{
name = bottom;
pos = (455,0);
},
{
name = top;
pos = (455,500);
}
);
guides = (
{
angle = -69.0442;
pos = (286,312);
},
{
angle = -69.7116;
pos = (598,312);
}
);
layerId = "2F0BCB80-3430-4FA1-A4A3-7C385E8DAA98";
shapes = (
{
closed = 1;
nodes = (
(353,137,l),
(214,500,l),
(100,500,l),
(294,-13,l)
);
},
{
closed = 1;
nodes = (
(494,485,l),
(481,492,l),
(321,95,l),
(294,-13,l)
);
},
{
closed = 1;
nodes = (
(662,139,l),
(528,500,l),
(414,500,l),
(603,-13,l)
);
},
{
closed = 1;
nodes = (
(810,501,l),
(794,501,l),
(631,95,l),
(603,-13,l)
);
}
);
width = 910;
},
{
anchors = (
{
name = bottom;
pos = (456,0);
},
{
name = top;
pos = (456,500);
}
);
hints = (
{
horizontal = 1;
place = (490,9);
type = Stem;
},
{
place = (30,711);
type = Stem;
}
);
layerId = m01;
shapes = (
{
closed = 1;
nodes = (
(375,186,l),
(255,499,l),
(100,499,l),
(296,-12,l)
);
},
{
closed = 1;
nodes = (
(497,490,l),
(481,495,l),
(333,128,l),
(296,-12,l)
);
},
{
closed = 1;
nodes = (
(686,191,l),
(571,499,l),
(416,499,l),
(604,-12,l)
);
},
{
closed = 1;
nodes = (
(811,502,l),
(793,502,l),
(640,119,l),
(604,-12,l)
);
}
);
width = 911;
}
);
unicode = 119;
},
{
color = 4;
glyphname = x;
lastChange = "2026-06-24 03:06:36 +0000";
layers = (
{
anchors = (
{
name = bottom;
pos = (326,0);
},
{
name = top;
pos = (326,500);
}
);
layerId = "E5DC9139-DBE8-45F6-BCD0-0641ED917C2C";
shapes = (
{
closed = 1;
nodes = (
(551,0,l),
(197,501,l),
(125,501,l),
(478,0,l)
);
},
{
closed = 1;
nodes = (
(112,0,l),
(320,277,l),
(312,283,l),
(100,0,l)
);
},
{
closed = 1;
nodes = (
(487,500,l),
(475,500,l),
(324,290,l),
(332,284,l)
);
}
);
width = 651;
},
{
anchors = (
{
name = bottom;
pos = (341,0);
},
{
name = top;
pos = (341,500);
}
);
layerId = "2F0BCB80-3430-4FA1-A4A3-7C385E8DAA98";
shapes = (
{
closed = 1;
nodes = (
(561,0,l),
(208,500,l),
(100,500,l),
(453,0,l)
);
},
{
closed = 1;
nodes = (
(134,0,l),
(316,242,l),
(304,251,l),
(116,0,l)
);
},
{
closed = 1;
nodes = (
(520,500,l),
(501,500,l),
(342,279,l),
(354,270,l)
);
}
);
width = 661;
},
{
anchors = (
{
name = bottom;
pos = (376,0);
},
{
name = top;
pos = (376,500);
}
);
hints = (
{
horizontal = 1;
place = (-1,501);
type = Stem;
},
{
place = (-7,490);
type = Stem;
}
);
layerId = m01;
shapes = (
{
closed = 1;
nodes = (
(589,0,l),
(237,500,l),
(100,500,l),
(453,0,l)
);
},
{
closed = 1;
nodes = (
(173,0,l),
(343,225,l),
(329,235,l),
(152,0,l)
);
},
{
closed = 1;
nodes = (
(576,500,l),
(553,500,l),
(382,263,l),
(396,252,l)
);
}
);
width = 690;
}
);
unicode = 120;
},
{
color = 4;
glyphname = y;
lastChange = "2026-06-24 03:34:07 +0000";
layers = (
{
anchors = (
{
name = bottom;
pos = (322,0);
},
{
name = top;
pos = (322,500);
}
);
guides = (
{
angle = 66.9802;
pos = (-6066,286);
}
);
layerId = "E5DC9139-DBE8-45F6-BCD0-0641ED917C2C";
shapes = (
{
closed = 1;
nodes = (
(378,63,l),
(168,500,l),
(100,500,l),
(347,-25,l)
);
},
{
closed = 1;
nodes = (
(286,-172,o),
(307,-151,o),
(307,-125,cs),
(307,-98,o),
(286,-77,o),
(260,-77,cs),
(233,-77,o),
(212,-98,o),
(212,-125,cs),
(212,-151,o),
(233,-172,o),
(260,-172,cs)
);
},
{
attr = {
lineCapStart = "4";
strokePos = "0";
strokeWidth = 10;
};
closed = 0;
nodes = (
(543,496,l),
(317,-123,ls),
(304,-158,o),
(281,-173,o),
(259,-172,cs)
);
}
);
width = 644;
},
{
anchors = (
{
name = bottom;
pos = (323,0);
},
{
name = top;
pos = (323,500);
}
);
layerId = "2F0BCB80-3430-4FA1-A4A3-7C385E8DAA98";
shapes = (
{
closed = 1;
nodes = (
(394,112,l),
(210,500,l),
(100,500,l),
(346,-22,l)
);
},
{
closed = 1;
nodes = (
(289,-173,o),
(316,-146,o),
(316,-113,cs),
(316,-80,o),
(289,-53,o),
(256,-53,cs),
(223,-53,o),
(196,-80,o),
(196,-113,cs),
(196,-146,o),
(223,-173,o),
(256,-173,cs)
);
},
{
attr = {
lineCapStart = "4";
strokePos = "0";
strokeWidth = 15;
};
closed = 0;
nodes = (
(544,496,l),
(318,-123,ls),
(287,-207,o),
(211,-167,o),
(201,-137,c)
);
}
);
width = 645;
},
{
anchors = (
{
name = bottom;
pos = (319,0);
},
{
name = top;
pos = (319,500);
}
);
hints = (
{
horizontal = 1;
place = (-199,131);
type = Stem;
},
{
horizontal = 1;
place = (-199,16);
type = Stem;
},
{
horizontal = 1;
place = (-201,18);
type = Stem;
},
{
place = (54,135);
type = Stem;
}
);
layerId = m01;
shapes = (
{
closed = 1;
nodes = (
(412,168,l),
(252,500,l),
(100,500,l),
(344,-16,l)
);
},
{
closed = 1;
nodes = (
(280,-172,o),
(311,-141,o),
(311,-102,cs),
(311,-64,o),
(280,-32,o),
(241,-32,cs),
(203,-32,o),
(171,-64,o),
(171,-102,cs),
(171,-141,o),
(203,-172,o),
(241,-172,cs)
);
},
{
attr = {
lineCapStart = "4";
strokePos = "0";
strokeWidth = 20;
};
closed = 0;
nodes = (
(536,496,l),
(310,-123,ls),
(288,-183,o),
(213,-189,o),
(183,-141,c)
);
}
);
width = 637;
}
);
metricLeft = "=100";
metricRight = "=100";
unicode = 121;
},
{
color = 4;
glyphname = z;
lastChange = "2026-06-16 00:37:54 +0000";
layers = (
{
anchors = (
{
name = bottom;
pos = (284,0);
},
{
name = center;
pos = (284,250);
},
{
name = top;
pos = (284,500);
}
);
layerId = "E5DC9139-DBE8-45F6-BCD0-0641ED917C2C";
shapes = (
{
closed = 1;
nodes = (
(168,0,l),
(467,500,l),
(399,500,l),
(100,0,l)
);
},
{
closed = 1;
nodes = (
(463,0,l),
(463,10,l),
(141,10,l),
(141,0,l)
);
},
{
closed = 1;
nodes = (
(463,10,l),
(463,117,l),
(452,62,o),
(430,10,o),
(376,10,c)
);
},
{
closed = 1;
nodes = (
(152,438,o),
(174,490,o),
(228,490,c),
(141,490,l),
(141,383,l)
);
},
{
closed = 1;
nodes = (
(437,490,l),
(437,500,l),
(141,500,l),
(141,490,l)
);
}
);
width = 567;
},
{
anchors = (
{
name = bottom;
pos = (304,0);
},
{
name = center;
pos = (304,250);
},
{
name = top;
pos = (304,500);
}
);
layerId = "2F0BCB80-3430-4FA1-A4A3-7C385E8DAA98";
shapes = (
{
closed = 1;
nodes = (
(208,0,l),
(507,500,l),
(399,500,l),
(100,0,l)
);
},
{
closed = 1;
nodes = (
(498,0,l),
(498,15,l),
(141,15,l),
(141,0,l)
);
},
{
closed = 1;
nodes = (
(498,15,l),
(498,145,l),
(485,78,o),
(458,15,o),
(393,15,c)
);
},
{
closed = 1;
nodes = (
(154,421,o),
(181,485,o),
(246,485,c),
(141,485,l),
(141,355,l)
);
},
{
closed = 1;
nodes = (
(448,485,l),
(448,500,l),
(141,500,l),
(141,485,l)
);
}
);
width = 607;
},
{
anchors = (
{
name = bottom;
pos = (324,0);
},
{
name = center;
pos = (324,250);
},
{
name = top;
pos = (324,500);
}
);
hints = (
{
horizontal = 1;
place = (483,17);
type = Stem;
},
{
horizontal = 1;
place = (0,18);
type = Stem;
},
{
place = (40,447);
type = Stem;
}
);
layerId = m01;
shapes = (
{
closed = 1;
nodes = (
(247,0,l),
(547,500,l),
(399,500,l),
(100,0,l)
);
},
{
closed = 1;
nodes = (
(534,0,l),
(534,18,l),
(141,18,l),
(141,0,l)
);
},
{
closed = 1;
nodes = (
(534,18,l),
(534,171,l),
(519,92,o),
(486,18,o),
(410,18,c)
);
},
{
closed = 1;
nodes = (
(156,407,o),
(189,483,o),
(265,483,c),
(141,483,l),
(141,329,l)
);
},
{
closed = 1;
nodes = (
(468,483,l),
(468,500,l),
(141,500,l),
(141,483,l)
);
}
);
width = 647;
}
);
unicode = 122;
},
{
color = 5;
glyphname = "Be-cy";
lastChange = "2026-06-24 03:36:39 +0000";
layers = (
{
hints = (
{
name = _corner.leftserif;
origin = (1,3);
type = Corner;
}
);
layerId = "E5DC9139-DBE8-45F6-BCD0-0641ED917C2C";
shapes = (
{
closed = 1;
nodes = (
(359,0,ls),
(557,0,o),
(655,72,o),
(655,218,cs),
(655,356,o),
(557,425,o),
(359,425,cs),
(242,425,l),
(242,417,l),
(358,417,ls),
(497,417,o),
(567,351,o),
(570,218,cs),
(570,79,o),
(500,10,o),
(359,10,cs),
(208,10,l),
(208,0,l)
);
},
{
closed = 1;
nodes = (
(242,0,l),
(242,797,l),
(174,797,l),
(174,0,l)
);
},
{
closed = 1;
nodes = (
(602,790,l),
(602,800,l),
(100,800,l),
(100,790,l)
);
},
{
closed = 1;
nodes = (
(602,790,l),
(489,790,l),
(555,790,o),
(587,716,o),
(602,639,c)
);
}
);
width = 755;
},
{
hints = (
{
name = _corner.leftserif;
origin = (1,3);
type = Corner;
}
);
layerId = "2F0BCB80-3430-4FA1-A4A3-7C385E8DAA98";
shapes = (
{
closed = 1;
nodes = (
(370,0,ls),
(568,0,o),
(666,72,o),
(666,218,cs),
(666,357,o),
(568,426,o),
(370,426,cs),
(253,426,l),
(253,416,l),
(369,416,ls),
(495,416,o),
(558,350,o),
(561,218,cs),
(561,82,o),
(498,15,o),
(370,15,cs),
(204,15,l),
(204,0,l)
);
},
{
closed = 1;
nodes = (
(283,0,l),
(283,797,l),
(175,797,l),
(175,0,l)
);
},
{
closed = 1;
nodes = (
(602,785,l),
(602,800,l),
(100,800,l),
(100,785,l)
);
},
{
closed = 1;
nodes = (
(602,785,l),
(457,785,l),
(546,785,o),
(583,698,o),
(602,607,c)
);
}
);
width = 766;
},
{
hints = (
{
name = _corner.leftserif;
origin = (1,3);
type = Corner;
}
);
layerId = m01;
shapes = (
{
closed = 1;
nodes = (
(377,0,ls),
(575,0,o),
(673,72,o),
(673,218,cs),
(673,358,o),
(575,427,o),
(377,427,cs),
(260,427,l),
(260,416,l),
(376,416,ls),
(489,416,o),
(546,350,o),
(548,218,cs),
(548,84,o),
(491,18,o),
(377,18,cs),
(230,18,l),
(230,0,l)
);
},
{
closed = 1;
nodes = (
(315,0,l),
(315,797,l),
(177,797,l),
(177,0,l)
);
},
{
closed = 1;
nodes = (
(602,783,l),
(602,800,l),
(100,800,l),
(100,783,l)
);
},
{
closed = 1;
nodes = (
(602,783,l),
(431,783,l),
(538,783,o),
(579,683,o),
(602,579,c)
);
}
);
width = 770;
}
);
unicode = 1041;
},
{
color = 5;
glyphname = "Geupturn-cy";
lastChange = "2026-06-24 08:18:57 +0000";
layers = (
{
hints = (
{
name = _corner.leftserif;
origin = (0,3);
type = Corner;
},
{
name = _corner.leftserif;
options = 1;
origin = (0,0);
scale = (-1,1);
type = Corner;
},
{
name = _corner.leftserif;
options = 1;
origin = (0,2);
scale = (-1,1);
type = Corner;
}
);
layerId = "E5DC9139-DBE8-45F6-BCD0-0641ED917C2C";
shapes = (
{
closed = 1;
nodes = (
(256,0,l),
(256,800,l),
(188,800,l),
(188,0,l)
);
},
{
closed = 1;
nodes = (
(537,785,l),
(537,800,l),
(222,800,l),
(222,785,l)
);
},
{
closed = 1;
nodes = (
(537,800,l),
(537,931,l),
(522,854,o),
(470,800,o),
(394,800,c)
);
}
);
width = 637;
},
{
hints = (
{
name = _corner.leftserif;
origin = (0,3);
type = Corner;
},
{
name = _corner.leftserif;
options = 1;
origin = (0,0);
scale = (-1,1);
type = Corner;
},
{
name = _corner.leftserif;
options = 1;
origin = (0,2);
scale = (-1,1);
type = Corner;
}
);
layerId = "2F0BCB80-3430-4FA1-A4A3-7C385E8DAA98";
shapes = (
{
closed = 1;
nodes = (
(296,0,l),
(296,800,l),
(188,800,l),
(188,0,l)
);
},
{
closed = 1;
nodes = (
(561,785,l),
(561,800,l),
(233,800,l),
(233,785,l)
);
},
{
closed = 1;
nodes = (
(561,800,l),
(561,952,l),
(543,864,o),
(487,800,o),
(401,800,c)
);
}
);
width = 661;
},
{
hints = (
{
name = _corner.leftserif;
origin = (0,3);
type = Corner;
},
{
name = _corner.leftserif;
options = 1;
origin = (0,0);
scale = (-1,1);
type = Corner;
},
{
name = _corner.leftserif;
options = 1;
origin = (0,2);
scale = (-1,1);
type = Corner;
}
);
layerId = m01;
shapes = (
{
closed = 1;
nodes = (
(336,0,l),
(336,800,l),
(188,800,l),
(188,0,l)
);
},
{
closed = 1;
nodes = (
(583,785,l),
(583,800,l),
(261,800,l),
(261,785,l)
);
},
{
closed = 1;
nodes = (
(583,800,l),
(583,969,l),
(562,871,o),
(504,800,o),
(410,800,c)
);
}
);
width = 683;
}
);
unicode = 1168;
},
{
color = 5;
glyphname = "De-cy";
lastChange = "2026-06-17 01:09:56 +0000";
layers = (
{
anchors = (
{
name = bottom;
pos = (401,0);
},
{
name = top;
pos = (401,800);
}
);
layerId = "E5DC9139-DBE8-45F6-BCD0-0641ED917C2C";
shapes = (
{
closed = 1;
nodes = (
(681,785,l),
(681,800,l),
(146,800,l),
(146,785,l)
);
},
{
closed = 1;
nodes = (
(663,0,l),
(663,15,l),
(100,15,l),
(100,0,l)
);
},
{
closed = 1;
nodes = (
(100,-141,l),
(115,-64,o),
(147,0,o),
(223,0,c),
(100,0,l)
);
},
{
closed = 1;
nodes = (
(616,0,o),
(648,-64,o),
(663,-141,c),
(663,0,l),
(540,0,l)
);
},
{
closed = 1;
nodes = (
(592,5,l),
(592,794,l),
(524,794,l),
(524,5,l)
);
},
{
closed = 1;
nodes = (
(161,4,l),
(179,35,o),
(237,133,o),
(241,204,cs),
(278,795,l),
(264,795,l),
(227,204,ls),
(223,135,o),
(167,43,o),
(149,12,c)
);
}
);
width = 781;
},
{
anchors = (
{
name = bottom;
pos = (411,0);
},
{
name = top;
pos = (411,800);
}
);
layerId = "2F0BCB80-3430-4FA1-A4A3-7C385E8DAA98";
shapes = (
{
closed = 1;
nodes = (
(701,780,l),
(701,800,l),
(146,800,l),
(146,780,l)
);
},
{
closed = 1;
nodes = (
(683,0,l),
(683,20,l),
(100,20,l),
(100,0,l)
);
},
{
closed = 1;
nodes = (
(100,-152,l),
(118,-64,o),
(154,0,o),
(240,0,c),
(100,0,l)
);
},
{
closed = 1;
nodes = (
(629,0,o),
(665,-64,o),
(683,-152,c),
(683,0,l),
(543,0,l)
);
},
{
closed = 1;
nodes = (
(612,5,l),
(612,797,l),
(504,797,l),
(504,5,l)
);
},
{
closed = 1;
nodes = (
(164,3,l),
(182,34,o),
(240,132,o),
(244,203,cs),
(281,794,l),
(261,796,l),
(224,205,ls),
(220,136,o),
(164,44,o),
(146,13,c)
);
}
);
width = 801;
},
{
anchors = (
{
name = bottom;
pos = (405,0);
},
{
name = top;
pos = (405,800);
}
);
layerId = m01;
shapes = (
{
closed = 1;
nodes = (
(701,780,l),
(701,800,l),
(146,800,l),
(146,780,l)
);
},
{
closed = 1;
nodes = (
(683,0,l),
(683,20,l),
(100,20,l),
(100,0,l)
);
},
{
closed = 1;
nodes = (
(100,-152,l),
(118,-64,o),
(154,0,o),
(240,0,c),
(100,0,l)
);
},
{
closed = 1;
nodes = (
(629,0,o),
(665,-64,o),
(683,-152,c),
(683,0,l),
(543,0,l)
);
},
{
closed = 1;
nodes = (
(632,5,l),
(632,797,l),
(484,797,l),
(484,5,l)
);
},
{
closed = 1;
nodes = (
(164,3,l),
(182,34,o),
(240,132,o),
(244,203,cs),
(281,794,l),
(261,796,l),
(224,205,ls),
(220,136,o),
(164,44,o),
(146,13,c)
);
}
);
width = 801;
}
);
unicode = 1044;
},
{
color = 5;
glyphname = "Zhe-cy";
lastChange = "2026-06-24 08:20:40 +0000";
layers = (
{
anchors = (
{
name = bottom;
pos = (563,0);
},
{
name = bottomright;
pos = (1036,0);
},
{
name = top;
pos = (563,800);
}
);
hints = (
{
name = _corner.leftserif;
options = 1;
origin = (3,0);
scale = (-1,1);
type = Corner;
},
{
name = _corner.leftserif;
origin = (3,3);
type = Corner;
},
{
name = _corner.leftserif;
origin = (3,1);
type = Corner;
},
{
name = _corner.leftserif;
options = 1;
origin = (3,2);
scale = (-1,1);
type = Corner;
}
);
layerId = "E5DC9139-DBE8-45F6-BCD0-0641ED917C2C";
shapes = (
{
closed = 1;
nodes = (
(1023,18,l),
(963,-6,o),
(921,20,o),
(908,75,cs),
(892,144,o),
(913,246,o),
(884,310,cs),
(855,377,o),
(789,405,o),
(697,412,cs),
(666,415,o),
(619,413,o),
(592,413,c),
(587,402,l),
(697,403,o),
(801,399,o),
(814,244,cs),
(817,209,o),
(818,105,o),
(841,54,cs),
(877,-25,o),
(973,-23,o),
(1026,13,c)
);
},
{
closed = 1;
nodes = (
(153,-23,o),
(249,-25,o),
(285,54,cs),
(308,105,o),
(309,209,o),
(312,244,cs),
(325,399,o),
(429,403,o),
(539,402,c),
(534,413,l),
(507,413,o),
(460,415,o),
(429,412,cs),
(337,405,o),
(271,377,o),
(242,310,cs),
(213,246,o),
(234,144,o),
(218,75,cs),
(205,20,o),
(163,-6,o),
(103,18,c),
(100,13,l)
);
},
{
closed = 1;
nodes = (
(229,709,o),
(250,730,o),
(250,757,cs),
(250,783,o),
(229,804,o),
(202,804,cs),
(176,804,o),
(155,783,o),
(155,757,cs),
(155,730,o),
(176,709,o),
(202,709,cs)
);
},
{
closed = 1;
nodes = (
(598,0,l),
(598,800,l),
(530,800,l),
(530,0,l)
);
},
{
attr = {
strokePos = 0;
};
closed = 1;
nodes = (
(537,418,l),
(498,421,o),
(444,406,o),
(411,454,cs),
(371,511,o),
(359,617,o),
(352,677,cs),
(337,802,o),
(240,808,o),
(199,804,c),
(200,789,l),
(240,793,o),
(324,786,o),
(337,675,cs),
(344,615,o),
(357,505,o),
(399,445,cs),
(437,390,o),
(500,406,o),
(536,403,c)
);
},
{
attr = {
strokePos = 1;
};
closed = 1;
nodes = (
(626,405,o),
(689,389,o),
(727,444,cs),
(769,504,o),
(782,614,o),
(789,674,cs),
(802,785,o),
(886,792,o),
(926,788,c),
(927,803,l),
(886,807,o),
(789,801,o),
(774,676,cs),
(767,616,o),
(755,510,o),
(715,453,cs),
(682,405,o),
(628,420,o),
(589,417,c),
(590,402,l)
);
},
{
closed = 1;
nodes = (
(950,709,o),
(971,730,o),
(971,757,cs),
(971,783,o),
(950,804,o),
(924,804,cs),
(897,804,o),
(876,783,o),
(876,757,cs),
(876,730,o),
(897,709,o),
(924,709,cs)
);
}
);
width = 1126;
},
{
anchors = (
{
name = bottom;
pos = (591,0);
},
{
name = bottomright;
pos = (1092,0);
},
{
name = top;
pos = (591,800);
}
);
hints = (
{
name = _corner.leftserif;
origin = (3,1);
type = Corner;
},
{
name = _corner.leftserif;
options = 1;
origin = (3,2);
scale = (-1,1);
type = Corner;
},
{
name = _corner.leftserif;
options = 1;
origin = (3,0);
scale = (-1,1);
type = Corner;
},
{
name = _corner.leftserif;
origin = (3,3);
type = Corner;
}
);
layerId = "2F0BCB80-3430-4FA1-A4A3-7C385E8DAA98";
shapes = (
{
closed = 1;
nodes = (
(1073,28,l),
(1013,4,o),
(977,20,o),
(964,75,cs),
(948,144,o),
(969,246,o),
(940,310,cs),
(911,377,o),
(845,405,o),
(753,412,cs),
(722,415,o),
(665,413,o),
(638,413,c),
(633,397,l),
(753,398,o),
(827,399,o),
(840,244,cs),
(843,209,o),
(844,105,o),
(867,54,cs),
(903,-25,o),
(1029,-23,o),
(1082,13,c)
);
},
{
closed = 1;
nodes = (
(153,-23,o),
(279,-25,o),
(315,54,cs),
(338,105,o),
(339,209,o),
(342,244,cs),
(355,399,o),
(429,398,o),
(549,397,c),
(544,413,l),
(517,413,o),
(460,415,o),
(429,412,cs),
(337,405,o),
(271,377,o),
(242,310,cs),
(213,246,o),
(234,144,o),
(218,75,cs),
(205,20,o),
(169,4,o),
(109,28,c),
(100,13,l)
);
},
{
closed = 1;
nodes = (
(236,685,o),
(262,711,o),
(262,745,cs),
(262,778,o),
(236,805,o),
(202,805,cs),
(169,805,o),
(142,778,o),
(142,745,cs),
(142,711,o),
(169,685,o),
(202,685,cs)
);
},
{
closed = 1;
nodes = (
(644,0,l),
(644,800,l),
(536,800,l),
(536,0,l)
);
},
{
attr = {
strokePos = 0;
};
closed = 1;
nodes = (
(547,418,l),
(508,421,o),
(444,406,o),
(411,454,cs),
(371,511,o),
(359,617,o),
(352,677,cs),
(337,802,o),
(255,810,o),
(199,805,c),
(201,785,l),
(255,790,o),
(319,783,o),
(332,675,cs),
(339,615,o),
(352,504,o),
(395,443,cs),
(435,384,o),
(510,401,o),
(545,398,c)
);
},
{
attr = {
strokePos = "1";
};
closed = 1;
nodes = (
(672,401,o),
(747,384,o),
(787,443,cs),
(830,504,o),
(843,615,o),
(850,675,cs),
(863,783,o),
(927,792,o),
(980,785,c),
(983,805,l),
(924,813,o),
(845,802,o),
(830,677,cs),
(823,617,o),
(811,511,o),
(771,454,cs),
(738,406,o),
(674,421,o),
(635,418,c),
(637,398,l)
);
},
{
closed = 1;
nodes = (
(1009,685,o),
(1036,711,o),
(1036,745,cs),
(1036,778,o),
(1009,805,o),
(976,805,cs),
(942,805,o),
(916,778,o),
(916,745,cs),
(916,711,o),
(942,685,o),
(976,685,cs)
);
}
);
width = 1182;
},
{
anchors = (
{
name = bottom;
pos = (621,0);
},
{
name = bottomright;
pos = (1152,0);
},
{
name = top;
pos = (621,800);
}
);
hints = (
{
name = _corner.leftserif;
options = 1;
origin = (3,0);
scale = (-1,1);
type = Corner;
},
{
name = _corner.leftserif;
origin = (3,3);
type = Corner;
},
{
name = _corner.leftserif;
origin = (3,1);
type = Corner;
},
{
name = _corner.leftserif;
options = 1;
origin = (3,2);
scale = (-1,1);
type = Corner;
}
);
layerId = m01;
shapes = (
{
closed = 1;
nodes = (
(1127,36,l),
(1067,12,o),
(1037,20,o),
(1024,75,cs),
(1008,144,o),
(1029,246,o),
(1000,310,cs),
(971,377,o),
(905,405,o),
(813,412,cs),
(782,415,o),
(710,413,o),
(683,413,c),
(686,392,l),
(821,393,o),
(852,399,o),
(865,244,cs),
(868,209,o),
(869,105,o),
(892,54,cs),
(928,-25,o),
(1089,-23,o),
(1142,13,c)
);
},
{
closed = 1;
nodes = (
(153,-23,o),
(314,-25,o),
(350,54,cs),
(373,105,o),
(374,209,o),
(377,244,cs),
(390,399,o),
(421,393,o),
(556,392,c),
(559,413,l),
(532,413,o),
(460,415,o),
(429,412,cs),
(337,405,o),
(271,377,o),
(242,310,cs),
(213,246,o),
(234,144,o),
(218,75,cs),
(205,20,o),
(175,12,o),
(115,36,c),
(100,13,l)
);
},
{
closed = 1;
nodes = (
(244,659,o),
(275,691,o),
(275,732,cs),
(275,773,o),
(244,806,o),
(202,806,cs),
(162,806,o),
(129,773,o),
(129,732,cs),
(129,691,o),
(162,659,o),
(202,659,cs)
);
},
{
closed = 1;
nodes = (
(695,0,l),
(695,800,l),
(547,800,l),
(547,0,l)
);
},
{
closed = 1;
nodes = (
(552,418,l),
(513,420,o),
(444,406,o),
(411,454,cs),
(371,511,o),
(359,617,o),
(352,677,cs),
(337,802,o),
(259,811,o),
(199,806,c),
(201,779,l),
(256,783,o),
(313,775,o),
(325,674,cs),
(332,614,o),
(344,501,o),
(388,438,cs),
(431,376,o),
(513,398,o),
(556,392,c)
);
},
{
closed = 1;
nodes = (
(724,398,o),
(811,376,o),
(854,438,cs),
(898,501,o),
(910,614,o),
(917,674,cs),
(929,775,o),
(986,783,o),
(1041,779,c),
(1043,806,l),
(983,811,o),
(905,802,o),
(890,677,cs),
(883,617,o),
(871,510,o),
(831,453,cs),
(798,405,o),
(729,420,o),
(690,418,c),
(686,392,l)
);
},
{
closed = 1;
nodes = (
(1080,659,o),
(1113,691,o),
(1113,732,cs),
(1113,773,o),
(1080,806,o),
(1040,806,cs),
(998,806,o),
(967,773,o),
(967,732,cs),
(967,691,o),
(998,659,o),
(1040,659,cs)
);
}
);
width = 1242;
}
);
unicode = 1046;
},
{
color = 5;
glyphname = "Ze-cy";
lastChange = "2026-06-19 00:07:20 +0000";
layers = (
{
anchors = (
{
name = bottom;
pos = (321,0);
},
{
name = top;
pos = (321,800);
}
);
layerId = "E5DC9139-DBE8-45F6-BCD0-0641ED917C2C";
shapes = (
{
closed = 1;
nodes = (
(446,-5,o),
(552,86,o),
(552,215,cs),
(552,353,o),
(446,450,o),
(296,450,c),
(296,439,l),
(532,439,o),
(563,7,o),
(292,7,cs),
(187,7,o),
(113,56,o),
(113,125,c),
(101,125,l),
(100,49,o),
(180,-5,o),
(296,-5,cs)
);
},
{
closed = 1;
nodes = (
(176,77,o),
(196,97,o),
(196,125,cs),
(196,153,o),
(176,172,o),
(148,172,cs),
(120,172,o),
(101,153,o),
(101,125,cs),
(101,97,o),
(120,77,o),
(148,77,cs)
);
},
{
closed = 1;
nodes = (
(296,439,l),
(296,450,l),
(238,450,l),
(238,439,l)
);
},
{
closed = 1;
nodes = (
(115,748,o),
(174,802,o),
(243,802,c),
(100,802,l),
(100,671,l)
);
},
{
closed = 1;
nodes = (
(297,802,l),
(297,814,l),
(100,814,l),
(100,802,l)
);
},
{
closed = 1;
nodes = (
(435,439,o),
(532,519,o),
(532,633,cs),
(532,739,o),
(435,814,o),
(297,814,c),
(292,802,l),
(511,802,o),
(537,450,o),
(296,450,c),
(296,439,l)
);
}
);
width = 652;
},
{
anchors = (
{
name = bottom;
pos = (326,0);
},
{
name = top;
pos = (326,800);
}
);
layerId = "2F0BCB80-3430-4FA1-A4A3-7C385E8DAA98";
shapes = (
{
closed = 1;
nodes = (
(451,-5,o),
(561,90,o),
(561,225,cs),
(561,358,o),
(451,452,o),
(295,452,c),
(295,437,l),
(514,437,o),
(522,19,o),
(291,13,cs),
(192,10,o),
(119,56,o),
(115,125,c),
(100,125,l),
(99,49,o),
(179,-5,o),
(295,-5,cs)
);
},
{
closed = 1;
nodes = (
(195,64,o),
(220,89,o),
(220,125,cs),
(220,160,o),
(195,184,o),
(159,184,cs),
(124,184,o),
(100,160,o),
(100,125,cs),
(100,89,o),
(124,64,o),
(159,64,cs)
);
},
{
closed = 1;
nodes = (
(295,437,l),
(295,452,l),
(237,452,l),
(237,437,l)
);
},
{
closed = 1;
nodes = (
(121,734,o),
(187,796,o),
(263,796,c),
(103,796,l),
(103,647,l)
);
},
{
closed = 1;
nodes = (
(294,796,l),
(295,814,l),
(103,814,l),
(103,796,l)
);
},
{
closed = 1;
nodes = (
(439,437,o),
(541,518,o),
(541,633,cs),
(541,739,o),
(439,814,o),
(295,814,c),
(289,796,l),
(479,789,o),
(478,452,o),
(295,452,c),
(295,437,l)
);
}
);
width = 661;
},
{
anchors = (
{
name = bottom;
pos = (360,0);
},
{
name = top;
pos = (360,800);
}
);
layerId = m01;
shapes = (
{
closed = 1;
nodes = (
(460,-5,o),
(576,96,o),
(576,240,cs),
(576,365,o),
(460,453,o),
(295,453,c),
(295,436,l),
(509,436,o),
(488,31,o),
(291,16,cs),
(195,8,o),
(123,53,o),
(116,125,c),
(100,125,l),
(99,49,o),
(179,-5,o),
(295,-5,cs)
);
},
{
closed = 1;
nodes = (
(215,51,o),
(246,82,o),
(246,125,cs),
(246,167,o),
(215,197,o),
(172,197,cs),
(130,197,o),
(100,167,o),
(100,125,cs),
(100,82,o),
(130,51,o),
(172,51,cs)
);
},
{
closed = 1;
nodes = (
(295,436,l),
(295,453,l),
(237,453,l),
(237,436,l)
);
},
{
closed = 1;
nodes = (
(124,725,o),
(175,793,o),
(257,793,c),
(104,793,l),
(104,629,l)
);
},
{
closed = 1;
nodes = (
(272,793,l),
(294,814,l),
(104,814,l),
(104,793,l)
);
},
{
closed = 1;
nodes = (
(455,436,o),
(556,512,o),
(556,633,cs),
(556,744,o),
(455,814,o),
(294,814,c),
(266,793,l),
(441,793,o),
(433,453,o),
(295,453,c),
(295,436,l)
);
}
);
width = 676;
}
);
unicode = 1047;
},
